<svg width="110" height="53" viewBox="0 0 110 53" fill="none" xmlns="http://www.w3.org/2000/svg">
<g id="&#208;&#160;&#208;&#181;&#209;&#129;&#209;&#131;&#209;&#128;&#209;&#129; 4 1" clip-path="url(#clip0_136_479)">
<g id="&#208;&#161;&#208;&#187;&#208;&#190;&#208;&#185; 2">
<g id="&#208;&#161;&#208;&#187;&#208;&#190;&#208;&#185; 1">
<path id="Vector" d="M78.8949 52.8972H0.00013041V51.0656H78.8949C82.5058 51.0615 85.9676 49.6215 88.5209 47.0615C91.0742 44.5014 92.5103 41.0304 92.5144 37.41V15.5862C92.5103 11.9658 91.0742 8.49481 88.5209 5.93477C85.9676 3.37473 82.5058 1.93472 78.8949 1.93069H19.081C16.7715 1.93325 14.4859 2.40018 12.3594 3.30386C10.233 4.20754 8.30888 5.52961 6.70093 7.19189C5.09298 8.85417 3.83383 10.8229 2.99796 12.9816C2.1621 15.1403 1.76649 17.4452 1.83454 19.7598C2.10799 29.0095 10.0191 36.557 19.4684 36.557H41.8535V38.3849H19.4684C9.04305 38.3658 0.311562 30.0453 0.00013041 19.8017C-0.0735082 17.2425 0.365503 14.6945 1.29119 12.3085C2.21688 9.92237 3.61045 7.74667 5.38946 5.91004C7.16846 4.07342 9.29678 2.61318 11.6485 1.61572C14.0002 0.618251 16.5276 0.103816 19.081 0.102844H78.8949C82.989 0.107883 86.9139 1.74078 89.8088 4.64339C92.7038 7.546 94.3324 11.4813 94.3374 15.5862V37.41C94.3334 41.5156 92.7052 45.4519 89.8102 48.3553C86.9151 51.2588 82.9896 52.8922 78.8949 52.8972Z" fill="#0FBACE"/>
<path id="Vector_2" d="M77.9263 44.3596H0V42.5279H77.9263C79.538 42.5279 81.0836 41.886 82.2232 40.7434C83.3628 39.6008 84.003 38.051 84.003 36.4351V16.5611C84.003 14.9451 83.3628 13.3954 82.2232 12.2528C81.0836 11.1102 79.538 10.4682 77.9263 10.4682H19.3695C14.5461 10.4682 10.5887 14.1201 10.3608 18.7888C10.3005 19.9759 10.4818 21.1629 10.8937 22.2774C11.3056 23.392 11.9395 24.4109 12.7567 25.272C13.574 26.1331 14.5575 26.8183 15.6473 27.2861C16.7372 27.7538 17.9106 27.9943 19.0961 27.9927H41.8838V29.8244H19.0961C17.6635 29.8246 16.2457 29.5329 14.9289 28.9672C13.6121 28.4014 12.4236 27.5734 11.4356 26.5332C10.4475 25.4931 9.68054 24.2625 9.18111 22.9162C8.68169 21.5699 8.46023 20.1359 8.53019 18.7012C8.80744 13.0615 13.5663 8.64038 19.3695 8.64038H77.9339C80.0284 8.6424 82.0366 9.47754 83.5176 10.9625C84.9987 12.4475 85.8316 14.461 85.8336 16.5611V36.4389C85.8316 38.5403 84.9977 40.5549 83.515 42.0401C82.0323 43.5253 80.0222 44.3596 77.9263 44.3596Z" fill="#0FBACE"/>
<path id="Vector_3" d="M78.6479 48.6284H0V46.7967H78.6479C81.1954 46.7937 83.6377 45.7777 85.439 43.9716C87.2404 42.1654 88.2537 39.7167 88.2567 37.1624V15.8375C88.2537 13.2829 87.2405 10.8338 85.4393 9.02705C83.638 7.22032 81.1958 6.20346 78.6479 6.19943H19.0809C15.672 6.25786 12.4224 7.65666 10.0322 10.0945C7.64207 12.5322 6.30271 15.8139 6.30271 19.2324C6.30271 22.6508 7.64207 25.9325 10.0322 28.3703C12.4224 30.8081 15.672 32.2069 19.0809 32.2653H41.8686V34.097H19.0809C15.1495 34.097 11.3791 32.5311 8.59917 29.7438C5.81925 26.9565 4.2575 23.1761 4.2575 19.2343C4.2575 15.2924 5.81925 11.5121 8.59917 8.72477C11.3791 5.93747 15.1495 4.37158 19.0809 4.37158H78.6479C81.6793 4.37561 84.5852 5.58505 86.7283 7.73456C88.8715 9.88408 90.0767 12.7982 90.0798 15.8375V37.1624C90.0767 40.2018 88.8715 43.1159 86.7283 45.2654C84.5852 47.4149 81.6793 48.6243 78.6479 48.6284Z" fill="#0FBACE"/>
<g id="Group 15">
<path id="Vector_4" d="M29.5822 14.8513V23.6097H25.3513L21.5913 18.4536V23.6097H18.3555V14.8513H22.5864L26.3464 20.0035V14.8513H29.5822Z" fill="#B69ECE"/>
<path id="Vector_5" d="M33.5664 23.6097H30.3306V14.8513H33.5664V23.6097Z" fill="#B69ECE"/>
<path id="Vector_6" d="M45.5412 14.8513V23.6097H41.3103L37.5503 18.4536V23.6097H34.3145V14.8513H38.5454L42.3053 20.0035V14.8513H45.5412Z" fill="#B69ECE"/>
<path id="Vector_7" d="M49.5288 17.3607V18.1718H55.503V20.2929H49.5288V21.1078H55.503V23.6097H46.293V14.8513H55.503V17.3455L49.5288 17.3607Z" fill="#B69ECE"/>
<path id="Vector_8" d="M66.707 17.6121H62.9736V23.6097H59.7378V17.6121H56.0044V14.8513H66.707V17.6121Z" fill="#B69ECE"/>
<path id="Vector_9" d="M67.2236 14.8513H70.957L73.2738 18.0957L75.5791 14.8513H79.3163L74.8841 20.7156V23.6097H71.6482V20.7308L67.2236 14.8513Z" fill="#B69ECE"/>
<path id="Vector_10" d="M46.54 33.1678C46.54 30.1214 48.1846 28.6896 52.0167 28.6896C55.8488 28.6896 57.4933 30.148 57.4933 33.1678C57.4933 36.1876 55.8298 37.6765 52.0319 37.6765C48.2339 37.6765 46.54 36.2142 46.54 33.1678ZM54.2575 33.1678C54.2575 32.2577 53.9346 31.4352 52.0167 31.4352C50.0987 31.4352 49.7759 32.2463 49.7759 33.1678C49.7759 34.0893 50.1139 34.9271 52.0167 34.9271C53.9195 34.9271 54.2575 34.0932 54.2575 33.1678Z" fill="#B69ECE"/>
<path id="Vector_11" d="M69.3465 28.8115V37.5699H65.1156L61.3556 32.4138V37.5509H58.1084V28.7924H62.3393L66.0993 33.9485V28.8115H69.3465Z" fill="#B69ECE"/>
<path id="Vector_12" d="M73.3344 31.3095V32.1206H79.3086V34.2417H73.3344V35.0528H79.3086V37.5509H70.0947V28.7924H79.3086V31.2905L73.3344 31.3095Z" fill="#B69ECE"/>
</g>
<path id="Vector_13" d="M110 0H108.173V53H110V0Z" fill="#0FBACE"/>
<path id="Vector_14" d="M105.674 0H103.848V53H105.674V0Z" fill="#0FBACE"/>
<path id="Vector_15" d="M101.348 0H99.5215V53H101.348V0Z" fill="#0FBACE"/>
</g>
</g>
</g>
<defs>
<clipPath id="clip0_136_479">
<rect width="110" height="53" fill="white"/>
</clipPath>
</defs>
</svg>
