<svg width="116" height="116" viewBox="0 0 116 116" fill="none" xmlns="http://www.w3.org/2000/svg">
<path d="M111.788 43.608C113.026 43.2769 114.302 44.011 114.584 45.261C116.927 55.6676 116.354 66.5206 112.929 76.6228C112.518 77.8363 111.171 78.432 109.975 77.9724C108.779 77.5128 108.187 76.1719 108.594 74.957C111.673 65.7717 112.192 55.9197 110.098 46.4613C109.82 45.2104 110.55 43.9392 111.788 43.608Z" fill="#0FBACE"/>
<path d="M84.525 9.04401C85.1353 7.91744 86.5461 7.49495 87.6474 8.14989C96.8157 13.6024 104.304 21.4792 109.286 30.9115C109.884 32.0445 109.391 33.4321 108.235 33.9847C107.079 34.5374 105.698 34.0454 105.096 32.9145C100.542 24.3642 93.7442 17.2139 85.4351 12.2331C84.3361 11.5743 83.9146 10.1706 84.525 9.04401Z" fill="#0FBACE"/>
<path d="M40.748 5.06011C40.351 3.84187 41.0157 2.5277 42.2489 2.17972C52.515 -0.717293 63.3831 -0.726717 73.6543 2.15249C74.8881 2.49833 75.555 3.81134 75.1601 5.03027C74.7653 6.2492 73.458 6.91202 72.2231 6.57048C62.886 3.98813 53.0203 3.99669 43.6878 6.59522C42.4534 6.93891 41.145 6.27836 40.748 5.06011Z" fill="#D2FAFF"/>
<path d="M7.07654 35.4819C5.90469 34.9638 5.37055 33.5913 5.93517 32.4411C10.6357 22.8655 17.8874 14.7706 26.8903 9.04914C27.9717 8.36189 29.3944 8.74244 30.0378 9.85045C30.6813 10.9585 30.3015 12.3741 29.2225 13.0651C21.0644 18.2896 14.4816 25.6379 10.1825 34.3193C9.61386 35.4675 8.24838 36.0001 7.07654 35.4819Z" fill="#D2FAFF"/>
<path d="M7.32292 81.0672C6.15675 81.598 4.77646 81.0846 4.29269 79.8981C0.265155 70.0205 -0.960263 59.2218 0.751595 48.6929C0.957217 47.4282 2.18736 46.6185 3.44282 46.8745C4.69828 47.1305 5.50321 48.3554 5.30198 49.6208C3.7806 59.1882 4.89299 68.9909 8.51946 77.9742C8.9991 79.1623 8.48909 80.5364 7.32292 81.0672Z" fill="#D2FAFF"/>
</svg>
