<svg width="284" height="300" viewBox="0 0 284 300" fill="none" xmlns="http://www.w3.org/2000/svg">
<path d="M177.947 46.3354C177.87 46.662 177.793 47.0077 177.716 47.3151C177.716 47.3279 177.716 47.3407 177.716 47.3535C176.41 52.7325 175.276 56.3825 173.163 59.8596L165.748 52.8286L169.801 45.1635L170.07 44.6833V44.6641H170.128L170.973 44.8562L177.947 46.3354Z" fill="#F9B384"/>
<path d="M179.33 40.6682C179.317 40.9115 179.292 41.1485 179.253 41.379C179.176 42.109 179.023 42.8582 178.85 43.6074C178.735 44.0877 178.6 44.5871 178.466 45.0482C178.293 45.6245 178.12 46.1624 177.947 46.6427C177.909 46.7707 177.87 46.8924 177.832 47.0077C177.806 47.1101 177.768 47.2126 177.716 47.315C177.716 47.3279 177.716 47.3407 177.716 47.3535C177.659 47.4879 177.601 47.6224 177.563 47.7761C177.563 47.7889 177.556 47.8017 177.544 47.8145C177.505 47.9298 177.447 48.045 177.409 48.1411C177.14 48.8519 176.948 49.2937 176.948 49.2937C174.086 48.8327 172.011 47.2958 170.532 45.3171C170.378 45.125 170.231 44.9265 170.09 44.7216C170.071 44.7024 170.071 44.7024 170.071 44.6832V44.664C168.15 41.84 167.304 38.3053 166.901 35.6542C166.901 35.635 166.901 35.5966 166.882 35.5774C166.747 34.6169 166.67 33.7716 166.632 33.1377C166.574 32.4077 167.151 31.7929 167.881 31.8121L168.995 31.8313L170.224 29.7566L178.888 33.5987C178.888 33.5987 179.272 35.4045 179.369 37.8634C179.407 38.7279 179.407 39.6884 179.33 40.6682Z" fill="#F9B384"/>
<path d="M173.816 41.8401L170.973 44.8562L170.07 44.6833V44.6641C168.149 41.8401 167.304 38.3054 166.9 35.6543L169.11 36.173C169.206 37.6138 170.397 40.5722 170.397 40.5722L173.816 41.8401Z" fill="#E28B6D"/>
<path d="M169.975 36.077C169.072 36.8262 167.592 36.0385 166.882 35.5775C166.747 34.6169 166.67 33.7717 166.632 33.1377C166.574 32.4077 167.151 31.793 167.881 31.8122L168.995 31.8314C168.995 31.8314 171.089 35.1548 169.975 36.077Z" fill="#E28B6D"/>
<path fill-rule="evenodd" clip-rule="evenodd" d="M179.33 40.6682C179.061 44.4335 176.948 49.2938 176.948 49.2938C173.797 48.7751 171.607 46.9885 170.09 44.7217C171.319 43.108 172.568 42.3588 173.509 42.013L170.397 40.5722L172.491 36.3267L179.004 37.8059L179.369 37.8635C179.407 38.728 179.407 39.6885 179.33 40.6682ZM175.334 41.744L175.065 39.7077L173.183 39.5732C174.624 40.188 174.643 41.1677 174.451 41.7825C174.989 41.6864 175.334 41.744 175.334 41.744Z" fill="#F9B384"/>
<path d="M178.792 53.1362C171.78 70.9059 158.467 91.2691 145.846 105.139C141.216 110.23 136.683 114.437 132.572 117.338L125.829 99.9139L124.983 97.7239L127.097 95.8412L127.481 95.4954L151.955 73.5954L167.881 47.2961L178.792 53.1362Z" fill="#61C8C8"/>
<path d="M142.946 271.695L126.982 272.329L124.484 283.509L139.449 285.853L142.946 271.695Z" fill="#F9B384"/>
<path d="M153.223 299.8L139.449 285.853L124.484 283.509L120.854 299.685L153.223 299.8Z" fill="#D3DFFF"/>
<path d="M130.901 289.753L123.505 288.312L123.659 287.563L131.055 289.004L130.901 289.753Z" fill="#708CD5"/>
<path d="M139.391 293.287L139.084 292.577L143.791 290.56L144.098 291.27L139.391 293.287Z" fill="#708CD5"/>
<path d="M142.37 295.977L142.062 295.266L146.769 293.249L147.076 293.96L142.37 295.977Z" fill="#708CD5"/>
<path d="M107.579 161.656L135.492 213.583L120.854 275.921L148.056 275.767L163.117 226.588C165.614 218.462 165.019 209.702 161.446 201.999L145.097 166.709L107.579 161.656Z" fill="#0692A3"/>
<path d="M103.987 150.38C85.9676 174.412 62.2809 187.917 35.8664 196.428C36.4043 195.467 36.8462 194.506 37.1727 193.546C38.1525 190.626 38.0564 187.629 35.8664 184.555L35.0596 176.18L83.6047 140.313L95.2078 148.132L103.987 150.38Z" fill="#E16B5C"/>
<path d="M9.43262 139.776C18.8842 158.122 19.3837 183.557 35.8663 184.556L112.689 135.011L90.0785 95.8027L28.5855 120.085L9.43262 139.776Z" fill="#E16B5C"/>
<path opacity="0.3" d="M37.1725 193.546C38.1523 190.626 38.0562 187.629 35.8662 184.556C50.3894 177.217 67.6597 165.556 86.0442 152.167C70.9831 167.439 55.0191 181.635 37.1725 193.546Z" fill="#9E3B2E"/>
<path d="M106.004 142.196C88.734 172.415 59.6492 186.092 21.8428 197.235L33.2154 204.765C36.9423 207.224 41.8025 207.166 45.4718 204.592C69.2544 187.956 91.0392 171.127 107.618 153.799L106.004 142.196Z" fill="#FD8778"/>
<path d="M112.747 95.5338C90.5586 85.6019 54.4235 102.526 18.6342 118.779C10.4698 122.505 4.66817 130.055 3.18895 138.911L0 158.122C21.0356 126.021 65.1238 104.409 112.747 95.5338Z" fill="#FD8778"/>
<path d="M128.191 96.2446C128.095 99.5873 127.961 102.392 127.999 102.93L115.128 104.928L107.771 99.5296C111.267 95.5338 112.9 86.3896 114.936 78.4749L123.004 83.2967L128.249 86.4088C128.383 89.0791 128.307 92.9212 128.191 96.2446Z" fill="#F9B384"/>
<path d="M128.192 96.2445C124.349 93.9393 119.355 90.4045 117.088 82.4321L123.005 83.2966L128.249 86.4087C128.384 89.079 128.307 92.9211 128.192 96.2445Z" fill="#E28B6D"/>
<path d="M135.837 76.8995C135.933 78.6861 135.703 80.319 135.222 81.7598C132.706 89.444 123.139 91.5572 116.089 81.7022L115.493 66.5066L120.488 62.2227L136.702 68.4853L135.683 75.1898C135.76 75.7853 135.837 76.3424 135.837 76.8995Z" fill="#F9B384"/>
<path d="M153.972 153.3C151.456 136.03 140.141 110.326 128.096 99.4912L122.429 110.825L138.873 157.219L153.972 153.3Z" fill="#B69ECE"/>
<path d="M145.885 153.3C142.062 135.665 136.894 117.146 128.096 99.4911C123.639 104.62 110.556 94.6309 110.556 94.6309L103.813 100.432L121.622 161.023L145.885 153.3Z" fill="white"/>
<path d="M162.426 214.447L148.594 209.76L145.232 217.905L158.469 225.051L162.426 214.447Z" fill="#F9B384"/>
<path d="M166.575 242.495L158.468 225.051L145.232 217.905L139.238 232.428L166.575 242.495Z" fill="#D3DFFF"/>
<path d="M156.201 231.621L156.009 230.891L160.619 229.604L160.811 230.353L156.201 231.621Z" fill="#708CD5"/>
<path d="M157.872 235.079L157.661 234.349L162.272 233.062L162.483 233.811L157.872 235.079Z" fill="#708CD5"/>
<path d="M151.187 226.473L143.253 222.516L143.599 221.824L151.533 225.801L151.187 226.473Z" fill="#708CD5"/>
<path d="M121.967 143.234C141.062 144.598 160.676 147.998 178.139 155.567C187.533 159.659 190.664 172.549 186.38 181.866L169.091 219.384L144.002 211.566L159.946 178.37C111.747 179.811 106.483 162.098 106.483 162.098L121.967 143.234Z" fill="#61C8C8"/>
<path d="M131.15 154.549C124.849 165.806 115.685 171.992 104.37 176.314L103.064 164.845L100.701 143.81L97.0703 111.382L99.4908 99.8946L110.556 94.6309C122.697 107.444 126.616 136.068 131.15 154.549Z" fill="#B69ECE"/>
<path d="M116.627 74.8631C116.839 70.7137 117.991 68.4852 121.084 67.1981C126.962 72.5579 137.816 72.3658 143.234 67.4287C141.274 66.7371 139.853 66.2376 138.431 64.7776C137.624 63.9323 137.221 63.356 136.164 61.2621C132.399 53.7507 118.318 53.2513 116.339 60.4744C107.637 64.7008 111.844 71.1171 113.265 75.0168L116.627 74.8631Z" fill="#4D5556"/>
<path d="M119.547 123.6L120.527 116.358L124.983 114.072C124.983 114.072 127.193 114.437 126.271 117.299C125.329 120.143 119.547 123.6 119.547 123.6Z" fill="#E28B6D"/>
<path d="M116.742 125.31L119.547 123.601L123.159 117.588L128 115.167C128.288 115.013 128.634 115.148 128.768 115.436C129.383 115.955 129.709 116.723 129.729 117.761C130.804 118.663 131.016 119.701 130.535 120.796C132.034 121.449 132.591 122.237 132.149 123.178C132.821 124.273 133.225 125.349 132.956 126.636L125.502 132.034L118.164 134.743L116.742 125.31Z" fill="#F9B384"/>
<path opacity="0.3" d="M119.086 136.222C116.05 148.593 110.825 158.295 103.064 164.845L100.701 143.81L119.086 136.222Z" fill="#61C8C8"/>
<path d="M110.556 94.6309L95.2645 96.4559C89.924 97.0898 85.4095 100.701 83.5461 105.754C78.8779 118.548 75.7082 132.245 74.9398 144.021C74.4595 151.475 81.3369 157.277 88.6369 155.663C100.624 152.993 110.402 145.251 119.086 136.222L117.664 123.812L93.209 135.492L110.556 94.6309Z" fill="#B69ECE"/>
<path d="M118.874 77.6103C117.952 79.6467 116.435 81.0106 114.475 80.1077C112.496 79.2048 110.076 76.3424 111.344 73.5569C112.266 71.5398 115.051 71.4053 117.011 72.3082C118.97 73.2111 119.796 75.5932 118.874 77.6103Z" fill="#F9B384"/>
<path d="M101.048 116.704C100.49 118.298 99.8949 119.874 99.2994 121.468C98.7039 123.043 98.0507 124.619 97.436 126.194L95.4957 130.881C94.8233 132.418 94.1318 133.974 93.4018 135.511L93.1328 135.396C93.6707 133.782 94.2662 132.207 94.8618 130.612L96.7444 125.906C97.3976 124.35 98.0123 122.774 98.7039 121.218C99.3762 119.662 100.049 118.106 100.759 116.589L101.048 116.704Z" fill="#9776B8"/>
<path d="M93.248 135.261C95.2459 134.224 97.2438 133.206 99.261 132.207C101.278 131.208 103.295 130.247 105.331 129.268L111.421 126.405C113.477 125.483 115.513 124.542 117.588 123.677L117.722 123.946C115.744 125.003 113.727 126.002 111.709 127.001L105.658 129.94C103.622 130.9 101.585 131.861 99.5491 132.802C97.4936 133.744 95.4381 134.646 93.3825 135.53L93.248 135.261Z" fill="#9776B8"/>
<g opacity="0.3">
<path d="M119.162 103.41C120.411 104.428 121.986 104.947 123.504 104.832C125.041 104.736 126.52 104.025 127.654 102.891L127.884 103.064C127 104.543 125.31 105.504 123.562 105.6C121.814 105.696 120.027 104.947 118.951 103.621L119.162 103.41Z" fill="#61C8C8"/>
<path d="M130.343 140.64C131.323 139.68 132.168 138.623 132.898 137.49C133.628 136.337 134.243 135.146 134.704 133.878C135.165 132.61 135.491 131.304 135.664 129.959C135.856 128.615 135.895 127.27 135.799 125.906L136.087 125.867C136.394 127.212 136.452 128.634 136.336 130.036C136.202 131.438 135.895 132.822 135.414 134.128C134.896 135.454 134.262 136.721 133.436 137.855C132.629 138.988 131.649 140.026 130.554 140.871L130.343 140.64Z" fill="#61C8C8"/>
<path d="M132.207 141.005C133.302 140.256 134.339 139.468 135.319 138.604C136.299 137.739 137.202 136.798 138.124 135.818L138.374 135.991C137.759 137.202 136.856 138.277 135.819 139.18C134.8 140.064 133.629 140.813 132.342 141.274L132.207 141.005Z" fill="#61C8C8"/>
</g>
<path d="M116.147 76.381C116.032 76.0224 115.872 75.6958 115.667 75.4012C115.455 75.1131 115.225 74.8441 114.918 74.652C114.36 74.2294 113.65 74.0373 112.881 74.0181L112.843 73.8068C113.227 73.6531 113.669 73.6339 114.091 73.6915C114.495 73.7683 114.898 73.9412 115.263 74.191C115.59 74.4407 115.897 74.7673 116.089 75.1515C116.281 75.5165 116.378 75.9391 116.378 76.3618L116.147 76.381Z" fill="#E28B6D"/>
<path d="M124.849 71.463C123.543 71.098 123.197 73.3649 123.408 74.1909C123.581 74.9786 124.215 75.1899 124.753 74.5751C125.252 73.9988 125.982 71.7704 124.849 71.463Z" fill="#4D5556"/>
<path d="M133.225 72.9037C133.052 72.1929 132.245 71.924 131.803 72.5003C131.611 72.75 131.515 73.0766 131.477 73.4032C131.4 73.9027 131.265 74.5174 131.419 75.0361C131.65 75.67 132.226 75.9582 132.649 75.3627C133.071 74.7479 133.398 73.6529 133.225 72.9037Z" fill="#4D5556"/>
<path d="M128.691 73.9603C128.672 74.575 128.653 75.1706 128.672 75.7469C128.691 76.035 128.691 76.3232 128.768 76.5153C128.864 76.7266 129.018 76.9379 129.21 77.1492C129.402 77.3606 129.613 77.5911 129.805 77.8985C129.901 78.0329 129.978 78.2058 130.036 78.3979C130.074 78.5708 130.113 78.8398 129.978 79.0703C129.863 79.3008 129.671 79.4161 129.517 79.4737C129.344 79.5506 129.21 79.6082 129.056 79.6466C128.768 79.7235 128.499 79.8195 128.268 79.954L128.076 79.7427C128.307 79.4737 128.614 79.32 128.864 79.1856C129.133 79.0703 129.421 78.8974 129.421 78.8014C129.44 78.7245 129.383 78.4748 129.21 78.2827C129.075 78.0714 128.864 77.86 128.672 77.6295C128.46 77.3798 128.23 77.1108 128.115 76.7458C127.999 76.3616 128.038 76.0543 128.057 75.7277C128.115 75.0937 128.23 74.4982 128.422 73.9219L128.691 73.9603Z" fill="#4D5556"/>
<path d="M124.292 79.4739L129.633 82.0673C128.71 83.8347 124.638 83.6426 124.292 79.4739Z" fill="white"/>
<path opacity="0.4" d="M135.222 81.7597C135.082 81.7854 134.934 81.7982 134.781 81.7982C133.359 81.7982 132.226 80.6647 132.226 79.2432C132.226 77.8216 133.359 76.6689 134.781 76.6689C135.165 76.6689 135.53 76.765 135.837 76.8995C135.933 78.6861 135.703 80.319 135.222 81.7597Z" fill="#FC8879"/>
<path opacity="0.4" d="M123.447 77.6487C123.447 79.0511 122.294 80.2037 120.892 80.2037C119.47 80.2037 118.317 79.0511 118.317 77.6487C118.317 76.2271 119.47 75.0745 120.892 75.0745C122.294 75.0745 123.447 76.2271 123.447 77.6487Z" fill="#FC8879"/>
<path d="M188.128 8.33739C186.303 6.74291 184.286 4.07264 182.25 1.13342C183.556 0.941319 184.69 0.614738 185.285 0C186.726 3.07369 188.244 4.99475 190.511 7.4537C189.588 7.16554 188.993 8.04923 188.128 8.33739Z" fill="#C6EAE9"/>
<path d="M81.6823 75.6512C80.0302 74.2104 78.2244 71.8091 76.3994 69.1581C77.5713 68.9852 78.5894 68.697 79.1273 68.1399C80.4144 70.9062 81.7784 72.6352 83.8339 74.8636C82.9886 74.5754 82.47 75.3823 81.6823 75.6512Z" fill="#FBD682"/>
<path d="M111.689 52.9634C112.419 51.3113 113.764 49.3902 115.263 47.3923C115.551 48.3913 115.897 49.2366 116.338 49.64C114.686 51.1768 113.726 52.6176 112.535 54.7308C112.592 53.9623 111.978 53.6166 111.689 52.9634Z" fill="#FBD682"/>
<path d="M187.476 109.865C188.282 108.021 189.762 105.889 191.433 103.66C191.76 104.794 192.125 105.716 192.643 106.158C190.799 107.867 189.723 109.481 188.417 111.825C188.475 110.96 187.802 110.576 187.476 109.865Z" fill="#EE6F57"/>
<path d="M223.495 8.97145C224.302 7.14644 225.781 4.99486 227.452 2.78564C227.779 3.89986 228.163 4.84117 228.663 5.28302C226.819 6.97355 225.743 8.58724 224.436 10.9309C224.494 10.0857 223.822 9.70145 223.495 8.97145Z" fill="#708CD5"/>
<path d="M50.2925 67.3906C49.5817 65.7385 48.237 63.8175 46.7386 61.8196C46.4504 62.8185 46.1046 63.6638 45.6436 64.0672C47.3149 65.6041 48.2754 67.0449 49.4664 69.158C49.4088 68.3896 50.0044 68.0438 50.2925 67.3906Z" fill="#708CD5"/>
<path d="M141.447 38.9975C140.659 37.1725 139.161 35.0209 137.49 32.7925C137.163 33.9259 136.798 34.848 136.279 35.2899C138.143 36.9996 139.199 38.6133 140.525 40.957C140.448 40.0925 141.12 39.7083 141.447 38.9975Z" fill="#D3DFFF"/>
<path d="M212.661 38.1906C210.375 38.7477 207.186 38.9782 203.747 39.1511C204.4 38.229 204.823 37.3837 204.708 36.7498C207.877 37.0379 210.221 36.8266 213.429 36.3271C212.642 36.8074 212.968 37.5182 212.661 38.1906Z" fill="#F5C7BE"/>
<path d="M75.5353 21.2085C77.5909 21.9769 80.4724 22.3035 83.5461 22.534C82.9698 21.2661 82.5856 20.1135 82.6817 19.2298C79.8385 19.6332 77.7253 19.3259 74.8438 18.6343C75.5353 19.2874 75.2664 20.2864 75.5353 21.2085Z" fill="#C6EAE9"/>
<path d="M145.808 11.5648C143.502 12.9287 140.121 13.9853 136.51 14.965C136.971 13.3321 137.221 11.8529 136.952 10.854C140.41 10.6619 142.868 9.81662 146.173 8.3374C145.462 9.27872 145.961 10.3929 145.808 11.5648Z" fill="#EE6F57"/>
<path d="M193.373 74.9019C195.102 76.0545 197.081 78.1292 199.136 80.4345C198.003 80.7611 197.061 81.1645 196.6 81.7792C195.063 79.2819 193.584 77.8027 191.375 75.9392C192.22 76.0929 192.643 75.2476 193.373 74.9019Z" fill="#C6EAE9"/>
<path d="M163.616 76.7078C165.345 77.8796 167.324 79.9351 169.379 82.2404C168.246 82.567 167.304 82.9896 166.843 83.6044C165.307 81.107 163.827 79.6278 161.618 77.7643C162.463 77.918 162.886 77.0728 163.616 76.7078Z" fill="#FBD682"/>
<path d="M87.8297 41.1489C89.7699 42.4552 91.9984 44.7797 94.3036 47.3731C93.0357 47.7381 91.9792 48.1992 91.4605 48.8908C89.7315 46.086 88.0602 44.4147 85.582 42.3208C86.5233 42.4937 87.0036 41.5523 87.8297 41.1489Z" fill="#F5C7BE"/>
<path d="M213.947 63.6829C215.388 62.3574 216.867 60.0137 218.366 57.4395C217.194 57.1129 216.176 56.7095 215.58 56.0371C214.639 58.8226 213.505 60.494 211.776 62.6071C212.545 62.415 213.16 63.3179 213.947 63.6829Z" fill="#F5C7BE"/>
<path d="M263.126 59.5911C263.837 57.939 265.182 56.0179 266.68 54.02C266.968 55.019 267.314 55.8642 267.775 56.2484C266.104 57.7853 265.143 59.2453 263.952 61.3585C264.01 60.59 263.414 60.2442 263.126 59.5911Z" fill="#EE6F57"/>
<path d="M245.357 29.4497C244.761 31.8318 243.397 34.7518 241.841 37.8063C241.245 36.5576 240.612 35.5394 239.92 35.1552C241.803 32.6578 242.763 30.487 243.877 27.3557C243.954 28.3931 244.838 28.6812 245.357 29.4497Z" fill="#D3DFFF"/>
<path d="M227.145 80.9341C227.586 82.663 228.585 84.8146 229.719 87.043C230.161 86.1209 230.622 85.3909 231.121 85.1028C229.757 83.2778 229.046 81.6833 228.24 79.3972C228.163 80.1464 227.529 80.3577 227.145 80.9341Z" fill="#D3DFFF"/>
<path d="M281.28 25.5117C279.321 26.818 277.092 29.1425 274.787 31.7167C276.055 32.1009 277.112 32.562 277.649 33.2536C279.359 30.4488 281.05 28.7775 283.509 26.6836C282.567 26.8565 282.087 25.9151 281.28 25.5117Z" fill="#FBD682"/>
</svg>
