<svg width="659" height="318" viewBox="0 0 659 318" fill="none" xmlns="http://www.w3.org/2000/svg">
<g clip-path="url(#clip0_168_72)">
<path d="M472.651 317.383L-0.000266306 317.383L-0.000266306 306.393L472.651 306.393C494.284 306.369 515.023 297.729 530.32 282.369C545.616 267.009 554.22 246.182 554.244 224.46V93.5173C554.22 71.7947 545.616 50.9686 530.32 35.6084C515.023 20.2482 494.284 11.6082 472.651 11.584L114.312 11.584C100.475 11.5993 86.7825 14.4009 74.0432 19.823C61.3038 25.245 49.7767 33.1775 40.1436 43.1512C30.5105 53.1248 22.9671 64.9371 17.9595 77.8894C12.9519 90.8416 10.5818 104.671 10.9895 118.559C12.6277 174.057 60.0226 219.342 116.632 219.342H250.74V230.309H116.632C54.175 230.195 1.86549 180.272 -0.000266306 118.81C-0.441429 103.455 2.18865 88.1671 7.73437 73.8506C13.2801 59.5341 21.6288 46.4798 32.2867 35.4601C42.9446 24.4403 55.6951 15.6789 69.784 9.69411C83.8729 3.70932 99.014 0.622714 114.312 0.616882L472.651 0.616882C497.178 0.647114 520.692 10.4445 538.036 27.8602C555.379 45.2758 565.136 68.8879 565.166 93.5173V224.46C565.142 249.093 555.388 272.711 538.044 290.132C520.7 307.552 497.182 317.353 472.651 317.383Z" fill="#0FBACE"/>
<path d="M466.85 266.158L0 266.158L0 255.168L466.85 255.168C476.505 255.168 485.765 251.316 492.592 244.46C499.419 237.605 503.255 228.306 503.255 218.611V99.3664C503.255 89.6709 499.419 80.3725 492.592 73.5167C485.765 66.661 476.505 62.8094 466.85 62.8094L116.041 62.8094C87.1446 62.8094 63.4358 84.7208 62.0706 112.733C61.7094 119.855 62.7956 126.977 65.2633 133.665C67.731 140.352 71.5285 146.465 76.4245 151.632C81.3204 156.798 87.2125 160.91 93.7417 163.717C100.271 166.523 107.301 167.966 114.403 167.956L250.922 167.956V178.946L114.403 178.946C105.82 178.947 97.3267 177.198 89.4378 173.803C81.5488 170.409 74.4287 165.44 68.5095 159.199C62.5903 152.958 57.9953 145.575 55.0032 137.497C52.0112 129.419 50.6845 120.815 51.1036 112.207C52.7646 78.369 81.2743 51.8423 116.041 51.8423L466.895 51.8423C479.443 51.8544 491.474 56.8653 500.347 65.7752C509.22 74.6851 514.21 86.766 514.222 99.3664V218.634C514.21 231.242 509.213 243.33 500.331 252.241C491.448 261.152 479.405 266.158 466.85 266.158Z" fill="#0FBACE"/>
<path d="M471.173 291.77L0 291.77L0 280.78L471.173 280.78C486.434 280.762 501.066 274.666 511.858 263.829C522.649 252.993 528.72 238.3 528.738 222.975V95.0253C528.72 79.6977 522.65 65.0027 511.859 54.1624C501.068 43.322 486.436 37.2209 471.173 37.1967L114.312 37.1967C93.8893 37.5472 74.4212 45.94 60.1021 60.5668C45.7829 75.1936 37.759 94.8835 37.759 115.394C37.759 135.905 45.7829 155.595 60.1021 170.222C74.4212 184.849 93.8893 193.241 114.312 193.592H250.831V204.582H114.312C90.7592 204.582 68.1711 195.187 51.5169 178.463C34.8626 161.739 25.5063 139.057 25.5063 115.406C25.5063 91.7548 34.8626 69.0725 51.5169 52.3487C68.1711 35.6249 90.7592 26.2296 114.312 26.2296L471.173 26.2296C489.333 26.2538 506.742 33.5104 519.582 46.4075C532.421 59.3046 539.642 76.789 539.66 95.0253V222.975C539.642 241.211 532.421 258.695 519.582 271.592C506.742 284.49 489.333 291.746 471.173 291.77Z" fill="#0FBACE"/>
<path d="M177.224 89.1075L177.224 141.658L151.877 141.658L129.352 110.722L129.352 141.658L109.966 141.658L109.966 89.1075L135.313 89.1075L157.838 120.021L157.838 89.1075L177.224 89.1075Z" fill="#B69ECE"/>
<path d="M201.092 141.658L181.706 141.658L181.706 89.1075L201.092 89.1075L201.092 141.658Z" fill="#B69ECE"/>
<path d="M272.833 89.1075L272.833 141.658L247.486 141.658L224.96 110.722L224.96 141.658L205.575 141.658L205.575 89.1075L230.922 89.1075L253.447 120.021L253.447 89.1075L272.833 89.1075Z" fill="#B69ECE"/>
<path d="M296.724 104.164L296.724 109.031L332.514 109.031L332.514 121.757L296.724 121.757L296.724 126.647L332.514 126.647L332.514 141.658L277.338 141.658L277.338 89.1075L332.514 89.1075L332.514 104.073L296.724 104.164Z" fill="#B69ECE"/>
<path d="M399.636 105.672L377.27 105.672L377.27 141.658L357.884 141.658L357.884 105.672L335.518 105.672L335.518 89.1075L399.636 89.1075L399.636 105.672Z" fill="#B69ECE"/>
<path d="M402.731 89.1075L425.097 89.1075L438.977 108.574L452.788 89.1075L475.177 89.1075L448.624 124.294L448.624 141.658L429.238 141.658L429.238 124.385L402.731 89.1075Z" fill="#B69ECE"/>
<path d="M278.817 199.007C278.817 180.728 288.669 172.137 311.627 172.137C334.585 172.137 344.437 180.888 344.437 199.007C344.437 217.125 334.471 226.059 311.718 226.059C288.965 226.059 278.817 217.285 278.817 199.007ZM325.051 199.007C325.051 193.546 323.117 188.611 311.627 188.611C300.137 188.611 298.203 193.478 298.203 199.007C298.203 204.536 300.228 209.563 311.627 209.563C323.026 209.563 325.051 204.559 325.051 199.007Z" fill="#B69ECE"/>
<path d="M415.45 172.869L415.45 225.419L390.103 225.419L367.577 194.483L367.577 225.305L348.123 225.305L348.123 172.755L373.47 172.755L395.996 203.691L395.996 172.869L415.45 172.869Z" fill="#B69ECE"/>
<path d="M439.341 187.857L439.341 192.724L475.131 192.724L475.131 205.45L439.341 205.45L439.341 210.317L475.131 210.317L475.131 225.305L419.932 225.305L419.932 172.755L475.131 172.755L475.131 187.743L439.341 187.857Z" fill="#B69ECE"/>
<path d="M659 -3.05176e-05L648.056 -3.05176e-05V318H659V-3.05176e-05Z" fill="#0FBACE"/>
<path d="M633.084 -3.05176e-05L622.14 -3.05176e-05V318H633.084V-3.05176e-05Z" fill="#0FBACE"/>
<path d="M607.168 -3.05176e-05L596.224 -3.05176e-05V318H607.168V-3.05176e-05Z" fill="#0FBACE"/>
</g>
<defs>
<clipPath id="clip0_168_72">
<rect width="659" height="318" fill="white"/>
</clipPath>
</defs>
</svg>
