<svg width="24" height="24" viewBox="0 0 24 24" fill="none" xmlns="http://www.w3.org/2000/svg">
<g id="cib:crunchbase" clip-path="url(#clip0_171_247)">
<path id="Vector" d="M21.6015 0H2.3985C1.76323 0.00276294 1.15477 0.256348 0.705557 0.705557C0.256348 1.15477 0.00276294 1.76323 0 2.3985V21.6015C0.00276294 22.2368 0.256348 22.8452 0.705557 23.2944C1.15477 23.7437 1.76323 23.9972 2.3985 24H21.6015C22.2368 23.9972 22.8452 23.7437 23.2944 23.2944C23.7437 22.8452 23.9972 22.2368 24 21.6015V2.3985C23.9972 1.76323 23.7437 1.15477 23.2944 0.705557C22.8452 0.256348 22.2368 0.00276294 21.6015 0V0ZM7.047 14.4645C7.29888 14.5795 7.57094 14.6437 7.84765 14.6535C8.12436 14.6633 8.40029 14.6185 8.65967 14.5216C8.91905 14.4247 9.15679 14.2777 9.35932 14.0889C9.56185 13.9001 9.72519 13.6732 9.84 13.4213H11.5005C10.4655 17.6595 4.227 16.9095 4.227 12.546C4.227 8.17875 10.4655 7.42875 11.5005 11.6707H9.84C9.23025 10.3313 7.46925 10.0103 6.42975 11.0535C5.3865 12.0922 5.70675 13.854 7.047 14.4637V14.4645ZM18.3908 15.3082C18.0765 15.5802 17.7167 15.7944 17.328 15.9412C16.7744 16.1553 16.1773 16.2324 15.5875 16.1657C14.9978 16.0991 14.4329 15.8909 13.941 15.5588V15.9412H12.429V5.37075H13.929V9.48C14.4646 9.11783 15.0851 8.901 15.7297 8.85075H15.999C19.413 8.84325 20.9835 13.0927 18.39 15.3075L18.3908 15.3082ZM18.168 12.543C18.1733 12.8226 18.1228 13.1004 18.0194 13.3602C17.9161 13.62 17.762 13.8566 17.5662 14.0562C17.3703 14.2558 17.1367 14.4143 16.8789 14.5225C16.621 14.6307 16.3442 14.6865 16.0646 14.6865C15.785 14.6865 15.5082 14.6307 15.2504 14.5225C14.9926 14.4143 14.7589 14.2558 14.5631 14.0562C14.3672 13.8566 14.2131 13.62 14.1098 13.3602C14.0065 13.1004 13.956 12.8226 13.9613 12.543C14.0197 9.801 18.1058 9.801 18.168 12.543Z" fill="#B69ECE"/>
</g>
<defs>
<clipPath id="clip0_171_247">
<rect width="24" height="24" fill="white"/>
</clipPath>
</defs>
</svg>
