<svg width="24" height="24" viewBox="0 0 24 24" fill="none" xmlns="http://www.w3.org/2000/svg">
<g id="foundation:social-reddit">
<path id="Vector" d="M22.7433 11.7586C22.7433 10.3935 21.6321 9.28329 20.2677 9.28329C19.6766 9.28329 19.1237 9.49953 18.6775 9.87777C18.6631 9.88665 18.6482 9.89505 18.6341 9.90417C17.0244 8.87433 14.8898 8.21673 12.5287 8.12745L13.938 4.11993L17.4554 4.96089C17.4583 6.07281 18.3629 6.97689 19.4762 6.97689C20.5903 6.97689 21.4975 6.07041 21.4975 4.95585C21.4975 3.84081 20.5903 2.93433 19.4762 2.93433C18.6293 2.93433 17.9057 3.45801 17.6057 4.19673L13.4383 3.20073L11.7077 8.11833C9.24549 8.16465 7.01421 8.83089 5.34453 9.89529C4.89501 9.50529 4.33413 9.28305 3.73221 9.28305C2.36733 9.28305 1.25781 10.3935 1.25781 11.7584C1.25781 12.6027 1.69341 13.3827 2.39925 13.8368C2.35418 14.0841 2.33066 14.3349 2.32893 14.5863C2.32893 18.159 6.65925 21.0656 11.9815 21.0656C17.3047 21.0656 21.6353 18.159 21.6353 14.5863C21.634 14.3421 21.6121 14.0985 21.57 13.8579C22.2948 13.4072 22.7433 12.6159 22.7433 11.7586ZM15.264 14.9634C15.0643 14.9634 14.8665 14.9241 14.682 14.8476C14.4975 14.7712 14.3298 14.6591 14.1886 14.5179C14.0475 14.3766 13.9355 14.2089 13.8592 14.0243C13.7829 13.8398 13.7437 13.642 13.7438 13.4422C13.7439 13.1414 13.8331 12.8474 14.0003 12.5973C14.1675 12.3472 14.4051 12.1523 14.683 12.0372C14.961 11.9222 15.2668 11.8921 15.5618 11.9509C15.8568 12.0097 16.1278 12.1546 16.3405 12.3674C16.5531 12.5802 16.6979 12.8512 16.7565 13.1463C16.815 13.4414 16.7848 13.7472 16.6696 14.0251C16.5543 14.3029 16.3593 14.5404 16.1091 14.7074C15.8589 14.8744 15.5648 14.9635 15.264 14.9634ZM15.5666 17.5568C15.521 17.6034 14.4307 18.7138 11.9645 18.7138C9.48453 18.7138 8.49333 17.5885 8.45181 17.54C8.38505 17.4616 8.35206 17.3599 8.36007 17.2572C8.36807 17.1545 8.41642 17.0592 8.49453 16.9921C8.57271 16.9258 8.67379 16.8928 8.77604 16.9002C8.87828 16.9077 8.97352 16.955 9.04125 17.0319C9.06333 17.0569 9.89085 17.937 11.9645 17.937C14.0726 17.937 14.9978 17.0254 15.0077 17.0166C15.0799 16.9454 15.1772 16.9053 15.2786 16.9048C15.3801 16.9043 15.4777 16.9435 15.5507 17.014C15.6236 17.0845 15.6661 17.1807 15.6691 17.2822C15.6721 17.3836 15.6353 17.4821 15.5666 17.5568ZM7.39461 13.4422C7.39112 13.2403 7.4279 13.0396 7.50279 12.852C7.57769 12.6644 7.68921 12.4936 7.83084 12.3496C7.97247 12.2056 8.14137 12.0912 8.32768 12.0132C8.51399 11.9351 8.71399 11.895 8.91598 11.8951C9.11798 11.8952 9.31794 11.9355 9.50418 12.0137C9.69042 12.0919 9.85921 12.2065 10.0007 12.3506C10.1422 12.4948 10.2535 12.6657 10.3283 12.8534C10.403 13.041 10.4396 13.2417 10.4359 13.4437C10.4286 13.8423 10.2651 14.2221 9.98058 14.5014C9.69605 14.7807 9.31323 14.937 8.91454 14.9368C8.51586 14.9366 8.13319 14.7799 7.84892 14.5004C7.56465 14.2209 7.4015 13.8409 7.39461 13.4422Z" fill="#B69ECE"/>
</g>
</svg>
