<svg width="48" height="48" viewBox="0 0 48 48" fill="none" xmlns="http://www.w3.org/2000/svg">
<circle cx="24" cy="24" r="23.5" stroke="#BABABA" stroke-dasharray="4 4"/>
<path d="M30 24.998H25V29.998C25 30.2632 24.8946 30.5176 24.7071 30.7051C24.5196 30.8926 24.2652 30.998 24 30.998C23.7348 30.998 23.4804 30.8926 23.2929 30.7051C23.1054 30.5176 23 30.2632 23 29.998V24.998H18C17.7348 24.998 17.4804 24.8926 17.2929 24.7051C17.1054 24.5176 17 24.2632 17 23.998C17 23.7328 17.1054 23.4784 17.2929 23.2909C17.4804 23.1034 17.7348 22.998 18 22.998H23V17.998C23 17.7328 23.1054 17.4784 23.2929 17.2909C23.4804 17.1034 23.7348 16.998 24 16.998C24.2652 16.998 24.5196 17.1034 24.7071 17.2909C24.8946 17.4784 25 17.7328 25 17.998V22.998H30C30.2652 22.998 30.5196 23.1034 30.7071 23.2909C30.8946 23.4784 31 23.7328 31 23.998C31 24.2632 30.8946 24.5176 30.7071 24.7051C30.5196 24.8926 30.2652 24.998 30 24.998Z" fill="#BABABA"/>
</svg>
