<svg width="110" height="52" viewBox="0 0 110 52" fill="none" xmlns="http://www.w3.org/2000/svg">
<g id="Group 39">
<path id="Vector" d="M25.7937 2C22.6691 2 19.5751 2.62062 16.6883 3.82682C13.8015 5.03303 11.1785 6.80118 8.96903 9.02996C6.75958 11.2587 5.00694 13.9045 3.81119 16.8165C2.61545 19.7286 2 22.8495 2 26.0015C2.0009 32.3665 4.50813 38.4708 8.97023 42.9713C13.4323 47.4718 19.4838 50 25.7937 50C30.708 49.993 35.4996 48.4511 39.5102 45.5864C43.5208 42.7217 46.5537 38.6748 48.1923 34.0012H61.5577C63.1963 38.6748 66.2292 42.7217 70.2398 45.5864C74.2504 48.4511 79.042 49.993 83.9563 50C90.2667 50 96.3188 47.4713 100.781 42.97C105.243 38.4688 107.75 32.3638 107.75 25.9981C107.749 19.633 105.242 13.5292 100.78 9.02871C96.3177 4.52823 90.2662 2 83.9563 2C83.5158 2.00586 83.0755 2.02403 82.6361 2.05455V2H27.1173V2.07496C26.6769 2.03754 26.2355 2.01261 25.7937 2Z" stroke="#0FBACE" stroke-width="3" stroke-linecap="round" stroke-linejoin="round"/>
<path id="Vector_2" d="M24.4744 15.3494V36.6835M35.0494 26.0165H13.8994" stroke="#B69ECE" stroke-width="2" stroke-linecap="round" stroke-linejoin="round"/>
<path id="Vector_3" d="M84.084 19.6157C86.4296 19.6157 88.331 17.699 88.331 15.3345C88.331 12.9701 86.4296 11.0533 84.084 11.0533C81.7384 11.0533 79.8369 12.9701 79.8369 15.3345C79.8369 17.699 81.7384 19.6157 84.084 19.6157Z" fill="#B69ECE"/>
<path id="Vector_4" d="M94.6582 30.2827C97.0038 30.2827 98.9052 28.3659 98.9052 26.0015C98.9052 23.637 97.0038 21.7207 94.6582 21.7207C92.3126 21.7207 90.4111 23.637 90.4111 26.0015C90.4111 28.3659 92.3126 30.2827 94.6582 30.2827Z" fill="#B69ECE"/>
<path id="Vector_5" d="M84.084 40.9466C86.4296 40.9466 88.331 39.0299 88.331 36.6655C88.331 34.301 86.4296 32.3843 84.084 32.3843C81.7384 32.3843 79.8369 34.301 79.8369 36.6655C79.8369 39.0299 81.7384 40.9466 84.084 40.9466Z" fill="#B69ECE"/>
<path id="Vector_6" d="M73.5068 30.2827C75.8524 30.2827 77.7539 28.3659 77.7539 26.0015C77.7539 23.637 75.8524 21.7207 73.5068 21.7207C71.1612 21.7207 69.2598 23.637 69.2598 26.0015C69.2598 28.3659 71.1612 30.2827 73.5068 30.2827Z" fill="#B69ECE"/>
</g>
</svg>
