<svg width="20" height="20" viewBox="0 0 20 20" fill="none" xmlns="http://www.w3.org/2000/svg">
<g id="uil:money-withdraw">
<path id="Vector" d="M9.99967 9.99999C9.50522 9.99999 9.02187 10.1466 8.61075 10.4213C8.19963 10.696 7.87919 11.0865 7.68998 11.5433C7.50076 12.0001 7.45125 12.5028 7.54771 12.9877C7.64417 13.4727 7.88228 13.9181 8.23191 14.2678C8.58154 14.6174 9.027 14.8555 9.51195 14.952C9.9969 15.0484 10.4996 14.9989 10.9564 14.8097C11.4132 14.6205 11.8036 14.3 12.0783 13.8889C12.3531 13.4778 12.4997 12.9944 12.4997 12.5C12.4997 11.8369 12.2363 11.2011 11.7674 10.7322C11.2986 10.2634 10.6627 9.99999 9.99967 9.99999ZM9.99967 13.3333C9.83486 13.3333 9.67374 13.2844 9.5367 13.1929C9.39966 13.1013 9.29285 12.9712 9.22978 12.8189C9.1667 12.6666 9.1502 12.4991 9.18235 12.3374C9.21451 12.1758 9.29388 12.0273 9.41042 11.9107C9.52696 11.7942 9.67545 11.7148 9.8371 11.6827C9.99875 11.6505 10.1663 11.667 10.3186 11.7301C10.4708 11.7932 10.601 11.9 10.6926 12.037C10.7841 12.1741 10.833 12.3352 10.833 12.5C10.833 12.721 10.7452 12.933 10.5889 13.0892C10.4327 13.2455 10.2207 13.3333 9.99967 13.3333ZM9.40801 8.09166C9.48726 8.16752 9.58072 8.22699 9.68301 8.26666C9.78276 8.31074 9.89062 8.33352 9.99967 8.33352C10.1087 8.33352 10.2166 8.31074 10.3163 8.26666C10.4186 8.22699 10.5121 8.16752 10.5913 8.09166L12.4997 6.21666C12.661 6.05532 12.7517 5.83649 12.7517 5.60832C12.7517 5.38015 12.661 5.16133 12.4997 4.99999C12.3383 4.83865 12.1195 4.74801 11.8913 4.74801C11.6632 4.74801 11.4443 4.83865 11.283 4.99999L10.833 5.49166V2.49999C10.833 2.27898 10.7452 2.06701 10.5889 1.91073C10.4327 1.75445 10.2207 1.66666 9.99967 1.66666C9.77866 1.66666 9.5667 1.75445 9.41042 1.91073C9.25414 2.06701 9.16634 2.27898 9.16634 2.49999V5.49166L8.71634 4.99999C8.555 4.83865 8.33618 4.74801 8.10801 4.74801C7.87984 4.74801 7.66102 4.83865 7.49967 4.99999C7.33833 5.16133 7.24769 5.38015 7.24769 5.60832C7.24769 5.83649 7.33833 6.05532 7.49967 6.21666L9.40801 8.09166ZM15.833 12.5C15.833 12.3352 15.7841 12.1741 15.6926 12.037C15.601 11.9 15.4708 11.7932 15.3186 11.7301C15.1663 11.667 14.9987 11.6505 14.8371 11.6827C14.6754 11.7148 14.527 11.7942 14.4104 11.9107C14.2939 12.0273 14.2145 12.1758 14.1824 12.3374C14.1502 12.4991 14.1667 12.6666 14.2298 12.8189C14.2928 12.9712 14.3997 13.1013 14.5367 13.1929C14.6737 13.2844 14.8349 13.3333 14.9997 13.3333C15.2207 13.3333 15.4327 13.2455 15.5889 13.0892C15.7452 12.933 15.833 12.721 15.833 12.5ZM16.6663 6.66666H14.1663C13.9453 6.66666 13.7334 6.75445 13.5771 6.91073C13.4208 7.06701 13.333 7.27898 13.333 7.49999C13.333 7.721 13.4208 7.93296 13.5771 8.08925C13.7334 8.24553 13.9453 8.33332 14.1663 8.33332H16.6663C16.8874 8.33332 17.0993 8.42112 17.2556 8.5774C17.4119 8.73368 17.4997 8.94564 17.4997 9.16666V15.8333C17.4997 16.0543 17.4119 16.2663 17.2556 16.4226C17.0993 16.5789 16.8874 16.6667 16.6663 16.6667H3.33301C3.11199 16.6667 2.90003 16.5789 2.74375 16.4226C2.58747 16.2663 2.49967 16.0543 2.49967 15.8333V9.16666C2.49967 8.94564 2.58747 8.73368 2.74375 8.5774C2.90003 8.42112 3.11199 8.33332 3.33301 8.33332H5.83301C6.05402 8.33332 6.26598 8.24553 6.42226 8.08925C6.57854 7.93296 6.66634 7.721 6.66634 7.49999C6.66634 7.27898 6.57854 7.06701 6.42226 6.91073C6.26598 6.75445 6.05402 6.66666 5.83301 6.66666H3.33301C2.66997 6.66666 2.03408 6.93005 1.56524 7.39889C1.0964 7.86773 0.833008 8.50361 0.833008 9.16666V15.8333C0.833008 16.4964 1.0964 17.1322 1.56524 17.6011C2.03408 18.0699 2.66997 18.3333 3.33301 18.3333H16.6663C17.3294 18.3333 17.9653 18.0699 18.4341 17.6011C18.903 17.1322 19.1663 16.4964 19.1663 15.8333V9.16666C19.1663 8.50361 18.903 7.86773 18.4341 7.39889C17.9653 6.93005 17.3294 6.66666 16.6663 6.66666ZM4.16634 12.5C4.16634 12.6648 4.21522 12.8259 4.30678 12.963C4.39835 13.1 4.5285 13.2068 4.68077 13.2699C4.83304 13.333 5.0006 13.3495 5.16225 13.3173C5.3239 13.2852 5.47239 13.2058 5.58893 13.0892C5.70547 12.9727 5.78484 12.8242 5.817 12.6626C5.84915 12.5009 5.83265 12.3334 5.76957 12.1811C5.7065 12.0288 5.59969 11.8987 5.46265 11.8071C5.32561 11.7155 5.16449 11.6667 4.99967 11.6667C4.77866 11.6667 4.5667 11.7545 4.41042 11.9107C4.25414 12.067 4.16634 12.279 4.16634 12.5Z" fill="white"/>
</g>
</svg>
