<svg width="171" height="172" viewBox="0 0 171 172" fill="none" xmlns="http://www.w3.org/2000/svg">
<path d="M160.755 94.8252L160.462 98.4336C159.516 98.2936 158.751 98.1104 158.17 97.8842C157.598 97.6589 157.104 97.324 156.688 96.8796C156.271 96.4352 155.998 95.8497 155.867 95.1232C155.737 94.3967 155.716 93.4791 155.806 92.3705C155.891 91.3245 156.051 90.4584 156.286 89.7721C156.52 89.0858 156.872 88.5194 157.339 88.0731C157.807 87.6268 158.411 87.3284 159.149 87.1778C159.888 87.0272 160.806 86.9964 161.905 87.0856C163.034 87.1773 163.956 87.3627 164.67 87.6417C165.395 87.9217 165.947 88.3244 166.325 88.8499C166.713 89.3868 166.958 90.0015 167.06 90.6941C167.172 91.3875 167.186 92.252 167.102 93.2874C166.991 94.6576 166.737 95.716 166.339 96.4628C165.951 97.221 165.408 97.7454 164.711 98.0362C164.023 98.3384 163.085 98.4885 161.895 98.4867L162.187 94.894C162.954 94.9037 163.458 94.8024 163.696 94.5901C163.933 94.3883 164.086 93.8743 164.153 93.048C164.203 92.4309 164.176 91.9813 164.073 91.6992C163.98 91.4179 163.75 91.1992 163.384 91.0431C163.027 90.8984 162.435 90.7924 161.609 90.7254C160.469 90.6328 159.726 90.7041 159.381 90.9393C159.035 91.1745 158.827 91.7313 158.756 92.6099C158.687 93.4571 158.774 94.0063 159.017 94.2577C159.259 94.5194 159.838 94.7086 160.755 94.8252Z" fill="#FBC711"/>
<path d="M152.901 108.727L153.923 104.586L159.295 103.706L159.096 104.516C158.857 105.484 159.247 106.094 160.266 106.345C160.765 106.468 161.155 106.44 161.437 106.261C161.729 106.085 161.938 105.742 162.064 105.232L162.362 104.025L154.537 102.095L155.412 98.5494L165.957 101.151L164.558 106.82C164.204 108.257 163.646 109.227 162.884 109.731C162.129 110.247 161.09 110.342 159.766 110.015C158.166 109.621 157.286 108.717 157.127 107.305L152.901 108.727Z" fill="#FBC711"/>
<path d="M162.861 113.065L161.267 116.834L156.281 117.186L159.525 120.951L157.949 124.677L152.714 117.66L149.669 116.372L151.092 113.009L153.977 114.229L162.861 113.065Z" fill="#FBC711"/>
<path d="M148.22 132.001C146.904 131.177 146.097 130.301 145.799 129.372C145.505 128.457 145.698 127.457 146.377 126.372L147.906 123.931L146.171 122.845L148.109 119.75L157.315 125.513L153.865 131.023C153.147 132.17 152.349 132.822 151.471 132.978C150.594 133.134 149.51 132.809 148.22 132.001ZM152.075 128.602L153.002 127.121L150.28 125.417L149.337 126.925C149.108 127.29 149.048 127.623 149.156 127.926C149.263 128.229 149.566 128.536 150.064 128.848C150.589 129.176 150.988 129.321 151.26 129.281C151.542 129.246 151.813 129.02 152.075 128.602Z" fill="#FBC711"/>
<path d="M143.621 143.975L141.287 141.958L143.562 139.326L137.678 134.242L140.066 131.479L145.949 136.563L148.224 133.931L150.558 135.949L143.621 143.975Z" fill="#FBC711"/>
<path d="M127.738 144.621C127.91 143.422 128.832 142.121 130.504 140.718C132.176 139.315 133.617 138.633 134.828 138.672C136.039 138.71 137.335 139.554 138.718 141.202C139.447 142.07 139.959 142.859 140.254 143.571C140.548 144.296 140.633 144.985 140.509 145.637C140.377 146.296 140.095 146.916 139.665 147.496C139.226 148.084 138.601 148.718 137.789 149.399C137.138 149.946 136.545 150.374 136.012 150.685C135.485 151.004 134.948 151.222 134.402 151.338C133.854 151.468 133.325 151.467 132.816 151.333C132.306 151.199 131.782 150.933 131.243 150.536C130.704 150.139 130.141 149.591 129.554 148.891C128.172 147.243 127.566 145.82 127.738 144.621ZM134.181 142.112C133.769 142.046 133.178 142.337 132.406 142.985C131.634 143.632 131.245 144.164 131.239 144.581C131.232 144.997 131.603 145.652 132.352 146.544C132.628 146.874 132.859 147.132 133.044 147.32C133.235 147.515 133.426 147.677 133.616 147.805C133.806 147.934 133.97 148.008 134.11 148.027C134.257 148.055 134.43 148.033 134.63 147.961C134.822 147.896 135.009 147.801 135.191 147.675C135.374 147.549 135.605 147.369 135.887 147.133C136.168 146.896 136.386 146.7 136.542 146.542C136.697 146.384 136.827 146.213 136.933 146.029C137.03 145.851 137.078 145.687 137.076 145.538C137.081 145.397 137.037 145.222 136.944 145.013C136.85 144.803 136.724 144.588 136.565 144.365C136.412 144.151 136.197 143.879 135.921 143.549C135.172 142.657 134.592 142.178 134.181 142.112Z" fill="#FBC711"/>
<path d="M119.347 156.05C118.966 156.226 118.588 156.309 118.213 156.298C117.832 156.3 117.488 156.281 117.179 156.238C116.875 156.206 116.618 156.238 116.409 156.335C116.19 156.436 116.19 156.725 116.411 157.201L114.468 158.101C113.971 157.001 113.795 156.135 113.941 155.501C114.077 154.871 114.473 154.404 115.13 154.1C115.426 153.963 115.721 153.89 116.017 153.88C116.313 153.87 116.559 153.889 116.755 153.937C116.946 153.999 117.151 154.043 117.371 154.068C117.581 154.098 117.767 154.075 117.929 154C118.186 153.881 118.209 153.593 117.997 153.136L120.026 152.197C120.954 154.126 120.727 155.41 119.347 156.05Z" fill="#FBC711"/>
<path d="M94.7036 167.836L94.1371 164.803L97.5566 164.165L96.129 156.521L99.7186 155.851L101.146 163.494L104.566 162.855L105.132 165.888L94.7036 167.836Z" fill="#FBC711"/>
<path d="M81.8614 158.392C82.7449 157.563 84.2777 157.123 86.4597 157.073C88.6418 157.022 90.1933 157.39 91.1142 158.177C92.0351 158.964 92.5205 160.433 92.5703 162.584C92.5966 163.717 92.5028 164.653 92.289 165.393C92.065 166.143 91.7008 166.734 91.1965 167.166C90.6816 167.597 90.0747 167.905 89.3758 168.089C88.6663 168.274 87.7817 168.378 86.7222 168.403C85.8724 168.423 85.1421 168.387 84.5312 168.296C83.9206 168.216 83.3657 168.05 82.8665 167.799C82.3571 167.559 81.9454 167.228 81.6312 166.805C81.317 166.382 81.0737 165.847 80.9012 165.2C80.7288 164.553 80.632 163.773 80.6109 162.861C80.5611 160.71 80.9779 159.22 81.8614 158.392ZM88.459 160.459C88.179 160.15 87.5354 160.008 86.5283 160.031C85.5212 160.055 84.8849 160.227 84.6194 160.548C84.3539 160.869 84.2347 161.612 84.2617 162.776C84.2716 163.206 84.2901 163.552 84.3172 163.814C84.3445 164.086 84.3922 164.332 84.4602 164.551C84.5283 164.769 84.6107 164.93 84.7075 165.033C84.8046 165.146 84.9537 165.237 85.1547 165.306C85.3453 165.375 85.5509 165.417 85.7717 165.433C85.9925 165.449 86.2865 165.453 86.6537 165.444C87.0208 165.436 87.3143 165.419 87.5342 165.393C87.754 165.366 87.9627 165.314 88.1603 165.236C88.3474 165.159 88.4869 165.061 88.5786 164.943C88.6706 164.836 88.7455 164.672 88.8034 164.45C88.8612 164.228 88.8975 163.981 88.9121 163.707C88.927 163.445 88.9295 163.098 88.9195 162.668C88.8926 161.504 88.7391 160.767 88.459 160.459Z" fill="#FBC711"/>
<path d="M68.73 155.717L72.8923 156.298L74.3296 160.917L75.2805 161.05L75.8854 156.716L79.5021 157.22L78.0008 167.977L74.3841 167.472L75.1239 162.172L71.4689 167.065L67.6184 166.528L71.3368 161.977L68.73 155.717Z" fill="#FBC711"/>
<path d="M60.235 155.954L61.0087 153.261L69.7377 155.769L66.7384 166.208L58.0094 163.699L58.7831 161.007L64.0024 162.506L64.3414 161.326L59.1222 159.827L59.8959 157.134L65.1152 158.633L65.4542 157.453L60.235 155.954Z" fill="#FBC711"/>
<path d="M54.9388 162.604L52.3102 161.351L50.6673 154.482L48.3034 159.441L45.2202 157.971L49.8938 148.167L52.4655 149.393L54.2262 156.161L56.5291 151.33L59.6123 152.8L54.9388 162.604Z" fill="#FBC711"/>
<path d="M35.9058 146.291C35.5872 146.018 35.3552 145.708 35.2096 145.362C35.0493 145.017 34.9242 144.696 34.8344 144.398C34.7378 144.107 34.6019 143.887 34.4267 143.737C34.2435 143.579 33.9811 143.7 33.6395 144.098L32.0148 142.704C32.8085 141.795 33.5241 141.275 34.1615 141.145C34.791 141.007 35.3805 141.174 35.93 141.646C36.1769 141.858 36.3663 142.096 36.4982 142.361C36.6301 142.627 36.7148 142.858 36.7523 143.056C36.775 143.256 36.8204 143.461 36.8886 143.671C36.9489 143.875 37.0467 144.035 37.1821 144.151C37.3971 144.336 37.6686 144.237 37.9966 143.854L39.693 145.31C38.323 146.955 37.0606 147.282 35.9058 146.291Z" fill="#FBC711"/>
<path d="M20.6405 137.009L18.9971 134.605L21.0271 127.84L16.4921 130.941L14.5645 128.121L23.5305 121.992L25.1383 124.344L23.2608 131.08L27.6789 128.06L29.6065 130.88L20.6405 137.009Z" fill="#FBC711"/>
<path d="M12.7225 115.259L15.256 114.063L17.5074 118.831L21.1512 117.111L22.7103 120.413L12.8892 125.05L9.07868 116.98L11.6122 115.784L13.8636 120.552L14.9738 120.028L12.7225 115.259Z" fill="#FBC711"/>
<path d="M5.23113 105.049L8.17961 104.141L9.20333 107.466L16.6347 105.178L17.7094 108.668L10.278 110.956L11.3017 114.281L8.35325 115.189L5.23113 105.049Z" fill="#FBC711"/>
<path d="M7.68052 91.5826C7.66109 91.1634 7.72746 90.7821 7.87963 90.4389C8.02083 90.0857 8.16922 89.7742 8.3248 89.5044C8.46989 89.235 8.53709 88.985 8.5264 88.7544C8.51523 88.5133 8.24759 88.4049 7.72347 88.4292L7.62438 86.2908C8.83033 86.2454 9.69935 86.41 10.2314 86.7845C10.763 87.1486 11.0456 87.6922 11.0791 88.4155C11.0942 88.7405 11.0504 89.0419 10.9477 89.3198C10.845 89.5977 10.7344 89.8181 10.6159 89.9812C10.4865 90.1343 10.3684 90.3078 10.2619 90.5018C10.1548 90.6854 10.1054 90.8662 10.1137 91.0444C10.1268 91.3275 10.385 91.4573 10.8881 91.434L10.9916 93.6667C8.85464 93.7973 7.75095 93.1026 7.68052 91.5826Z" fill="#FBC711"/>
<path d="M11.9948 70.0948L9.85914 69.6195L11.1313 63.9039L12.3758 64.1809C13.2669 64.3793 13.9862 64.6254 14.5336 64.9192C15.0809 65.213 15.5179 65.6167 15.8443 66.1301C16.1629 66.631 16.3345 67.2605 16.3593 68.0185C16.3864 68.7663 16.2791 69.6831 16.0374 70.7688C15.8094 71.7931 15.532 72.629 15.2051 73.2765C14.8782 73.9241 14.4524 74.4367 13.9275 74.8144C13.4027 75.1921 12.7641 75.4047 12.0117 75.4522C11.2594 75.4998 10.3455 75.4039 9.26996 75.1645C8.16372 74.9183 7.27605 74.6078 6.60692 74.2331C5.92755 73.8561 5.43658 73.3814 5.13402 72.8087C4.8235 72.2236 4.66551 71.5811 4.66005 70.8811C4.64436 70.1788 4.74936 69.3206 4.97507 68.3066C5.39456 66.4219 6.02839 65.1439 6.87657 64.4727C7.7145 63.7992 8.88464 63.5651 10.387 63.7705L9.60726 67.2736C9.07576 67.1983 8.69786 67.2539 8.47357 67.4405C8.24929 67.6271 8.04595 68.1301 7.86356 68.9495C7.72905 69.5539 7.69362 70.0029 7.75725 70.2965C7.81065 70.5879 8.00804 70.8361 8.34943 71.0411C8.68285 71.2336 9.25416 71.4199 10.0633 71.6C11.1798 71.8485 11.9265 71.8749 12.3033 71.6793C12.6801 71.4836 12.9699 70.93 13.1728 70.0184C13.3529 69.2092 13.3964 68.676 13.3031 68.4187C13.2019 68.1489 12.9465 67.9684 12.5367 67.8772L12.4907 67.867L11.9948 70.0948Z" fill="#FBC711"/>
<path d="M17.1753 64.751L8.76632 56.5858L10.0201 53.4934L21.7352 53.5044L20.2153 57.2533L18.8449 57.1563L17.6147 60.1903L18.6657 61.0751L17.1753 64.751ZM16.5365 56.9847L13.5679 56.7662L15.8446 58.6914L16.5365 56.9847Z" fill="#FBC711"/>
<path d="M23.3331 46.9358L19.0635 47.6846L23.6292 50.5661L21.6802 53.6542L12.4956 47.8576L14.033 45.4217L19.7826 44.6577L17.9814 39.1655L19.5019 36.7562L28.6865 42.5528L26.7375 45.641L22.1719 42.7595L23.3331 46.9358Z" fill="#FBC711"/>
<path d="M33.3385 33.3997L35.4178 35.2775L29.3306 42.0179L21.2703 34.7386L27.3575 27.9982L29.4368 29.8761L25.7972 33.9063L26.7083 34.7291L30.348 30.699L32.4273 32.5768L28.7877 36.607L29.6988 37.4299L33.3385 33.3997Z" fill="#FBC711"/>
<path d="M37.4724 26.4548L39.3044 28.5746L34.6837 32.5681L32.8516 30.4483L37.4724 26.4548Z" fill="#FBC711"/>
<path d="M45.5891 18.9458L47.1533 21.2703L42.7786 24.2142L45.0282 27.5573L41.9986 29.596L35.9351 20.5854L43.3395 15.6028L44.9037 17.9273L40.5289 20.8711L41.2144 21.8897L45.5891 18.9458Z" fill="#FBC711"/>
<path d="M48.2364 13.0138L53.4472 22.543L50.2432 24.295L45.0324 14.7659L48.2364 13.0138Z" fill="#FBC711"/>
<path d="M60.2095 12.6168C60.6102 12.4918 60.9958 12.4594 61.3664 12.5196C61.7438 12.5667 62.0828 12.6313 62.3832 12.7135C62.6805 12.7856 62.9394 12.7872 63.1598 12.7185C63.3901 12.6466 63.4272 12.3602 63.2709 11.8593L65.3144 11.2216C65.6639 12.3767 65.7249 13.2591 65.4974 13.8687C65.2799 14.4752 64.8256 14.8863 64.1344 15.102C63.8239 15.1989 63.5212 15.2329 63.2264 15.204C62.9316 15.1751 62.6903 15.124 62.5025 15.0507C62.3216 14.9642 62.1238 14.894 61.9091 14.8401C61.7044 14.783 61.517 14.7811 61.3467 14.8342C61.0762 14.9186 61.016 15.2013 61.1661 15.6821L59.0324 16.3479C58.3646 14.3138 58.757 13.0701 60.2095 12.6168Z" fill="#FBC711"/>
<path d="M85.8275 12.1986L85.968 14.9968L76.8972 15.4522L76.3526 4.60507L85.4234 4.14966L85.5639 6.94791L80.1403 7.22021L80.2019 8.44641L85.6254 8.17411L85.7659 10.9724L80.3423 11.2447L80.4039 12.4709L85.8275 12.1986Z" fill="#FBC711"/>
<path d="M94.8952 15.7364L93.5329 12.4513L91.5437 15.3993L87.1428 14.9567L91.2728 9.75605L88.543 4.18186L92.8499 4.61506L94.0447 7.67771L95.9665 4.92854L100.132 5.34756L96.3424 10.3134L99.3743 16.1869L94.8952 15.7364Z" fill="#FBC711"/>
<path d="M106.764 13.2975L110.265 14.2178C109.962 15.1254 109.648 15.8457 109.323 16.3788C109.001 16.9018 108.585 17.3295 108.074 17.6618C107.564 17.9942 106.939 18.161 106.201 18.1623C105.463 18.1635 104.556 18.0228 103.48 17.74C102.466 17.4732 101.641 17.1642 101.006 16.8129C100.372 16.4617 99.8756 16.0166 99.5181 15.4778C99.1606 14.939 98.9724 14.2928 98.9535 13.5392C98.9346 12.7855 99.0653 11.8759 99.3454 10.8103C99.6335 9.71422 99.9775 8.83899 100.377 8.1846C100.78 7.52006 101.273 7.0475 101.857 6.76694C102.453 6.47889 103.101 6.34545 103.801 6.36662C104.503 6.37764 105.357 6.51521 106.362 6.77932C107.691 7.12879 108.689 7.56461 109.354 8.08679C110.033 8.60148 110.454 9.22761 110.618 9.96516C110.795 10.6952 110.779 11.6457 110.569 12.8165L107.082 11.9001C107.226 11.1459 107.215 10.6329 107.048 10.3611C106.891 10.092 106.411 9.85202 105.609 9.64127C105.011 9.48387 104.563 9.43139 104.267 9.48381C103.974 9.52609 103.719 9.7139 103.501 10.0472C103.296 10.3731 103.088 10.9369 102.877 11.7387C102.586 12.8449 102.526 13.5886 102.697 13.9699C102.869 14.3513 103.38 14.654 104.233 14.878C105.055 15.0941 105.611 15.1047 105.901 14.9096C106.201 14.7173 106.489 14.1799 106.764 13.2975Z" fill="#FBC711"/>
<path d="M117.568 10.8869L115.896 14.5702L119.192 16.067L120.864 12.3837L124.19 13.8935L119.699 23.7826L116.374 22.2727L117.916 18.8761L114.62 17.3792L113.078 20.7759L109.753 19.2661L114.243 9.37704L117.568 10.8869Z" fill="#FBC711"/>
<path d="M119.99 23.9504L129.686 17.3647L132.461 19.2175L130.083 30.6887L126.719 28.4426L127.091 27.1201L124.368 25.3022L123.289 26.1528L119.99 23.9504ZM127.725 24.894L128.539 22.0307L126.194 23.8715L127.725 24.894Z" fill="#FBC711"/>
<path d="M137.063 22.4976L139.188 24.4882L138.672 31.5319L142.427 27.5226L144.92 29.8576L137.496 37.7843L135.416 35.8367L135.789 28.8534L132.131 32.7593L129.638 30.4243L137.063 22.4976Z" fill="#FBC711"/>
<path d="M145.019 41.0421L146.769 39.7293L150.283 44.4137L149.263 45.1786C148.532 45.7264 147.878 46.1126 147.298 46.3371C146.719 46.5617 146.128 46.6309 145.526 46.5449C144.938 46.4609 144.349 46.1818 143.757 45.7075C143.171 45.2416 142.545 44.5637 141.877 43.6738C141.248 42.8343 140.793 42.0798 140.514 41.4104C140.235 40.7409 140.123 40.084 140.177 39.4397C140.232 38.7954 140.486 38.172 140.939 37.5697C141.393 36.9674 142.06 36.3357 142.941 35.6746C143.848 34.9946 144.661 34.5224 145.381 34.258C146.109 33.9873 146.789 33.9232 147.421 34.066C148.068 34.2108 148.658 34.5088 149.193 34.96C149.737 35.405 150.32 36.043 150.944 36.8741C152.102 38.4187 152.66 39.7315 152.619 40.8123C152.585 41.8868 152.001 42.9278 150.868 43.9352L148.715 41.0641C149.118 40.7094 149.321 40.3862 149.326 40.0945C149.33 39.8028 149.08 39.3211 148.576 38.6495C148.205 38.1543 147.887 37.8352 147.623 37.6925C147.367 37.5435 147.05 37.532 146.672 37.6579C146.309 37.7859 145.796 38.0986 145.132 38.596C144.217 39.2823 143.712 39.8321 143.615 40.2456C143.519 40.659 143.75 41.2393 144.311 41.9865C144.808 42.6497 145.185 43.0295 145.441 43.1261C145.712 43.2247 146.015 43.1481 146.351 42.8963L146.388 42.8679L145.019 41.0421Z" fill="#FBC711"/>
<path d="M152.761 55.9011L150.278 57.1997L146.069 49.1519L155.693 44.1182L159.902 52.1659L157.42 53.4645L154.903 48.6526L153.815 49.2216L156.332 54.0335L153.849 55.3321L151.332 50.5202L150.244 51.0892L152.761 55.9011Z" fill="#FBC711"/>
<path d="M161.438 71.0529C161.51 71.4663 161.492 71.8529 161.385 72.2126C161.289 72.5809 161.182 72.9086 161.061 73.196C160.952 73.4815 160.917 73.738 160.956 73.9654C160.998 74.2031 161.277 74.2768 161.794 74.1864L162.163 76.2951C160.972 76.4927 160.089 76.4394 159.514 76.1352C158.941 75.8413 158.592 75.3378 158.467 74.6246C158.411 74.3041 158.416 73.9996 158.483 73.711C158.55 73.4223 158.632 73.1896 158.728 73.0129C158.837 72.8447 158.933 72.6576 159.014 72.4516C159.097 72.256 159.123 72.0703 159.092 71.8946C159.043 71.6155 158.771 71.5194 158.275 71.6062L157.89 69.4045C159.993 69.0046 161.175 69.5541 161.438 71.0529Z" fill="#FBC711"/>
</svg>
