<svg width="875" height="269" viewBox="0 0 875 269" fill="none" xmlns="http://www.w3.org/2000/svg">
<mask id="path-1-outside-1_136_644" maskUnits="userSpaceOnUse" x="-9" y="-6" width="890" height="281" fill="black">
<rect fill="white" x="-9" y="-6" width="890" height="281"/>
<path d="M216.051 56.184V75H159.699V8.75999H181.971V56.184H216.051ZM276.685 57.912V75H221.293V8.75999H276.685V25.848H243.565V33.336H276.685V50.424H243.565V57.912H276.685ZM345.93 8.75999V27.576H324.714V75H302.442V27.576H281.226V8.75999H345.93ZM364.97 29.88H349.802V0.311995H364.97V29.88ZM403.636 76.44C394.612 76.44 387.636 75.512 382.708 73.656C377.78 71.8 374.42 69.144 372.628 65.688C370.9 62.168 370.1 57.368 370.228 51.288H393.364C393.428 53.08 393.524 54.424 393.652 55.32C393.844 56.216 394.26 57.08 394.9 57.912C395.604 58.744 396.596 59.32 397.876 59.64C399.22 59.896 401.044 60.024 403.348 60.024C407.636 60.024 410.484 59.704 411.892 59.064C413.3 58.424 414.004 57.272 414.004 55.608C414.004 54.52 413.588 53.752 412.756 53.304C411.988 52.856 410.676 52.44 408.82 52.056L388.852 47.448C382.388 45.912 377.812 43.8 375.124 41.112C372.436 38.36 371.092 33.912 371.092 27.768C371.092 21.24 373.524 16.216 378.388 12.696C383.316 9.112 391.476 7.32 402.868 7.32C414.836 7.32 423.092 9.112 427.636 12.696C432.244 16.216 434.676 22.424 434.932 31.32H413.236C413.108 28.12 412.468 26.04 411.316 25.08C410.228 24.056 407.54 23.544 403.252 23.544C399.284 23.544 396.596 23.864 395.188 24.504C393.78 25.08 393.076 25.944 393.076 27.096C393.076 28.12 393.492 28.888 394.324 29.4C395.22 29.848 396.916 30.328 399.412 30.84L416.116 34.392C423.412 35.928 428.628 38.072 431.764 40.824C434.964 43.576 436.564 47.96 436.564 53.976C436.564 57.752 436.116 60.952 435.22 63.576C434.324 66.136 432.692 68.44 430.324 70.488C428.02 72.536 424.66 74.04 420.244 75C415.828 75.96 410.292 76.44 403.636 76.44ZM522.836 8.75999V27.576H501.62V75H479.348V27.576H458.132V8.75999H522.836ZM514.266 75L541.146 8.75999H561.498L588.282 75H563.61L561.018 67.032H541.05L538.458 75H514.266ZM556.698 53.592L551.13 36.312L545.466 53.592H556.698ZM648.52 56.184V75H592.168V8.75999H614.44V56.184H648.52ZM720.098 75H694.466L681.89 48.312H676.034V75H653.762V8.75999H676.034V41.4L693.986 8.75999H717.698L699.074 39.384L720.098 75ZM0.234375 171L27.1144 104.76H47.4664L74.2504 171H49.5784L46.9864 163.032H27.0184L24.4264 171H0.234375ZM42.6664 149.592L37.0984 132.312L31.4344 149.592H42.6664ZM127.001 136.152V137.208C131.225 138.04 134.457 139.768 136.697 142.392C139.001 144.952 140.153 148.216 140.153 152.184C140.153 158.648 138.393 163.416 134.873 166.488C131.417 169.496 126.105 171 118.937 171H78.1369V104.76H117.593C125.017 104.76 130.329 106.136 133.529 108.888C136.729 111.64 138.329 116.28 138.329 122.808C138.329 129.912 134.553 134.36 127.001 136.152ZM112.217 144.312H100.409V153.912H112.409C114.521 153.912 116.057 153.528 117.017 152.76C117.977 151.992 118.457 150.712 118.457 148.92C118.457 147.192 117.977 146.008 117.017 145.368C116.121 144.664 114.521 144.312 112.217 144.312ZM111.065 121.848H100.409V130.872H111.257C113.113 130.872 114.457 130.552 115.289 129.912C116.185 129.208 116.633 128.024 116.633 126.36C116.633 124.632 116.217 123.448 115.385 122.808C114.617 122.168 113.177 121.848 111.065 121.848ZM208.725 165.048C203.221 169.976 193.813 172.44 180.501 172.44C167.189 172.44 157.781 169.976 152.277 165.048C146.773 160.12 144.021 151.096 144.021 137.976C144.021 131.064 144.725 125.368 146.133 120.888C147.605 116.344 149.909 112.792 153.045 110.232C156.245 107.672 159.989 105.88 164.277 104.856C168.629 103.832 174.037 103.32 180.501 103.32C185.685 103.32 190.133 103.64 193.845 104.28C197.557 104.856 200.917 105.944 203.925 107.544C206.997 109.08 209.461 111.16 211.317 113.784C213.173 116.408 214.581 119.704 215.541 123.672C216.501 127.64 216.981 132.408 216.981 137.976C216.981 151.096 214.229 160.12 208.725 165.048ZM168.789 151.512C170.453 153.432 174.357 154.392 180.501 154.392C186.645 154.392 190.549 153.432 192.213 151.512C193.877 149.592 194.709 145.08 194.709 137.976C194.709 135.352 194.645 133.24 194.517 131.64C194.389 129.976 194.133 128.472 193.749 127.128C193.365 125.784 192.885 124.792 192.309 124.152C191.733 123.448 190.837 122.872 189.621 122.424C188.469 121.976 187.221 121.688 185.877 121.56C184.533 121.432 182.741 121.368 180.501 121.368C178.261 121.368 176.469 121.432 175.125 121.56C173.781 121.688 172.501 121.976 171.285 122.424C170.133 122.872 169.269 123.448 168.693 124.152C168.117 124.792 167.637 125.784 167.253 127.128C166.869 128.472 166.613 129.976 166.485 131.64C166.357 133.24 166.293 135.352 166.293 137.976C166.293 145.08 167.125 149.592 168.789 151.512ZM222.771 147V104.76H245.043V146.04C245.043 149.24 245.811 151.448 247.347 152.664C248.947 153.816 251.507 154.392 255.027 154.392C258.547 154.392 261.075 153.816 262.611 152.664C264.211 151.448 265.011 149.24 265.011 146.04V104.76H287.283V147C287.283 155.64 284.595 162.04 279.219 166.2C273.907 170.36 265.843 172.44 255.027 172.44C244.147 172.44 236.051 170.392 230.739 166.296C225.427 162.136 222.771 155.704 222.771 147ZM355.867 104.76V123.576H334.651V171H312.379V123.576H291.163V104.76H355.867ZM437.805 104.76V123.576H416.589V171H394.317V123.576H373.101V104.76H437.805ZM464.909 104.76V129.432H486.989V104.76H509.261V171H486.989V148.248H464.909V171H442.637V104.76H464.909ZM572.373 153.912V171H516.981V104.76H572.373V121.848H539.253V129.336H572.373V146.424H539.253V153.912H572.373ZM600.887 104.76H618.647L645.719 138.264V104.76H666.551V171H649.175L621.719 138.36V171H600.887V104.76ZM729.591 153.912V171H674.199V104.76H729.591V121.848H696.471V129.336H729.591V146.424H696.471V153.912H729.591ZM780.692 171L770.42 151.896L760.148 171H733.172L755.06 136.92L735.092 104.76H761.492L770.612 122.616L780.596 104.76H806.132L786.164 137.208L808.148 171H780.692ZM874.773 104.76V123.576H853.557V171H831.285V123.576H810.069V104.76H874.773ZM235.47 232.152V233.208C239.694 234.04 242.926 235.768 245.166 238.392C247.47 240.952 248.622 244.216 248.622 248.184C248.622 254.648 246.862 259.416 243.342 262.488C239.886 265.496 234.574 267 227.406 267H186.606V200.76H226.062C233.486 200.76 238.798 202.136 241.998 204.888C245.198 207.64 246.798 212.28 246.798 218.808C246.798 225.912 243.022 230.36 235.47 232.152ZM220.686 240.312H208.878V249.912H220.878C222.99 249.912 224.526 249.528 225.486 248.76C226.446 247.992 226.926 246.712 226.926 244.92C226.926 243.192 226.446 242.008 225.486 241.368C224.59 240.664 222.99 240.312 220.686 240.312ZM219.534 217.848H208.878V226.872H219.726C221.582 226.872 222.926 226.552 223.758 225.912C224.654 225.208 225.102 224.024 225.102 222.36C225.102 220.632 224.686 219.448 223.854 218.808C223.086 218.168 221.646 217.848 219.534 217.848ZM276.851 200.76V267H254.579V200.76H276.851ZM317.594 243.48V230.136H353.306V237.912C353.306 243.48 352.794 248.088 351.77 251.736C350.746 255.384 348.922 258.52 346.298 261.144C343.738 263.704 340.218 265.56 335.738 266.712C331.322 267.864 325.722 268.44 318.938 268.44C312.538 268.44 307.194 267.896 302.906 266.808C298.618 265.72 295.002 263.864 292.058 261.24C289.114 258.616 287.002 255.096 285.722 250.68C284.442 246.264 283.802 240.696 283.802 233.976C283.802 227.064 284.474 221.368 285.818 216.888C287.162 212.344 289.338 208.792 292.346 206.232C295.418 203.608 299.034 201.816 303.194 200.856C307.354 199.832 312.602 199.32 318.938 199.32C330.714 199.32 339.162 201.4 344.282 205.56C349.402 209.656 352.346 216.312 353.114 225.528H331.226C330.97 222.264 330.138 220.088 328.73 219C327.322 217.912 324.058 217.368 318.938 217.368C315.162 217.368 312.442 217.752 310.778 218.52C309.114 219.224 307.898 220.728 307.13 223.032C306.426 225.272 306.074 228.92 306.074 233.976C306.074 240.952 306.906 245.432 308.57 247.416C310.234 249.4 313.914 250.392 319.61 250.392C324.666 250.392 327.898 249.944 329.306 249.048C330.778 248.088 331.514 246.328 331.514 243.768V243.48H317.594ZM438.93 200.76V219.576H417.714V267H395.442V219.576H374.226V200.76H438.93ZM466.034 200.76V225.432H488.114V200.76H510.386V267H488.114V244.248H466.034V267H443.762V200.76H466.034ZM540.57 200.76V267H518.298V200.76H540.57ZM548.481 200.76H566.241L593.313 234.264V200.76H614.145V267H596.769L569.313 234.36V267H548.481V200.76ZM654.625 243.48V230.136H690.337V237.912C690.337 243.48 689.825 248.088 688.801 251.736C687.777 255.384 685.953 258.52 683.329 261.144C680.769 263.704 677.249 265.56 672.769 266.712C668.353 267.864 662.753 268.44 655.969 268.44C649.569 268.44 644.225 267.896 639.937 266.808C635.649 265.72 632.033 263.864 629.089 261.24C626.145 258.616 624.033 255.096 622.753 250.68C621.473 246.264 620.833 240.696 620.833 233.976C620.833 227.064 621.505 221.368 622.849 216.888C624.193 212.344 626.369 208.792 629.377 206.232C632.449 203.608 636.065 201.816 640.225 200.856C644.385 199.832 649.633 199.32 655.969 199.32C667.745 199.32 676.193 201.4 681.313 205.56C686.433 209.656 689.377 216.312 690.145 225.528H668.257C668.001 222.264 667.169 220.088 665.761 219C664.353 217.912 661.089 217.368 655.969 217.368C652.193 217.368 649.473 217.752 647.809 218.52C646.145 219.224 644.929 220.728 644.161 223.032C643.457 225.272 643.105 228.92 643.105 233.976C643.105 240.952 643.937 245.432 645.601 247.416C647.265 249.4 650.945 250.392 656.641 250.392C661.697 250.392 664.929 249.944 666.337 249.048C667.809 248.088 668.545 246.328 668.545 243.768V243.48H654.625Z"/>
</mask>
<path d="M216.051 56.184V75H159.699V8.75999H181.971V56.184H216.051ZM276.685 57.912V75H221.293V8.75999H276.685V25.848H243.565V33.336H276.685V50.424H243.565V57.912H276.685ZM345.93 8.75999V27.576H324.714V75H302.442V27.576H281.226V8.75999H345.93ZM364.97 29.88H349.802V0.311995H364.97V29.88ZM403.636 76.44C394.612 76.44 387.636 75.512 382.708 73.656C377.78 71.8 374.42 69.144 372.628 65.688C370.9 62.168 370.1 57.368 370.228 51.288H393.364C393.428 53.08 393.524 54.424 393.652 55.32C393.844 56.216 394.26 57.08 394.9 57.912C395.604 58.744 396.596 59.32 397.876 59.64C399.22 59.896 401.044 60.024 403.348 60.024C407.636 60.024 410.484 59.704 411.892 59.064C413.3 58.424 414.004 57.272 414.004 55.608C414.004 54.52 413.588 53.752 412.756 53.304C411.988 52.856 410.676 52.44 408.82 52.056L388.852 47.448C382.388 45.912 377.812 43.8 375.124 41.112C372.436 38.36 371.092 33.912 371.092 27.768C371.092 21.24 373.524 16.216 378.388 12.696C383.316 9.112 391.476 7.32 402.868 7.32C414.836 7.32 423.092 9.112 427.636 12.696C432.244 16.216 434.676 22.424 434.932 31.32H413.236C413.108 28.12 412.468 26.04 411.316 25.08C410.228 24.056 407.54 23.544 403.252 23.544C399.284 23.544 396.596 23.864 395.188 24.504C393.78 25.08 393.076 25.944 393.076 27.096C393.076 28.12 393.492 28.888 394.324 29.4C395.22 29.848 396.916 30.328 399.412 30.84L416.116 34.392C423.412 35.928 428.628 38.072 431.764 40.824C434.964 43.576 436.564 47.96 436.564 53.976C436.564 57.752 436.116 60.952 435.22 63.576C434.324 66.136 432.692 68.44 430.324 70.488C428.02 72.536 424.66 74.04 420.244 75C415.828 75.96 410.292 76.44 403.636 76.44ZM522.836 8.75999V27.576H501.62V75H479.348V27.576H458.132V8.75999H522.836ZM514.266 75L541.146 8.75999H561.498L588.282 75H563.61L561.018 67.032H541.05L538.458 75H514.266ZM556.698 53.592L551.13 36.312L545.466 53.592H556.698ZM648.52 56.184V75H592.168V8.75999H614.44V56.184H648.52ZM720.098 75H694.466L681.89 48.312H676.034V75H653.762V8.75999H676.034V41.4L693.986 8.75999H717.698L699.074 39.384L720.098 75ZM0.234375 171L27.1144 104.76H47.4664L74.2504 171H49.5784L46.9864 163.032H27.0184L24.4264 171H0.234375ZM42.6664 149.592L37.0984 132.312L31.4344 149.592H42.6664ZM127.001 136.152V137.208C131.225 138.04 134.457 139.768 136.697 142.392C139.001 144.952 140.153 148.216 140.153 152.184C140.153 158.648 138.393 163.416 134.873 166.488C131.417 169.496 126.105 171 118.937 171H78.1369V104.76H117.593C125.017 104.76 130.329 106.136 133.529 108.888C136.729 111.64 138.329 116.28 138.329 122.808C138.329 129.912 134.553 134.36 127.001 136.152ZM112.217 144.312H100.409V153.912H112.409C114.521 153.912 116.057 153.528 117.017 152.76C117.977 151.992 118.457 150.712 118.457 148.92C118.457 147.192 117.977 146.008 117.017 145.368C116.121 144.664 114.521 144.312 112.217 144.312ZM111.065 121.848H100.409V130.872H111.257C113.113 130.872 114.457 130.552 115.289 129.912C116.185 129.208 116.633 128.024 116.633 126.36C116.633 124.632 116.217 123.448 115.385 122.808C114.617 122.168 113.177 121.848 111.065 121.848ZM208.725 165.048C203.221 169.976 193.813 172.44 180.501 172.44C167.189 172.44 157.781 169.976 152.277 165.048C146.773 160.12 144.021 151.096 144.021 137.976C144.021 131.064 144.725 125.368 146.133 120.888C147.605 116.344 149.909 112.792 153.045 110.232C156.245 107.672 159.989 105.88 164.277 104.856C168.629 103.832 174.037 103.32 180.501 103.32C185.685 103.32 190.133 103.64 193.845 104.28C197.557 104.856 200.917 105.944 203.925 107.544C206.997 109.08 209.461 111.16 211.317 113.784C213.173 116.408 214.581 119.704 215.541 123.672C216.501 127.64 216.981 132.408 216.981 137.976C216.981 151.096 214.229 160.12 208.725 165.048ZM168.789 151.512C170.453 153.432 174.357 154.392 180.501 154.392C186.645 154.392 190.549 153.432 192.213 151.512C193.877 149.592 194.709 145.08 194.709 137.976C194.709 135.352 194.645 133.24 194.517 131.64C194.389 129.976 194.133 128.472 193.749 127.128C193.365 125.784 192.885 124.792 192.309 124.152C191.733 123.448 190.837 122.872 189.621 122.424C188.469 121.976 187.221 121.688 185.877 121.56C184.533 121.432 182.741 121.368 180.501 121.368C178.261 121.368 176.469 121.432 175.125 121.56C173.781 121.688 172.501 121.976 171.285 122.424C170.133 122.872 169.269 123.448 168.693 124.152C168.117 124.792 167.637 125.784 167.253 127.128C166.869 128.472 166.613 129.976 166.485 131.64C166.357 133.24 166.293 135.352 166.293 137.976C166.293 145.08 167.125 149.592 168.789 151.512ZM222.771 147V104.76H245.043V146.04C245.043 149.24 245.811 151.448 247.347 152.664C248.947 153.816 251.507 154.392 255.027 154.392C258.547 154.392 261.075 153.816 262.611 152.664C264.211 151.448 265.011 149.24 265.011 146.04V104.76H287.283V147C287.283 155.64 284.595 162.04 279.219 166.2C273.907 170.36 265.843 172.44 255.027 172.44C244.147 172.44 236.051 170.392 230.739 166.296C225.427 162.136 222.771 155.704 222.771 147ZM355.867 104.76V123.576H334.651V171H312.379V123.576H291.163V104.76H355.867ZM437.805 104.76V123.576H416.589V171H394.317V123.576H373.101V104.76H437.805ZM464.909 104.76V129.432H486.989V104.76H509.261V171H486.989V148.248H464.909V171H442.637V104.76H464.909ZM572.373 153.912V171H516.981V104.76H572.373V121.848H539.253V129.336H572.373V146.424H539.253V153.912H572.373ZM600.887 104.76H618.647L645.719 138.264V104.76H666.551V171H649.175L621.719 138.36V171H600.887V104.76ZM729.591 153.912V171H674.199V104.76H729.591V121.848H696.471V129.336H729.591V146.424H696.471V153.912H729.591ZM780.692 171L770.42 151.896L760.148 171H733.172L755.06 136.92L735.092 104.76H761.492L770.612 122.616L780.596 104.76H806.132L786.164 137.208L808.148 171H780.692ZM874.773 104.76V123.576H853.557V171H831.285V123.576H810.069V104.76H874.773ZM235.47 232.152V233.208C239.694 234.04 242.926 235.768 245.166 238.392C247.47 240.952 248.622 244.216 248.622 248.184C248.622 254.648 246.862 259.416 243.342 262.488C239.886 265.496 234.574 267 227.406 267H186.606V200.76H226.062C233.486 200.76 238.798 202.136 241.998 204.888C245.198 207.64 246.798 212.28 246.798 218.808C246.798 225.912 243.022 230.36 235.47 232.152ZM220.686 240.312H208.878V249.912H220.878C222.99 249.912 224.526 249.528 225.486 248.76C226.446 247.992 226.926 246.712 226.926 244.92C226.926 243.192 226.446 242.008 225.486 241.368C224.59 240.664 222.99 240.312 220.686 240.312ZM219.534 217.848H208.878V226.872H219.726C221.582 226.872 222.926 226.552 223.758 225.912C224.654 225.208 225.102 224.024 225.102 222.36C225.102 220.632 224.686 219.448 223.854 218.808C223.086 218.168 221.646 217.848 219.534 217.848ZM276.851 200.76V267H254.579V200.76H276.851ZM317.594 243.48V230.136H353.306V237.912C353.306 243.48 352.794 248.088 351.77 251.736C350.746 255.384 348.922 258.52 346.298 261.144C343.738 263.704 340.218 265.56 335.738 266.712C331.322 267.864 325.722 268.44 318.938 268.44C312.538 268.44 307.194 267.896 302.906 266.808C298.618 265.72 295.002 263.864 292.058 261.24C289.114 258.616 287.002 255.096 285.722 250.68C284.442 246.264 283.802 240.696 283.802 233.976C283.802 227.064 284.474 221.368 285.818 216.888C287.162 212.344 289.338 208.792 292.346 206.232C295.418 203.608 299.034 201.816 303.194 200.856C307.354 199.832 312.602 199.32 318.938 199.32C330.714 199.32 339.162 201.4 344.282 205.56C349.402 209.656 352.346 216.312 353.114 225.528H331.226C330.97 222.264 330.138 220.088 328.73 219C327.322 217.912 324.058 217.368 318.938 217.368C315.162 217.368 312.442 217.752 310.778 218.52C309.114 219.224 307.898 220.728 307.13 223.032C306.426 225.272 306.074 228.92 306.074 233.976C306.074 240.952 306.906 245.432 308.57 247.416C310.234 249.4 313.914 250.392 319.61 250.392C324.666 250.392 327.898 249.944 329.306 249.048C330.778 248.088 331.514 246.328 331.514 243.768V243.48H317.594ZM438.93 200.76V219.576H417.714V267H395.442V219.576H374.226V200.76H438.93ZM466.034 200.76V225.432H488.114V200.76H510.386V267H488.114V244.248H466.034V267H443.762V200.76H466.034ZM540.57 200.76V267H518.298V200.76H540.57ZM548.481 200.76H566.241L593.313 234.264V200.76H614.145V267H596.769L569.313 234.36V267H548.481V200.76ZM654.625 243.48V230.136H690.337V237.912C690.337 243.48 689.825 248.088 688.801 251.736C687.777 255.384 685.953 258.52 683.329 261.144C680.769 263.704 677.249 265.56 672.769 266.712C668.353 267.864 662.753 268.44 655.969 268.44C649.569 268.44 644.225 267.896 639.937 266.808C635.649 265.72 632.033 263.864 629.089 261.24C626.145 258.616 624.033 255.096 622.753 250.68C621.473 246.264 620.833 240.696 620.833 233.976C620.833 227.064 621.505 221.368 622.849 216.888C624.193 212.344 626.369 208.792 629.377 206.232C632.449 203.608 636.065 201.816 640.225 200.856C644.385 199.832 649.633 199.32 655.969 199.32C667.745 199.32 676.193 201.4 681.313 205.56C686.433 209.656 689.377 216.312 690.145 225.528H668.257C668.001 222.264 667.169 220.088 665.761 219C664.353 217.912 661.089 217.368 655.969 217.368C652.193 217.368 649.473 217.752 647.809 218.52C646.145 219.224 644.929 220.728 644.161 223.032C643.457 225.272 643.105 228.92 643.105 233.976C643.105 240.952 643.937 245.432 645.601 247.416C647.265 249.4 650.945 250.392 656.641 250.392C661.697 250.392 664.929 249.944 666.337 249.048C667.809 248.088 668.545 246.328 668.545 243.768V243.48H654.625Z" fill="url(#paint0_linear_136_644)"/>
<path d="M216.051 56.184H222.051V50.184H216.051V56.184ZM216.051 75V81H222.051V75H216.051ZM159.699 75H153.699V81H159.699V75ZM159.699 8.75999V2.75999H153.699V8.75999H159.699ZM181.971 8.75999H187.971V2.75999H181.971V8.75999ZM181.971 56.184H175.971V62.184H181.971V56.184ZM210.051 56.184V75H222.051V56.184H210.051ZM216.051 69H159.699V81H216.051V69ZM165.699 75V8.75999H153.699V75H165.699ZM159.699 14.76H181.971V2.75999H159.699V14.76ZM175.971 8.75999V56.184H187.971V8.75999H175.971ZM181.971 62.184H216.051V50.184H181.971V62.184ZM276.685 57.912H282.685V51.912H276.685V57.912ZM276.685 75V81H282.685V75H276.685ZM221.293 75H215.293V81H221.293V75ZM221.293 8.75999V2.75999H215.293V8.75999H221.293ZM276.685 8.75999H282.685V2.75999H276.685V8.75999ZM276.685 25.848V31.848H282.685V25.848H276.685ZM243.565 25.848V19.848H237.565V25.848H243.565ZM243.565 33.336H237.565V39.336H243.565V33.336ZM276.685 33.336H282.685V27.336H276.685V33.336ZM276.685 50.424V56.424H282.685V50.424H276.685ZM243.565 50.424V44.424H237.565V50.424H243.565ZM243.565 57.912H237.565V63.912H243.565V57.912ZM270.685 57.912V75H282.685V57.912H270.685ZM276.685 69H221.293V81H276.685V69ZM227.293 75V8.75999H215.293V75H227.293ZM221.293 14.76H276.685V2.75999H221.293V14.76ZM270.685 8.75999V25.848H282.685V8.75999H270.685ZM276.685 19.848H243.565V31.848H276.685V19.848ZM237.565 25.848V33.336H249.565V25.848H237.565ZM243.565 39.336H276.685V27.336H243.565V39.336ZM270.685 33.336V50.424H282.685V33.336H270.685ZM276.685 44.424H243.565V56.424H276.685V44.424ZM237.565 50.424V57.912H249.565V50.424H237.565ZM243.565 63.912H276.685V51.912H243.565V63.912ZM345.93 8.75999H351.93V2.75999H345.93V8.75999ZM345.93 27.576V33.576H351.93V27.576H345.93ZM324.714 27.576V21.576H318.714V27.576H324.714ZM324.714 75V81H330.714V75H324.714ZM302.442 75H296.442V81H302.442V75ZM302.442 27.576H308.442V21.576H302.442V27.576ZM281.226 27.576H275.226V33.576H281.226V27.576ZM281.226 8.75999V2.75999H275.226V8.75999H281.226ZM339.93 8.75999V27.576H351.93V8.75999H339.93ZM345.93 21.576H324.714V33.576H345.93V21.576ZM318.714 27.576V75H330.714V27.576H318.714ZM324.714 69H302.442V81H324.714V69ZM308.442 75V27.576H296.442V75H308.442ZM302.442 21.576H281.226V33.576H302.442V21.576ZM287.226 27.576V8.75999H275.226V27.576H287.226ZM281.226 14.76H345.93V2.75999H281.226V14.76ZM364.97 29.88V35.88H370.97V29.88H364.97ZM349.802 29.88H343.802V35.88H349.802V29.88ZM349.802 0.311995V-5.68801H343.802V0.311995H349.802ZM364.97 0.311995H370.97V-5.68801H364.97V0.311995ZM364.97 23.88H349.802V35.88H364.97V23.88ZM355.802 29.88V0.311995H343.802V29.88H355.802ZM349.802 6.31199H364.97V-5.68801H349.802V6.31199ZM358.97 0.311995V29.88H370.97V0.311995H358.97ZM382.708 73.656L380.593 79.271L382.708 73.656ZM372.628 65.688L367.242 68.332L367.271 68.3913L367.302 68.4499L372.628 65.688ZM370.228 51.288V45.288H364.353L364.229 51.1617L370.228 51.288ZM393.364 51.288L399.36 51.0738L399.154 45.288H393.364V51.288ZM393.652 55.32L387.712 56.1685L387.742 56.3741L387.785 56.5772L393.652 55.32ZM394.9 57.912L390.144 61.5703L390.23 61.681L390.32 61.7877L394.9 57.912ZM397.876 59.64L396.421 65.4609L396.586 65.5022L396.753 65.534L397.876 59.64ZM412.756 53.304L409.733 58.4867L409.821 58.5383L409.912 58.5868L412.756 53.304ZM408.82 52.056L407.471 57.9023L407.538 57.9177L407.604 57.9316L408.82 52.056ZM388.852 47.448L387.465 53.2855L387.484 53.29L387.503 53.2943L388.852 47.448ZM375.124 41.112L370.832 45.3044L370.857 45.3297L370.882 45.3546L375.124 41.112ZM378.388 12.696L381.906 17.5567L381.917 17.5484L378.388 12.696ZM427.636 12.696L423.92 17.407L423.957 17.4358L423.994 17.464L427.636 12.696ZM434.932 31.32V37.32H441.107L440.93 31.1474L434.932 31.32ZM413.236 31.32L407.241 31.5598L407.471 37.32H413.236V31.32ZM411.316 25.08L407.204 29.4492L407.336 29.5734L407.475 29.6893L411.316 25.08ZM395.188 24.504L397.46 30.0573L397.566 30.0138L397.671 29.9662L395.188 24.504ZM394.324 29.4L391.18 34.51L391.405 34.6484L391.641 34.7666L394.324 29.4ZM399.412 30.84L400.66 24.9712L400.639 24.9667L400.618 24.9624L399.412 30.84ZM416.116 34.392L414.868 40.2608L414.88 40.2633L416.116 34.392ZM431.764 40.824L427.807 45.3338L427.829 45.3535L427.852 45.3731L431.764 40.824ZM435.22 63.576L440.883 65.5581L440.891 65.5365L440.898 65.5149L435.22 63.576ZM430.324 70.488L426.399 65.9498L426.368 65.9765L426.338 66.0035L430.324 70.488ZM420.244 75L418.97 69.1369L420.244 75ZM403.636 70.44C394.894 70.44 388.759 69.5234 384.823 68.041L380.593 79.271C386.513 81.5006 394.33 82.44 403.636 82.44V70.44ZM384.823 68.041C380.786 66.5208 378.856 64.6635 377.955 62.9261L367.302 68.4499C369.985 73.6245 374.774 77.0792 380.593 79.271L384.823 68.041ZM378.014 63.044C376.879 60.7311 376.109 57.0137 376.227 51.4143L364.229 51.1617C364.091 57.7223 364.922 63.6049 367.242 68.332L378.014 63.044ZM370.228 57.288H393.364V45.288H370.228V57.288ZM387.368 51.5022C387.434 53.3434 387.538 54.9463 387.712 56.1685L399.592 54.4715C399.51 53.9017 399.423 52.8166 399.36 51.0738L387.368 51.5022ZM387.785 56.5772C388.19 58.465 389.039 60.1336 390.144 61.5703L399.656 54.2537C399.565 54.1355 399.526 54.0626 399.514 54.0371C399.503 54.0139 399.511 54.0245 399.519 54.0628L387.785 56.5772ZM390.32 61.7877C391.995 63.767 394.183 64.9015 396.421 65.4609L399.331 53.8191C399.157 53.7757 399.127 53.7458 399.185 53.7793C399.214 53.7961 399.26 53.8258 399.315 53.8715C399.37 53.9176 399.427 53.973 399.48 54.0363L390.32 61.7877ZM396.753 65.534C398.633 65.8921 400.885 66.024 403.348 66.024V54.024C401.203 54.024 399.807 53.8999 398.999 53.746L396.753 65.534ZM403.348 66.024C405.618 66.024 407.644 65.9404 409.37 65.7465C410.982 65.5653 412.799 65.2423 414.375 64.5262L409.409 53.6018C409.577 53.5257 409.266 53.6827 408.03 53.8215C406.908 53.9476 405.366 54.024 403.348 54.024V66.024ZM414.375 64.5262C416.007 63.7841 417.53 62.5924 418.596 60.8487C419.644 59.1338 420.004 57.2879 420.004 55.608H408.004C408.004 55.5921 408.012 55.1542 408.356 54.5913C408.718 53.9996 409.185 53.7039 409.409 53.6018L414.375 64.5262ZM420.004 55.608C420.004 52.7178 418.709 49.6946 415.601 48.0212L409.912 58.5868C409.386 58.304 408.811 57.8022 408.416 57.0737C408.046 56.3901 408.004 55.8207 408.004 55.608H420.004ZM415.779 48.1213C414.112 47.1487 411.975 46.5817 410.036 46.1804L407.604 57.9316C408.4 58.0961 408.981 58.2479 409.383 58.3754C409.82 58.5139 409.879 58.572 409.733 58.4867L415.779 48.1213ZM410.169 46.2097L390.201 41.6017L387.503 53.2943L407.471 57.9023L410.169 46.2097ZM390.239 41.6105C384.15 40.1636 380.878 38.3811 379.367 36.8694L370.882 45.3546C374.746 49.2189 380.626 51.6604 387.465 53.2855L390.239 41.6105ZM379.416 36.9196C378.321 35.7986 377.092 33.243 377.092 27.768H365.092C365.092 34.581 366.551 40.9214 370.832 45.3044L379.416 36.9196ZM377.092 27.768C377.092 22.9688 378.753 19.8383 381.906 17.5567L374.871 7.8353C368.295 12.5937 365.092 19.5112 365.092 27.768H377.092ZM381.917 17.5484C385.253 15.1221 391.795 13.32 402.868 13.32V1.32C391.158 1.32 381.379 3.10187 374.859 7.84358L381.917 17.5484ZM402.868 13.32C414.679 13.32 421.094 15.1776 423.92 17.407L431.352 7.985C425.09 3.04641 414.993 1.32 402.868 1.32V13.32ZM423.994 17.464C426.533 19.404 428.702 23.4253 428.935 31.4926L440.93 31.1474C440.65 21.4226 437.955 13.028 431.278 7.92797L423.994 17.464ZM434.932 25.32H413.236V37.32H434.932V25.32ZM419.231 31.0802C419.155 29.1818 418.92 27.3033 418.395 25.5955C417.879 23.9193 416.945 21.9603 415.157 20.4707L407.475 29.6893C406.84 29.1597 406.801 28.7206 406.925 29.1245C407.04 29.4967 407.189 30.2582 407.241 31.5598L419.231 31.0802ZM415.428 20.7108C413.612 19.0011 411.272 18.3512 409.607 18.034C407.746 17.6796 405.587 17.544 403.252 17.544V29.544C405.205 29.544 406.534 29.6644 407.361 29.822C407.556 29.859 407.7 29.894 407.801 29.9222C407.903 29.9507 407.945 29.968 407.939 29.9658C407.935 29.964 407.86 29.9335 407.738 29.8601C407.616 29.7866 407.424 29.6562 407.204 29.4492L415.428 20.7108ZM403.252 17.544C401.129 17.544 399.211 17.6284 397.551 17.8261C395.98 18.013 394.241 18.3438 392.705 19.0418L397.671 29.9662C397.543 30.0242 397.852 29.875 398.969 29.7419C399.997 29.6196 401.407 29.544 403.252 29.544V17.544ZM392.916 18.9507C391.607 19.4862 390.127 20.3526 388.953 21.794C387.697 23.3349 387.076 25.1895 387.076 27.096H399.076C399.076 27.8505 398.807 28.6971 398.256 29.374C397.785 29.9514 397.361 30.0978 397.46 30.0573L392.916 18.9507ZM387.076 27.096C387.076 30.0817 388.472 32.8436 391.18 34.51L397.469 24.29C397.84 24.5184 398.314 24.9359 398.664 25.5823C399.007 26.2159 399.076 26.7826 399.076 27.096H387.076ZM391.641 34.7666C393.328 35.61 395.748 36.2133 398.206 36.7176L400.618 24.9624C399.456 24.7242 398.562 24.5095 397.902 24.3228C397.188 24.1206 396.958 24.009 397.007 24.0334L391.641 34.7666ZM398.164 36.7088L414.868 40.2608L417.364 28.5232L400.66 24.9712L398.164 36.7088ZM414.88 40.2633C421.849 41.7304 425.84 43.6079 427.807 45.3338L435.722 36.3142C431.416 32.5361 424.976 30.1256 417.352 28.5207L414.88 40.2633ZM427.852 45.3731C429.238 46.5651 430.564 48.94 430.564 53.976H442.564C442.564 46.98 440.69 40.5869 435.676 36.2749L427.852 45.3731ZM430.564 53.976C430.564 57.3144 430.163 59.8175 429.542 61.6371L440.898 65.5149C442.069 62.0865 442.564 58.1896 442.564 53.976H430.564ZM429.557 61.5939C429.058 63.0208 428.098 64.4803 426.399 65.9498L434.249 75.0262C437.286 72.3997 439.591 69.2512 440.883 65.5581L429.557 61.5939ZM426.338 66.0035C425.081 67.1206 422.816 68.3008 418.97 69.1369L421.519 80.8631C426.505 79.7792 430.959 77.9514 434.31 74.9725L426.338 66.0035ZM418.97 69.1369C415.118 69.9742 410.045 70.44 403.636 70.44V82.44C410.54 82.44 416.538 81.9458 421.519 80.8631L418.97 69.1369ZM522.836 8.75999H528.836V2.75999H522.836V8.75999ZM522.836 27.576V33.576H528.836V27.576H522.836ZM501.62 27.576V21.576H495.62V27.576H501.62ZM501.62 75V81H507.62V75H501.62ZM479.348 75H473.348V81H479.348V75ZM479.348 27.576H485.348V21.576H479.348V27.576ZM458.132 27.576H452.132V33.576H458.132V27.576ZM458.132 8.75999V2.75999H452.132V8.75999H458.132ZM516.836 8.75999V27.576H528.836V8.75999H516.836ZM522.836 21.576H501.62V33.576H522.836V21.576ZM495.62 27.576V75H507.62V27.576H495.62ZM501.62 69H479.348V81H501.62V69ZM485.348 75V27.576H473.348V75H485.348ZM479.348 21.576H458.132V33.576H479.348V21.576ZM464.132 27.576V8.75999H452.132V27.576H464.132ZM458.132 14.76H522.836V2.75999H458.132V14.76ZM514.266 75L508.706 72.7439L505.356 81H514.266V75ZM541.146 8.75999V2.75999H537.105L535.586 6.50389L541.146 8.75999ZM561.498 8.75999L567.06 6.51082L565.543 2.75999H561.498V8.75999ZM588.282 75V81H597.18L593.844 72.7508L588.282 75ZM563.61 75L557.904 76.8561L559.252 81H563.61V75ZM561.018 67.032L566.723 65.1759L565.375 61.032H561.018V67.032ZM541.05 67.032V61.032H536.692L535.344 65.1759L541.05 67.032ZM538.458 75V81H542.815L544.163 76.8561L538.458 75ZM556.698 53.592V59.592H564.935L562.408 51.7518L556.698 53.592ZM551.13 36.312L556.84 34.4718L551.178 16.8999L545.428 34.4432L551.13 36.312ZM545.466 53.592L539.764 51.7232L537.185 59.592H545.466V53.592ZM519.825 77.2561L546.705 11.0161L535.586 6.50389L508.706 72.7439L519.825 77.2561ZM541.146 14.76H561.498V2.75999H541.146V14.76ZM555.935 11.0092L582.719 77.2492L593.844 72.7508L567.06 6.51082L555.935 11.0092ZM588.282 69H563.61V81H588.282V69ZM569.315 73.1439L566.723 65.1759L555.312 68.8881L557.904 76.8561L569.315 73.1439ZM561.018 61.032H541.05V73.032H561.018V61.032ZM535.344 65.1759L532.752 73.1439L544.163 76.8561L546.755 68.8881L535.344 65.1759ZM538.458 69H514.266V81H538.458V69ZM562.408 51.7518L556.84 34.4718L545.419 38.1522L550.987 55.4322L562.408 51.7518ZM545.428 34.4432L539.764 51.7232L551.167 55.4608L556.831 38.1808L545.428 34.4432ZM545.466 59.592H556.698V47.592H545.466V59.592ZM648.52 56.184H654.52V50.184H648.52V56.184ZM648.52 75V81H654.52V75H648.52ZM592.168 75H586.168V81H592.168V75ZM592.168 8.75999V2.75999H586.168V8.75999H592.168ZM614.44 8.75999H620.44V2.75999H614.44V8.75999ZM614.44 56.184H608.44V62.184H614.44V56.184ZM642.52 56.184V75H654.52V56.184H642.52ZM648.52 69H592.168V81H648.52V69ZM598.168 75V8.75999H586.168V75H598.168ZM592.168 14.76H614.44V2.75999H592.168V14.76ZM608.44 8.75999V56.184H620.44V8.75999H608.44ZM614.44 62.184H648.52V50.184H614.44V62.184ZM720.098 75V81H730.607L725.265 71.95L720.098 75ZM694.466 75L689.038 77.5576L690.66 81H694.466V75ZM681.89 48.312L687.317 45.7544L685.695 42.312H681.89V48.312ZM676.034 48.312V42.312H670.034V48.312H676.034ZM676.034 75V81H682.034V75H676.034ZM653.762 75H647.762V81H653.762V75ZM653.762 8.75999V2.75999H647.762V8.75999H653.762ZM676.034 8.75999H682.034V2.75999H676.034V8.75999ZM676.034 41.4H670.034L681.291 44.2915L676.034 41.4ZM693.986 8.75999V2.75999H690.438L688.729 5.86848L693.986 8.75999ZM717.698 8.75999L722.824 11.8776L728.369 2.75999H717.698V8.75999ZM699.074 39.384L693.947 36.2664L692.079 39.3381L693.907 42.434L699.074 39.384ZM720.098 69H694.466V81H720.098V69ZM699.893 72.4424L687.317 45.7544L676.462 50.8696L689.038 77.5576L699.893 72.4424ZM681.89 42.312H676.034V54.312H681.89V42.312ZM670.034 48.312V75H682.034V48.312H670.034ZM676.034 69H653.762V81H676.034V69ZM659.762 75V8.75999H647.762V75H659.762ZM653.762 14.76H676.034V2.75999H653.762V14.76ZM670.034 8.75999V41.4H682.034V8.75999H670.034ZM681.291 44.2915L699.243 11.6515L688.729 5.86848L670.777 38.5085L681.291 44.2915ZM693.986 14.76H717.698V2.75999H693.986V14.76ZM712.571 5.64235L693.947 36.2664L704.2 42.5016L722.824 11.8776L712.571 5.64235ZM693.907 42.434L714.931 78.05L725.265 71.95L704.241 36.334L693.907 42.434ZM0.234375 171L-5.3253 168.744L-8.6756 177H0.234375V171ZM27.1144 104.76V98.76H23.074L21.5547 102.504L27.1144 104.76ZM47.4664 104.76L53.0289 102.511L51.5122 98.76H47.4664V104.76ZM74.2504 171V177H83.1484L79.8129 168.751L74.2504 171ZM49.5784 171L43.8727 172.856L45.2207 177H49.5784V171ZM46.9864 163.032L52.6921 161.176L51.3441 157.032H46.9864V163.032ZM27.0184 163.032V157.032H22.6607L21.3127 161.176L27.0184 163.032ZM24.4264 171V177H28.784L30.1321 172.856L24.4264 171ZM42.6664 149.592V155.592H50.9035L48.3772 147.752L42.6664 149.592ZM37.0984 132.312L42.8092 130.472L37.1471 112.9L31.3968 130.443L37.0984 132.312ZM31.4344 149.592L25.7328 147.723L23.1536 155.592H31.4344V149.592ZM5.79405 173.256L32.6741 107.016L21.5547 102.504L-5.3253 168.744L5.79405 173.256ZM27.1144 110.76H47.4664V98.76H27.1144V110.76ZM41.9039 107.009L68.6879 173.249L79.8129 168.751L53.0289 102.511L41.9039 107.009ZM74.2504 165H49.5784V177H74.2504V165ZM55.2841 169.144L52.6921 161.176L41.2807 164.888L43.8727 172.856L55.2841 169.144ZM46.9864 157.032H27.0184V169.032H46.9864V157.032ZM21.3127 161.176L18.7207 169.144L30.1321 172.856L32.7241 164.888L21.3127 161.176ZM24.4264 165H0.234375V177H24.4264V165ZM48.3772 147.752L42.8092 130.472L31.3875 134.152L36.9555 151.432L48.3772 147.752ZM31.3968 130.443L25.7328 147.723L37.1359 151.461L42.7999 134.181L31.3968 130.443ZM31.4344 155.592H42.6664V143.592H31.4344V155.592ZM127.001 136.152L125.616 130.314L121.001 131.409V136.152H127.001ZM127.001 137.208H121.001V142.141L125.841 143.095L127.001 137.208ZM136.697 142.392L132.133 146.288L132.185 146.347L132.237 146.406L136.697 142.392ZM134.873 166.488L138.812 171.014L138.818 171.009L134.873 166.488ZM78.1369 171H72.1369V177H78.1369V171ZM78.1369 104.76V98.76H72.1369V104.76H78.1369ZM133.529 108.888L129.617 113.437L133.529 108.888ZM100.409 144.312V138.312H94.4089V144.312H100.409ZM100.409 153.912H94.4089V159.912H100.409V153.912ZM117.017 152.76L120.765 157.445L117.017 152.76ZM117.017 145.368L113.31 150.086L113.494 150.23L113.689 150.36L117.017 145.368ZM100.409 121.848V115.848H94.4089V121.848H100.409ZM100.409 130.872H94.4089V136.872H100.409V130.872ZM115.289 129.912L118.947 134.668L118.972 134.649L118.996 134.63L115.289 129.912ZM115.385 122.808L111.544 127.417L111.634 127.492L111.727 127.564L115.385 122.808ZM121.001 136.152V137.208H133.001V136.152H121.001ZM125.841 143.095C129.075 143.732 130.971 144.925 132.133 146.288L141.26 138.496C137.943 134.611 133.375 132.348 128.16 131.321L125.841 143.095ZM132.237 146.406C133.4 147.697 134.153 149.458 134.153 152.184H146.153C146.153 146.974 144.602 142.207 141.157 138.378L132.237 146.406ZM134.153 152.184C134.153 157.608 132.698 160.423 130.928 161.967L138.818 171.009C144.088 166.409 146.153 159.688 146.153 152.184H134.153ZM130.934 161.962C129.041 163.61 125.435 165 118.937 165V177C126.774 177 133.793 175.382 138.812 171.014L130.934 161.962ZM118.937 165H78.1369V177H118.937V165ZM84.1369 171V104.76H72.1369V171H84.1369ZM78.1369 110.76H117.593V98.76H78.1369V110.76ZM117.593 110.76C124.566 110.76 128.072 112.108 129.617 113.437L137.441 104.339C132.586 100.164 125.468 98.76 117.593 98.76V110.76ZM129.617 113.437C130.907 114.547 132.329 117.073 132.329 122.808H144.329C144.329 115.487 142.551 108.733 137.441 104.339L129.617 113.437ZM132.329 122.808C132.329 125.259 131.701 126.672 130.923 127.589C130.097 128.561 128.555 129.617 125.616 130.314L128.386 141.99C132.999 140.895 137.12 138.831 140.071 135.355C143.068 131.824 144.329 127.461 144.329 122.808H132.329ZM112.217 138.312H100.409V150.312H112.217V138.312ZM94.4089 144.312V153.912H106.409V144.312H94.4089ZM100.409 159.912H112.409V147.912H100.409V159.912ZM112.409 159.912C114.998 159.912 118.211 159.489 120.765 157.445L113.269 148.075C113.627 147.788 113.852 147.762 113.69 147.803C113.525 147.844 113.126 147.912 112.409 147.912V159.912ZM120.765 157.445C123.709 155.09 124.457 151.67 124.457 148.92H112.457C112.457 149.308 112.401 149.324 112.479 149.117C112.521 149.004 112.601 148.833 112.739 148.637C112.879 148.437 113.058 148.244 113.269 148.075L120.765 157.445ZM124.457 148.92C124.457 146.244 123.695 142.609 120.345 140.376L113.689 150.36C113.06 149.941 112.698 149.389 112.536 148.99C112.403 148.662 112.457 148.573 112.457 148.92H124.457ZM120.724 140.65C118.128 138.61 114.716 138.312 112.217 138.312V150.312C113.096 150.312 113.611 150.382 113.856 150.436C113.968 150.461 113.963 150.469 113.875 150.432C113.786 150.394 113.575 150.294 113.31 150.086L120.724 140.65ZM111.065 115.848H100.409V127.848H111.065V115.848ZM94.4089 121.848V130.872H106.409V121.848H94.4089ZM100.409 136.872H111.257V124.872H100.409V136.872ZM111.257 136.872C113.532 136.872 116.524 136.532 118.947 134.668L111.631 125.156C111.85 124.987 112.036 124.891 112.147 124.842C112.256 124.794 112.305 124.786 112.267 124.795C112.23 124.804 112.131 124.824 111.956 124.842C111.782 124.859 111.551 124.872 111.257 124.872V136.872ZM118.996 134.63C121.914 132.337 122.633 128.984 122.633 126.36H110.633C110.633 126.682 110.586 126.635 110.685 126.373C110.804 126.059 111.078 125.59 111.582 125.194L118.996 134.63ZM122.633 126.36C122.633 123.963 122.093 120.398 119.043 118.052L111.727 127.564C111.054 127.046 110.761 126.452 110.66 126.165C110.577 125.927 110.633 125.937 110.633 126.36H122.633ZM119.226 118.199C117.841 117.044 116.274 116.507 115.03 116.231C113.744 115.945 112.388 115.848 111.065 115.848V127.848C111.445 127.848 111.749 127.863 111.985 127.884C112.223 127.905 112.364 127.931 112.427 127.945C112.493 127.96 112.434 127.953 112.291 127.89C112.147 127.828 111.868 127.688 111.544 127.417L119.226 118.199ZM208.725 165.048L212.727 169.518L208.725 165.048ZM152.277 165.048L148.274 169.518L152.277 165.048ZM146.133 120.888L140.425 119.039L140.417 119.064L140.409 119.089L146.133 120.888ZM153.045 110.232L149.296 105.547L149.273 105.565L149.25 105.584L153.045 110.232ZM164.277 104.856L162.902 99.0155L162.893 99.0178L162.883 99.0201L164.277 104.856ZM193.845 104.28L192.825 110.193L192.875 110.201L192.925 110.209L193.845 104.28ZM203.925 107.544L201.107 112.841L201.174 112.877L201.241 112.911L203.925 107.544ZM211.317 113.784L206.418 117.249L211.317 113.784ZM215.541 123.672L221.372 122.261L215.541 123.672ZM192.213 151.512L187.678 147.582H187.678L192.213 151.512ZM194.517 131.64L188.534 132.1L188.535 132.109L188.536 132.118L194.517 131.64ZM192.309 124.152L187.665 127.951L187.754 128.061L187.849 128.166L192.309 124.152ZM189.621 122.424L187.446 128.016L187.496 128.035L187.546 128.054L189.621 122.424ZM185.877 121.56L186.445 115.587H186.445L185.877 121.56ZM175.125 121.56L174.556 115.587H174.556L175.125 121.56ZM171.285 122.424L169.21 116.794L169.16 116.812L169.11 116.832L171.285 122.424ZM168.693 124.152L173.152 128.166L173.247 128.061L173.336 127.951L168.693 124.152ZM166.485 131.64L172.466 132.118L172.466 132.109L172.467 132.1L166.485 131.64ZM204.722 160.578C200.914 163.988 193.4 166.44 180.501 166.44V178.44C194.225 178.44 205.528 175.964 212.727 169.518L204.722 160.578ZM180.501 166.44C167.601 166.44 160.088 163.988 156.279 160.578L148.274 169.518C155.474 175.964 166.776 178.44 180.501 178.44V166.44ZM156.279 160.578C152.743 157.412 150.021 150.627 150.021 137.976H138.021C138.021 151.565 140.803 162.828 148.274 169.518L156.279 160.578ZM150.021 137.976C150.021 131.415 150.696 126.38 151.857 122.687L140.409 119.089C138.753 124.356 138.021 130.713 138.021 137.976H150.021ZM151.841 122.737C153.022 119.09 154.747 116.588 156.839 114.88L149.25 105.584C145.07 108.996 142.187 113.598 140.425 119.039L151.841 122.737ZM156.793 114.917C159.251 112.951 162.176 111.526 165.67 110.692L162.883 99.0201C157.801 100.234 153.238 102.393 149.296 105.547L156.793 114.917ZM165.651 110.697C169.402 109.814 174.313 109.32 180.501 109.32V97.32C173.76 97.32 167.855 97.8501 162.902 99.0155L165.651 110.697ZM180.501 109.32C185.46 109.32 189.549 109.628 192.825 110.193L194.864 98.3672C190.717 97.6522 185.909 97.32 180.501 97.32V109.32ZM192.925 110.209C196.041 110.693 198.749 111.587 201.107 112.841L206.742 102.247C203.084 100.301 199.072 99.0194 194.765 98.351L192.925 110.209ZM201.241 112.911C203.492 114.036 205.172 115.487 206.418 117.249L216.215 110.319C213.75 106.833 210.501 104.124 206.608 102.177L201.241 112.911ZM206.418 117.249C207.735 119.111 208.881 121.661 209.709 125.083L221.372 122.261C220.28 117.747 218.61 113.705 216.215 110.319L206.418 117.249ZM209.709 125.083C210.525 128.456 210.981 132.724 210.981 137.976H222.981C222.981 132.092 222.476 126.824 221.372 122.261L209.709 125.083ZM210.981 137.976C210.981 150.627 208.259 157.412 204.722 160.578L212.727 169.518C220.199 162.828 222.981 151.565 222.981 137.976H210.981ZM164.254 155.442C166.248 157.742 169.023 158.882 171.532 159.498C174.13 160.137 177.171 160.392 180.501 160.392V148.392C177.686 148.392 175.703 148.167 174.397 147.846C173.002 147.502 172.993 147.202 173.323 147.582L164.254 155.442ZM180.501 160.392C183.83 160.392 186.871 160.137 189.469 159.498C191.978 158.882 194.753 157.742 196.747 155.442L187.678 147.582C188.008 147.202 187.999 147.502 186.604 147.846C185.298 148.167 183.315 148.392 180.501 148.392V160.392ZM196.747 155.442C198.642 153.255 199.509 150.357 199.985 147.776C200.493 145.022 200.709 141.718 200.709 137.976H188.709C188.709 141.338 188.508 143.842 188.184 145.6C187.828 147.531 187.447 147.849 187.678 147.582L196.747 155.442ZM200.709 137.976C200.709 135.279 200.644 132.988 200.498 131.162L188.536 132.118C188.646 133.492 188.709 135.425 188.709 137.976H200.709ZM200.499 131.18C200.346 129.188 200.031 127.278 199.518 125.48L187.979 128.776C188.234 129.666 188.431 130.764 188.534 132.1L200.499 131.18ZM199.518 125.48C199.021 123.742 198.221 121.752 196.768 120.138L187.849 128.166C187.67 127.967 187.641 127.868 187.7 127.989C187.756 128.105 187.858 128.352 187.979 128.776L199.518 125.48ZM196.952 120.353C195.47 118.541 193.512 117.463 191.695 116.794L187.546 128.054C187.684 128.105 187.785 128.149 187.855 128.183C187.925 128.217 187.957 128.237 187.96 128.239C187.967 128.244 187.836 128.161 187.665 127.951L196.952 120.353ZM191.795 116.832C190.083 116.166 188.289 115.763 186.445 115.587L185.308 127.533C186.152 127.613 186.854 127.786 187.446 128.016L191.795 116.832ZM186.445 115.587C184.83 115.433 182.825 115.368 180.501 115.368V127.368C182.657 127.368 184.235 127.431 185.308 127.533L186.445 115.587ZM180.501 115.368C178.177 115.368 176.171 115.433 174.556 115.587L175.693 127.533C176.766 127.431 178.345 127.368 180.501 127.368V115.368ZM174.556 115.587C172.719 115.762 170.931 116.16 169.21 116.794L173.359 128.054C174.07 127.792 174.842 127.614 175.693 127.533L174.556 115.587ZM169.11 116.832C167.326 117.526 165.473 118.612 164.049 120.353L173.336 127.951C173.198 128.12 173.095 128.188 173.101 128.184C173.104 128.182 173.132 128.164 173.192 128.133C173.252 128.103 173.339 128.063 173.459 128.016L169.11 116.832ZM164.233 120.138C162.781 121.752 161.98 123.742 161.483 125.48L173.022 128.776C173.143 128.352 173.245 128.105 173.302 127.989C173.361 127.868 173.331 127.967 173.152 128.166L164.233 120.138ZM161.483 125.48C160.97 127.278 160.655 129.188 160.502 131.18L172.467 132.1C172.57 130.764 172.767 129.666 173.022 128.776L161.483 125.48ZM160.504 131.162C160.358 132.988 160.293 135.279 160.293 137.976H172.293C172.293 135.425 172.356 133.492 172.466 132.118L160.504 131.162ZM160.293 137.976C160.293 141.718 160.508 145.022 161.016 147.776C161.492 150.357 162.359 153.255 164.254 155.442L173.323 147.582C173.554 147.849 173.173 147.531 172.817 145.6C172.493 143.842 172.293 141.338 172.293 137.976H160.293ZM222.771 104.76V98.76H216.771V104.76H222.771ZM245.043 104.76H251.043V98.76H245.043V104.76ZM247.347 152.664L243.622 157.368L243.73 157.453L243.841 157.533L247.347 152.664ZM262.611 152.664L266.211 157.464L266.226 157.453L266.241 157.441L262.611 152.664ZM265.011 104.76V98.76H259.011V104.76H265.011ZM287.283 104.76H293.283V98.76H287.283V104.76ZM279.219 166.2L275.547 161.455L275.533 161.465L275.519 161.476L279.219 166.2ZM230.739 166.296L227.039 171.02L227.057 171.034L227.075 171.047L230.739 166.296ZM228.771 147V104.76H216.771V147H228.771ZM222.771 110.76H245.043V98.76H222.771V110.76ZM239.043 104.76V146.04H251.043V104.76H239.043ZM239.043 146.04C239.043 149.923 239.94 154.453 243.622 157.368L251.071 147.96C251.357 148.186 251.368 148.362 251.286 148.125C251.187 147.84 251.043 147.199 251.043 146.04H239.043ZM243.841 157.533C246.993 159.803 251.117 160.392 255.027 160.392V148.392C253.57 148.392 252.513 148.271 251.784 148.106C251.045 147.94 250.818 147.77 250.852 147.795L243.841 157.533ZM255.027 160.392C258.901 160.392 263.074 159.816 266.211 157.464L259.011 147.864C259.108 147.791 258.945 147.947 258.23 148.11C257.527 148.27 256.486 148.392 255.027 148.392V160.392ZM266.241 157.441C270.044 154.551 271.011 149.995 271.011 146.04H259.011C259.011 147.179 258.863 147.793 258.769 148.052C258.695 148.257 258.715 148.089 258.98 147.887L266.241 157.441ZM271.011 146.04V104.76H259.011V146.04H271.011ZM265.011 110.76H287.283V98.76H265.011V110.76ZM281.283 104.76V147H293.283V104.76H281.283ZM281.283 147C281.283 154.335 279.067 158.731 275.547 161.455L282.891 170.945C290.122 165.349 293.283 156.945 293.283 147H281.283ZM275.519 161.476C271.733 164.442 265.254 166.44 255.027 166.44V178.44C266.432 178.44 276.081 176.278 282.918 170.924L275.519 161.476ZM255.027 166.44C244.711 166.44 238.189 164.464 234.402 161.545L227.075 171.047C233.912 176.32 243.583 178.44 255.027 178.44V166.44ZM234.438 161.572C230.982 158.866 228.771 154.442 228.771 147H216.771C216.771 156.966 219.871 165.406 227.039 171.02L234.438 161.572ZM355.867 104.76H361.867V98.76H355.867V104.76ZM355.867 123.576V129.576H361.867V123.576H355.867ZM334.651 123.576V117.576H328.651V123.576H334.651ZM334.651 171V177H340.651V171H334.651ZM312.379 171H306.379V177H312.379V171ZM312.379 123.576H318.379V117.576H312.379V123.576ZM291.163 123.576H285.163V129.576H291.163V123.576ZM291.163 104.76V98.76H285.163V104.76H291.163ZM349.867 104.76V123.576H361.867V104.76H349.867ZM355.867 117.576H334.651V129.576H355.867V117.576ZM328.651 123.576V171H340.651V123.576H328.651ZM334.651 165H312.379V177H334.651V165ZM318.379 171V123.576H306.379V171H318.379ZM312.379 117.576H291.163V129.576H312.379V117.576ZM297.163 123.576V104.76H285.163V123.576H297.163ZM291.163 110.76H355.867V98.76H291.163V110.76ZM437.805 104.76H443.805V98.76H437.805V104.76ZM437.805 123.576V129.576H443.805V123.576H437.805ZM416.589 123.576V117.576H410.589V123.576H416.589ZM416.589 171V177H422.589V171H416.589ZM394.317 171H388.317V177H394.317V171ZM394.317 123.576H400.317V117.576H394.317V123.576ZM373.101 123.576H367.101V129.576H373.101V123.576ZM373.101 104.76V98.76H367.101V104.76H373.101ZM431.805 104.76V123.576H443.805V104.76H431.805ZM437.805 117.576H416.589V129.576H437.805V117.576ZM410.589 123.576V171H422.589V123.576H410.589ZM416.589 165H394.317V177H416.589V165ZM400.317 171V123.576H388.317V171H400.317ZM394.317 117.576H373.101V129.576H394.317V117.576ZM379.101 123.576V104.76H367.101V123.576H379.101ZM373.101 110.76H437.805V98.76H373.101V110.76ZM464.909 104.76H470.909V98.76H464.909V104.76ZM464.909 129.432H458.909V135.432H464.909V129.432ZM486.989 129.432V135.432H492.989V129.432H486.989ZM486.989 104.76V98.76H480.989V104.76H486.989ZM509.261 104.76H515.261V98.76H509.261V104.76ZM509.261 171V177H515.261V171H509.261ZM486.989 171H480.989V177H486.989V171ZM486.989 148.248H492.989V142.248H486.989V148.248ZM464.909 148.248V142.248H458.909V148.248H464.909ZM464.909 171V177H470.909V171H464.909ZM442.637 171H436.637V177H442.637V171ZM442.637 104.76V98.76H436.637V104.76H442.637ZM458.909 104.76V129.432H470.909V104.76H458.909ZM464.909 135.432H486.989V123.432H464.909V135.432ZM492.989 129.432V104.76H480.989V129.432H492.989ZM486.989 110.76H509.261V98.76H486.989V110.76ZM503.261 104.76V171H515.261V104.76H503.261ZM509.261 165H486.989V177H509.261V165ZM492.989 171V148.248H480.989V171H492.989ZM486.989 142.248H464.909V154.248H486.989V142.248ZM458.909 148.248V171H470.909V148.248H458.909ZM464.909 165H442.637V177H464.909V165ZM448.637 171V104.76H436.637V171H448.637ZM442.637 110.76H464.909V98.76H442.637V110.76ZM572.373 153.912H578.373V147.912H572.373V153.912ZM572.373 171V177H578.373V171H572.373ZM516.981 171H510.981V177H516.981V171ZM516.981 104.76V98.76H510.981V104.76H516.981ZM572.373 104.76H578.373V98.76H572.373V104.76ZM572.373 121.848V127.848H578.373V121.848H572.373ZM539.253 121.848V115.848H533.253V121.848H539.253ZM539.253 129.336H533.253V135.336H539.253V129.336ZM572.373 129.336H578.373V123.336H572.373V129.336ZM572.373 146.424V152.424H578.373V146.424H572.373ZM539.253 146.424V140.424H533.253V146.424H539.253ZM539.253 153.912H533.253V159.912H539.253V153.912ZM566.373 153.912V171H578.373V153.912H566.373ZM572.373 165H516.981V177H572.373V165ZM522.981 171V104.76H510.981V171H522.981ZM516.981 110.76H572.373V98.76H516.981V110.76ZM566.373 104.76V121.848H578.373V104.76H566.373ZM572.373 115.848H539.253V127.848H572.373V115.848ZM533.253 121.848V129.336H545.253V121.848H533.253ZM539.253 135.336H572.373V123.336H539.253V135.336ZM566.373 129.336V146.424H578.373V129.336H566.373ZM572.373 140.424H539.253V152.424H572.373V140.424ZM533.253 146.424V153.912H545.253V146.424H533.253ZM539.253 159.912H572.373V147.912H539.253V159.912ZM600.887 104.76V98.76H594.887V104.76H600.887ZM618.647 104.76L623.314 100.989L621.513 98.76H618.647V104.76ZM645.719 138.264L641.052 142.035L651.719 155.236V138.264H645.719ZM645.719 104.76V98.76H639.719V104.76H645.719ZM666.551 104.76H672.551V98.76H666.551V104.76ZM666.551 171V177H672.551V171H666.551ZM649.175 171L644.583 174.862L646.381 177H649.175V171ZM621.719 138.36L626.31 134.498L615.719 121.906V138.36H621.719ZM621.719 171V177H627.719V171H621.719ZM600.887 171H594.887V177H600.887V171ZM600.887 110.76H618.647V98.76H600.887V110.76ZM613.98 108.531L641.052 142.035L650.386 134.493L623.314 100.989L613.98 108.531ZM651.719 138.264V104.76H639.719V138.264H651.719ZM645.719 110.76H666.551V98.76H645.719V110.76ZM660.551 104.76V171H672.551V104.76H660.551ZM666.551 165H649.175V177H666.551V165ZM653.766 167.138L626.31 134.498L617.127 142.222L644.583 174.862L653.766 167.138ZM615.719 138.36V171H627.719V138.36H615.719ZM621.719 165H600.887V177H621.719V165ZM606.887 171V104.76H594.887V171H606.887ZM729.591 153.912H735.591V147.912H729.591V153.912ZM729.591 171V177H735.591V171H729.591ZM674.199 171H668.199V177H674.199V171ZM674.199 104.76V98.76H668.199V104.76H674.199ZM729.591 104.76H735.591V98.76H729.591V104.76ZM729.591 121.848V127.848H735.591V121.848H729.591ZM696.471 121.848V115.848H690.471V121.848H696.471ZM696.471 129.336H690.471V135.336H696.471V129.336ZM729.591 129.336H735.591V123.336H729.591V129.336ZM729.591 146.424V152.424H735.591V146.424H729.591ZM696.471 146.424V140.424H690.471V146.424H696.471ZM696.471 153.912H690.471V159.912H696.471V153.912ZM723.591 153.912V171H735.591V153.912H723.591ZM729.591 165H674.199V177H729.591V165ZM680.199 171V104.76H668.199V171H680.199ZM674.199 110.76H729.591V98.76H674.199V110.76ZM723.591 104.76V121.848H735.591V104.76H723.591ZM729.591 115.848H696.471V127.848H729.591V115.848ZM690.471 121.848V129.336H702.471V121.848H690.471ZM696.471 135.336H729.591V123.336H696.471V135.336ZM723.591 129.336V146.424H735.591V129.336H723.591ZM729.591 140.424H696.471V152.424H729.591V140.424ZM690.471 146.424V153.912H702.471V146.424H690.471ZM696.471 159.912H729.591V147.912H696.471V159.912ZM780.692 171L775.407 173.841L777.106 177H780.692V171ZM770.42 151.896L775.704 149.055L770.42 139.226L765.135 149.055L770.42 151.896ZM760.148 171V177H763.734L765.432 173.841L760.148 171ZM733.172 171L728.123 167.758L722.187 177H733.172V171ZM755.06 136.92L760.108 140.162L762.156 136.974L760.157 133.755L755.06 136.92ZM735.092 104.76V98.76H724.304L729.995 107.925L735.092 104.76ZM761.492 104.76L766.835 102.031L765.165 98.76H761.492V104.76ZM770.612 122.616L765.268 125.345L770.373 135.338L775.849 125.544L770.612 122.616ZM780.596 104.76V98.76H777.076L775.359 101.832L780.596 104.76ZM806.132 104.76L811.242 107.905L816.869 98.76H806.132V104.76ZM786.164 137.208L781.054 134.063L779.064 137.297L781.135 140.48L786.164 137.208ZM808.148 171V177H819.209L813.177 167.728L808.148 171ZM785.976 168.159L775.704 149.055L765.135 154.737L775.407 173.841L785.976 168.159ZM765.135 149.055L754.863 168.159L765.432 173.841L775.704 154.737L765.135 149.055ZM760.148 165H733.172V177H760.148V165ZM738.22 174.242L760.108 140.162L750.011 133.678L728.123 167.758L738.22 174.242ZM760.157 133.755L740.189 101.595L729.995 107.925L749.963 140.085L760.157 133.755ZM735.092 110.76H761.492V98.76H735.092V110.76ZM756.148 107.489L765.268 125.345L775.955 119.887L766.835 102.031L756.148 107.489ZM775.849 125.544L785.833 107.688L775.359 101.832L765.375 119.688L775.849 125.544ZM780.596 110.76H806.132V98.76H780.596V110.76ZM801.022 101.615L781.054 134.063L791.274 140.353L811.242 107.905L801.022 101.615ZM781.135 140.48L803.119 174.272L813.177 167.728L791.193 133.936L781.135 140.48ZM808.148 165H780.692V177H808.148V165ZM874.773 104.76H880.773V98.76H874.773V104.76ZM874.773 123.576V129.576H880.773V123.576H874.773ZM853.557 123.576V117.576H847.557V123.576H853.557ZM853.557 171V177H859.557V171H853.557ZM831.285 171H825.285V177H831.285V171ZM831.285 123.576H837.285V117.576H831.285V123.576ZM810.069 123.576H804.069V129.576H810.069V123.576ZM810.069 104.76V98.76H804.069V104.76H810.069ZM868.773 104.76V123.576H880.773V104.76H868.773ZM874.773 117.576H853.557V129.576H874.773V117.576ZM847.557 123.576V171H859.557V123.576H847.557ZM853.557 165H831.285V177H853.557V165ZM837.285 171V123.576H825.285V171H837.285ZM831.285 117.576H810.069V129.576H831.285V117.576ZM816.069 123.576V104.76H804.069V123.576H816.069ZM810.069 110.76H874.773V98.76H810.069V110.76ZM235.47 232.152L234.084 226.314L229.47 227.409V232.152H235.47ZM235.47 233.208H229.47V238.141L234.31 239.095L235.47 233.208ZM245.166 238.392L240.602 242.288L240.653 242.347L240.706 242.406L245.166 238.392ZM243.342 262.488L247.281 267.014L247.287 267.009L243.342 262.488ZM186.606 267H180.606V273H186.606V267ZM186.606 200.76V194.76H180.606V200.76H186.606ZM241.998 204.888L238.085 209.437V209.437L241.998 204.888ZM208.878 240.312V234.312H202.878V240.312H208.878ZM208.878 249.912H202.878V255.912H208.878V249.912ZM225.486 248.76L229.234 253.445L225.486 248.76ZM225.486 241.368L221.779 246.086L221.963 246.23L222.157 246.36L225.486 241.368ZM208.878 217.848V211.848H202.878V217.848H208.878ZM208.878 226.872H202.878V232.872H208.878V226.872ZM223.758 225.912L227.416 230.668L227.44 230.649L227.465 230.63L223.758 225.912ZM223.854 218.808L220.013 223.417L220.103 223.492L220.195 223.564L223.854 218.808ZM229.47 232.152V233.208H241.47V232.152H229.47ZM234.31 239.095C237.544 239.732 239.439 240.925 240.602 242.288L249.729 234.496C246.412 230.611 241.844 228.348 236.629 227.321L234.31 239.095ZM240.706 242.406C241.868 243.697 242.622 245.458 242.622 248.184H254.622C254.622 242.974 253.071 238.207 249.625 234.378L240.706 242.406ZM242.622 248.184C242.622 253.608 241.167 256.423 239.396 257.967L247.287 267.009C252.557 262.409 254.622 255.688 254.622 248.184H242.622ZM239.402 257.962C237.509 259.61 233.904 261 227.406 261V273C235.243 273 242.262 271.382 247.281 267.014L239.402 257.962ZM227.406 261H186.606V273H227.406V261ZM192.606 267V200.76H180.606V267H192.606ZM186.606 206.76H226.062V194.76H186.606V206.76ZM226.062 206.76C233.035 206.76 236.54 208.108 238.085 209.437L245.91 200.339C241.055 196.164 233.936 194.76 226.062 194.76V206.76ZM238.085 209.437C239.376 210.547 240.798 213.073 240.798 218.808H252.798C252.798 211.487 251.02 204.733 245.91 200.339L238.085 209.437ZM240.798 218.808C240.798 221.259 240.17 222.672 239.392 223.589C238.566 224.561 237.024 225.617 234.084 226.314L236.855 237.99C241.468 236.895 245.589 234.831 248.54 231.355C251.537 227.824 252.798 223.461 252.798 218.808H240.798ZM220.686 234.312H208.878V246.312H220.686V234.312ZM202.878 240.312V249.912H214.878V240.312H202.878ZM208.878 255.912H220.878V243.912H208.878V255.912ZM220.878 255.912C223.467 255.912 226.68 255.489 229.234 253.445L221.737 244.075C222.096 243.788 222.321 243.762 222.158 243.803C221.994 243.844 221.595 243.912 220.878 243.912V255.912ZM229.234 253.445C232.178 251.09 232.926 247.67 232.926 244.92H220.926C220.926 245.308 220.87 245.324 220.948 245.117C220.99 245.004 221.069 244.833 221.207 244.637C221.348 244.437 221.526 244.244 221.737 244.075L229.234 253.445ZM232.926 244.92C232.926 242.244 232.164 238.609 228.814 236.376L222.157 246.36C221.529 245.941 221.167 245.389 221.005 244.99C220.872 244.662 220.926 244.573 220.926 244.92H232.926ZM229.193 236.65C226.596 234.61 223.185 234.312 220.686 234.312V246.312C221.564 246.312 222.08 246.382 222.324 246.436C222.437 246.461 222.432 246.469 222.344 246.432C222.255 246.394 222.043 246.294 221.779 246.086L229.193 236.65ZM219.534 211.848H208.878V223.848H219.534V211.848ZM202.878 217.848V226.872H214.878V217.848H202.878ZM208.878 232.872H219.726V220.872H208.878V232.872ZM219.726 232.872C222.001 232.872 224.993 232.532 227.416 230.668L220.099 221.156C220.319 220.987 220.505 220.891 220.616 220.842C220.725 220.794 220.773 220.786 220.736 220.795C220.699 220.804 220.6 220.824 220.425 220.842C220.25 220.859 220.02 220.872 219.726 220.872V232.872ZM227.465 230.63C230.383 228.337 231.102 224.984 231.102 222.36H219.102C219.102 222.682 219.055 222.635 219.154 222.373C219.273 222.059 219.546 221.59 220.051 221.194L227.465 230.63ZM231.102 222.36C231.102 219.963 230.562 216.398 227.512 214.052L220.195 223.564C219.523 223.046 219.23 222.452 219.129 222.165C219.045 221.927 219.102 221.937 219.102 222.36H231.102ZM227.695 214.199C226.31 213.044 224.743 212.507 223.499 212.231C222.212 211.945 220.857 211.848 219.534 211.848V223.848C219.914 223.848 220.217 223.863 220.453 223.884C220.692 223.905 220.833 223.931 220.896 223.945C220.962 223.96 220.903 223.953 220.759 223.89C220.615 223.828 220.337 223.688 220.013 223.417L227.695 214.199ZM276.851 200.76H282.851V194.76H276.851V200.76ZM276.851 267V273H282.851V267H276.851ZM254.579 267H248.579V273H254.579V267ZM254.579 200.76V194.76H248.579V200.76H254.579ZM270.851 200.76V267H282.851V200.76H270.851ZM276.851 261H254.579V273H276.851V261ZM260.579 267V200.76H248.579V267H260.579ZM254.579 206.76H276.851V194.76H254.579V206.76ZM317.594 243.48H311.594V249.48H317.594V243.48ZM317.594 230.136V224.136H311.594V230.136H317.594ZM353.306 230.136H359.306V224.136H353.306V230.136ZM351.77 251.736L345.993 250.114L351.77 251.736ZM346.298 261.144L350.541 265.387L346.298 261.144ZM335.738 266.712L334.244 260.901L334.233 260.904L334.223 260.906L335.738 266.712ZM302.906 266.808L304.382 260.992L302.906 266.808ZM292.058 261.24L296.05 256.761L292.058 261.24ZM285.722 250.68L279.959 252.35L285.722 250.68ZM285.818 216.888L291.565 218.612L291.568 218.601L291.571 218.59L285.818 216.888ZM292.346 206.232L296.235 210.801L296.243 210.794L292.346 206.232ZM303.194 200.856L304.543 206.702L304.586 206.693L304.628 206.682L303.194 200.856ZM344.282 205.56L340.498 210.217L340.516 210.231L340.534 210.245L344.282 205.56ZM353.114 225.528V231.528H359.635L359.093 225.03L353.114 225.528ZM331.226 225.528L325.244 225.997L325.678 231.528H331.226V225.528ZM328.73 219L325.061 223.748L328.73 219ZM310.778 218.52L313.116 224.046L313.205 224.008L313.292 223.968L310.778 218.52ZM307.13 223.032L301.438 221.135L301.421 221.184L301.406 221.233L307.13 223.032ZM329.306 249.048L332.527 254.11L332.555 254.092L332.583 254.074L329.306 249.048ZM331.514 243.48H337.514V237.48H331.514V243.48ZM323.594 243.48V230.136H311.594V243.48H323.594ZM317.594 236.136H353.306V224.136H317.594V236.136ZM347.306 230.136V237.912H359.306V230.136H347.306ZM347.306 237.912C347.306 243.163 346.817 247.178 345.993 250.114L357.547 253.358C358.77 248.998 359.306 243.797 359.306 237.912H347.306ZM345.993 250.114C345.241 252.793 343.936 255.021 342.055 256.901L350.541 265.387C353.908 262.019 356.251 257.975 357.547 253.358L345.993 250.114ZM342.055 256.901C340.438 258.519 337.968 259.943 334.244 260.901L337.232 272.523C342.468 271.177 347.038 268.889 350.541 265.387L342.055 256.901ZM334.223 260.906C330.479 261.883 325.433 262.44 318.938 262.44V274.44C326.011 274.44 332.165 273.845 337.252 272.518L334.223 260.906ZM318.938 262.44C312.835 262.44 308.025 261.917 304.382 260.992L301.43 272.624C306.362 273.875 312.241 274.44 318.938 274.44V262.44ZM304.382 260.992C300.912 260.112 298.191 258.669 296.05 256.761L288.066 265.719C291.813 269.059 296.323 271.328 301.43 272.624L304.382 260.992ZM296.05 256.761C294.08 255.005 292.503 252.524 291.485 249.01L279.959 252.35C281.5 257.668 284.147 262.227 288.066 265.719L296.05 256.761ZM291.485 249.01C290.416 245.324 289.802 240.366 289.802 233.976H277.802C277.802 241.026 278.467 247.204 279.959 252.35L291.485 249.01ZM289.802 233.976C289.802 227.397 290.448 222.335 291.565 218.612L280.071 215.164C278.5 220.401 277.802 226.731 277.802 233.976H289.802ZM291.571 218.59C292.652 214.937 294.277 212.467 296.235 210.801L288.457 201.663C284.399 205.117 281.672 209.751 280.064 215.186L291.571 218.59ZM296.243 210.794C298.539 208.833 301.268 207.458 304.543 206.702L301.845 195.01C296.799 196.174 292.296 198.383 288.449 201.67L296.243 210.794ZM304.628 206.682C308.153 205.814 312.878 205.32 318.938 205.32V193.32C312.326 193.32 306.555 193.85 301.76 195.03L304.628 206.682ZM318.938 205.32C330.3 205.32 337.012 207.384 340.498 210.217L348.065 200.903C341.312 195.416 331.128 193.32 318.938 193.32V205.32ZM340.534 210.245C343.912 212.947 346.446 217.765 347.135 226.026L359.093 225.03C358.246 214.859 354.892 206.365 348.03 200.875L340.534 210.245ZM353.114 219.528H331.226V231.528H353.114V219.528ZM337.208 225.059C336.921 221.407 335.915 216.969 332.399 214.252L325.061 223.748C324.662 223.439 324.664 223.221 324.806 223.591C324.952 223.974 325.145 224.726 325.244 225.997L337.208 225.059ZM332.399 214.252C330.493 212.779 328.116 212.175 326.212 211.858C324.129 211.51 321.67 211.368 318.938 211.368V223.368C321.325 223.368 323.059 223.498 324.239 223.694C324.823 223.792 325.173 223.89 325.347 223.95C325.542 224.018 325.376 223.991 325.061 223.748L332.399 214.252ZM318.938 211.368C315.023 211.368 311.182 211.725 308.264 213.072L313.292 223.968C313.701 223.779 315.301 223.368 318.938 223.368V211.368ZM308.44 212.994C304.693 214.58 302.554 217.787 301.438 221.135L312.822 224.929C313.035 224.292 313.226 224.019 313.284 223.948C313.309 223.917 313.305 223.929 313.264 223.96C313.223 223.992 313.17 224.023 313.116 224.046L308.44 212.994ZM301.406 221.233C300.408 224.409 300.074 228.846 300.074 233.976H312.074C312.074 228.994 312.444 226.135 312.854 224.831L301.406 221.233ZM300.074 233.976C300.074 237.66 300.29 240.926 300.799 243.664C301.28 246.253 302.145 249.093 303.973 251.272L313.167 243.56C313.331 243.755 312.948 243.363 312.597 241.472C312.273 239.73 312.074 237.268 312.074 233.976H300.074ZM303.973 251.272C305.887 253.554 308.522 254.769 311.016 255.441C313.55 256.124 316.467 256.392 319.61 256.392V244.392C317.057 244.392 315.286 244.164 314.14 243.855C312.954 243.535 312.917 243.262 313.167 243.56L303.973 251.272ZM319.61 256.392C322.281 256.392 324.655 256.276 326.65 255.999C328.457 255.749 330.69 255.279 332.527 254.11L326.085 243.986C326.376 243.8 326.492 243.799 326.239 243.873C326.013 243.938 325.616 244.028 325.002 244.113C323.764 244.284 321.994 244.392 319.61 244.392V256.392ZM332.583 254.074C336.447 251.554 337.514 247.359 337.514 243.768H325.514C325.514 244.125 325.488 244.373 325.461 244.53C325.435 244.686 325.411 244.73 325.426 244.693C325.444 244.652 325.498 244.539 325.614 244.396C325.732 244.251 325.876 244.122 326.028 244.022L332.583 254.074ZM337.514 243.768V243.48H325.514V243.768H337.514ZM331.514 237.48H317.594V249.48H331.514V237.48ZM438.93 200.76H444.93V194.76H438.93V200.76ZM438.93 219.576V225.576H444.93V219.576H438.93ZM417.714 219.576V213.576H411.714V219.576H417.714ZM417.714 267V273H423.714V267H417.714ZM395.442 267H389.442V273H395.442V267ZM395.442 219.576H401.442V213.576H395.442V219.576ZM374.226 219.576H368.226V225.576H374.226V219.576ZM374.226 200.76V194.76H368.226V200.76H374.226ZM432.93 200.76V219.576H444.93V200.76H432.93ZM438.93 213.576H417.714V225.576H438.93V213.576ZM411.714 219.576V267H423.714V219.576H411.714ZM417.714 261H395.442V273H417.714V261ZM401.442 267V219.576H389.442V267H401.442ZM395.442 213.576H374.226V225.576H395.442V213.576ZM380.226 219.576V200.76H368.226V219.576H380.226ZM374.226 206.76H438.93V194.76H374.226V206.76ZM466.034 200.76H472.034V194.76H466.034V200.76ZM466.034 225.432H460.034V231.432H466.034V225.432ZM488.114 225.432V231.432H494.114V225.432H488.114ZM488.114 200.76V194.76H482.114V200.76H488.114ZM510.386 200.76H516.386V194.76H510.386V200.76ZM510.386 267V273H516.386V267H510.386ZM488.114 267H482.114V273H488.114V267ZM488.114 244.248H494.114V238.248H488.114V244.248ZM466.034 244.248V238.248H460.034V244.248H466.034ZM466.034 267V273H472.034V267H466.034ZM443.762 267H437.762V273H443.762V267ZM443.762 200.76V194.76H437.762V200.76H443.762ZM460.034 200.76V225.432H472.034V200.76H460.034ZM466.034 231.432H488.114V219.432H466.034V231.432ZM494.114 225.432V200.76H482.114V225.432H494.114ZM488.114 206.76H510.386V194.76H488.114V206.76ZM504.386 200.76V267H516.386V200.76H504.386ZM510.386 261H488.114V273H510.386V261ZM494.114 267V244.248H482.114V267H494.114ZM488.114 238.248H466.034V250.248H488.114V238.248ZM460.034 244.248V267H472.034V244.248H460.034ZM466.034 261H443.762V273H466.034V261ZM449.762 267V200.76H437.762V267H449.762ZM443.762 206.76H466.034V194.76H443.762V206.76ZM540.57 200.76H546.57V194.76H540.57V200.76ZM540.57 267V273H546.57V267H540.57ZM518.298 267H512.298V273H518.298V267ZM518.298 200.76V194.76H512.298V200.76H518.298ZM534.57 200.76V267H546.57V200.76H534.57ZM540.57 261H518.298V273H540.57V261ZM524.298 267V200.76H512.298V267H524.298ZM518.298 206.76H540.57V194.76H518.298V206.76ZM548.481 200.76V194.76H542.481V200.76H548.481ZM566.241 200.76L570.908 196.989L569.106 194.76H566.241V200.76ZM593.313 234.264L588.646 238.035L599.313 251.236V234.264H593.313ZM593.313 200.76V194.76H587.313V200.76H593.313ZM614.145 200.76H620.145V194.76H614.145V200.76ZM614.145 267V273H620.145V267H614.145ZM596.769 267L592.177 270.862L593.975 273H596.769V267ZM569.313 234.36L573.904 230.498L563.313 217.906V234.36H569.313ZM569.313 267V273H575.313V267H569.313ZM548.481 267H542.481V273H548.481V267ZM548.481 206.76H566.241V194.76H548.481V206.76ZM561.574 204.531L588.646 238.035L597.979 230.493L570.908 196.989L561.574 204.531ZM599.313 234.264V200.76H587.313V234.264H599.313ZM593.313 206.76H614.145V194.76H593.313V206.76ZM608.145 200.76V267H620.145V200.76H608.145ZM614.145 261H596.769V273H614.145V261ZM601.36 263.138L573.904 230.498L564.721 238.222L592.177 270.862L601.36 263.138ZM563.313 234.36V267H575.313V234.36H563.313ZM569.313 261H548.481V273H569.313V261ZM554.481 267V200.76H542.481V267H554.481ZM654.625 243.48H648.625V249.48H654.625V243.48ZM654.625 230.136V224.136H648.625V230.136H654.625ZM690.337 230.136H696.337V224.136H690.337V230.136ZM688.801 251.736L683.024 250.114L688.801 251.736ZM683.329 261.144L687.572 265.387L683.329 261.144ZM672.769 266.712L671.275 260.901L671.265 260.904L671.255 260.906L672.769 266.712ZM639.937 266.808L641.413 260.992L639.937 266.808ZM629.089 261.24L633.081 256.761L629.089 261.24ZM622.753 250.68L616.99 252.35L622.753 250.68ZM622.849 216.888L628.596 218.612L628.599 218.601L628.603 218.59L622.849 216.888ZM629.377 206.232L633.266 210.801L633.274 210.794L629.377 206.232ZM640.225 200.856L641.574 206.702L641.617 206.693L641.659 206.682L640.225 200.856ZM681.313 205.56L677.53 210.217L677.547 210.231L677.565 210.245L681.313 205.56ZM690.145 225.528V231.528H696.666L696.124 225.03L690.145 225.528ZM668.257 225.528L662.276 225.997L662.709 231.528H668.257V225.528ZM665.761 219L662.092 223.748L665.761 219ZM647.809 218.52L650.147 224.046L650.236 224.008L650.323 223.968L647.809 218.52ZM644.161 223.032L638.469 221.135L638.453 221.184L638.437 221.233L644.161 223.032ZM666.337 249.048L669.558 254.11L669.587 254.092L669.615 254.074L666.337 249.048ZM668.545 243.48H674.545V237.48H668.545V243.48ZM660.625 243.48V230.136H648.625V243.48H660.625ZM654.625 236.136H690.337V224.136H654.625V236.136ZM684.337 230.136V237.912H696.337V230.136H684.337ZM684.337 237.912C684.337 243.163 683.849 247.178 683.024 250.114L694.578 253.358C695.802 248.998 696.337 243.797 696.337 237.912H684.337ZM683.024 250.114C682.272 252.793 680.967 255.021 679.086 256.901L687.572 265.387C690.939 262.019 693.282 257.975 694.578 253.358L683.024 250.114ZM679.086 256.901C677.469 258.519 674.999 259.943 671.275 260.901L674.263 272.523C679.499 271.177 684.069 268.889 687.572 265.387L679.086 256.901ZM671.255 260.906C667.51 261.883 662.464 262.44 655.969 262.44V274.44C663.042 274.44 669.196 273.845 674.284 272.518L671.255 260.906ZM655.969 262.44C649.866 262.44 645.057 261.917 641.413 260.992L638.461 272.624C643.394 273.875 649.272 274.44 655.969 274.44V262.44ZM641.413 260.992C637.944 260.112 635.222 258.669 633.081 256.761L625.097 265.719C628.844 269.059 633.355 271.328 638.461 272.624L641.413 260.992ZM633.081 256.761C631.112 255.005 629.535 252.524 628.516 249.01L616.99 252.35C618.532 257.668 621.179 262.227 625.097 265.719L633.081 256.761ZM628.516 249.01C627.448 245.324 626.833 240.366 626.833 233.976H614.833C614.833 241.026 615.499 247.204 616.99 252.35L628.516 249.01ZM626.833 233.976C626.833 227.397 627.479 222.335 628.596 218.612L617.102 215.164C615.531 220.401 614.833 226.731 614.833 233.976H626.833ZM628.603 218.59C629.683 214.937 631.308 212.467 633.266 210.801L625.488 201.663C621.43 205.117 618.703 209.751 617.096 215.186L628.603 218.59ZM633.274 210.794C635.571 208.833 638.299 207.458 641.574 206.702L638.876 195.01C633.831 196.174 629.328 198.383 625.48 201.67L633.274 210.794ZM641.659 206.682C645.184 205.814 649.909 205.32 655.969 205.32V193.32C649.357 193.32 643.586 193.85 638.791 195.03L641.659 206.682ZM655.969 205.32C667.331 205.32 674.043 207.384 677.53 210.217L685.097 200.903C678.343 195.416 668.159 193.32 655.969 193.32V205.32ZM677.565 210.245C680.943 212.947 683.477 217.765 684.166 226.026L696.124 225.03C695.277 214.859 691.923 206.365 685.061 200.875L677.565 210.245ZM690.145 219.528H668.257V231.528H690.145V219.528ZM674.239 225.059C673.952 221.407 672.946 216.969 669.43 214.252L662.092 223.748C661.694 223.439 661.695 223.221 661.837 223.591C661.983 223.974 662.176 224.726 662.276 225.997L674.239 225.059ZM669.43 214.252C667.524 212.779 665.147 212.175 663.244 211.858C661.16 211.51 658.702 211.368 655.969 211.368V223.368C658.357 223.368 660.09 223.498 661.271 223.694C661.854 223.792 662.204 223.89 662.378 223.95C662.573 224.018 662.407 223.991 662.092 223.748L669.43 214.252ZM655.969 211.368C652.054 211.368 648.214 211.725 645.295 213.072L650.323 223.968C650.732 223.779 652.332 223.368 655.969 223.368V211.368ZM645.471 212.994C641.724 214.58 639.585 217.787 638.469 221.135L649.853 224.929C650.066 224.292 650.257 224.019 650.315 223.948C650.34 223.917 650.336 223.929 650.296 223.96C650.254 223.992 650.201 224.023 650.147 224.046L645.471 212.994ZM638.437 221.233C637.439 224.409 637.105 228.846 637.105 233.976H649.105C649.105 228.994 649.475 226.135 649.885 224.831L638.437 221.233ZM637.105 233.976C637.105 237.66 637.322 240.926 637.83 243.664C638.311 246.253 639.176 249.093 641.004 251.272L650.198 243.56C650.362 243.755 649.979 243.363 649.628 241.472C649.305 239.73 649.105 237.268 649.105 233.976H637.105ZM641.004 251.272C642.918 253.554 645.553 254.769 648.047 255.441C650.581 256.124 653.498 256.392 656.641 256.392V244.392C654.088 244.392 652.317 244.164 651.171 243.855C649.985 243.535 649.948 243.262 650.198 243.56L641.004 251.272ZM656.641 256.392C659.313 256.392 661.687 256.276 663.681 255.999C665.489 255.749 667.721 255.279 669.558 254.11L663.116 243.986C663.407 243.8 663.524 243.799 663.27 243.873C663.044 243.938 662.648 244.028 662.033 244.113C660.796 244.284 659.026 244.392 656.641 244.392V256.392ZM669.615 254.074C673.478 251.554 674.545 247.359 674.545 243.768H662.545C662.545 244.125 662.519 244.373 662.492 244.53C662.466 244.686 662.442 244.73 662.458 244.693C662.475 244.652 662.529 244.539 662.645 244.396C662.763 244.251 662.907 244.122 663.06 244.022L669.615 254.074ZM674.545 243.768V243.48H662.545V243.768H674.545ZM668.545 237.48H654.625V249.48H668.545V237.48Z" fill="white" mask="url(#path-1-outside-1_136_644)"/>
<defs>
<linearGradient id="paint0_linear_136_644" x1="-5" y1="0" x2="474.779" y2="403.266" gradientUnits="userSpaceOnUse">
<stop stop-color="#0FBACE"/>
<stop offset="0.505" stop-color="#FECD21"/>
<stop offset="1" stop-color="#FD8778"/>
</linearGradient>
</defs>
</svg>
