<svg width="24" height="24" viewBox="0 0 24 24" fill="none" xmlns="http://www.w3.org/2000/svg">
<g id="mi:notification">
<path id="Vector" d="M10.1461 3.24799C10.2956 2.8787 10.5519 2.56244 10.8822 2.33976C11.2125 2.11707 11.6018 1.99811 12.0001 1.99811C12.3985 1.99811 12.7878 2.11707 13.1181 2.33976C13.4484 2.56244 13.7047 2.8787 13.8541 3.24799C15.3329 3.65467 16.6373 4.53554 17.5669 5.75532C18.4966 6.9751 19.0001 8.46633 19.0002 9.99998V14.697L20.8322 17.445C20.9326 17.5956 20.9903 17.7706 20.9991 17.9515C21.0079 18.1323 20.9674 18.3121 20.882 18.4718C20.7966 18.6314 20.6695 18.7648 20.5142 18.8579C20.3588 18.9509 20.1812 19 20.0002 19H15.4651C15.3447 19.8331 14.9282 20.5949 14.2919 21.1459C13.6555 21.6969 12.8419 22.0002 12.0001 22.0002C11.1584 22.0002 10.3448 21.6969 9.70845 21.1459C9.07209 20.5949 8.65555 19.8331 8.53515 19H4.00015C3.81911 19 3.64145 18.9509 3.48614 18.8579C3.33083 18.7648 3.20369 18.6314 3.11828 18.4718C3.03287 18.3121 2.99239 18.1323 3.00118 17.9515C3.00996 17.7706 3.06767 17.5956 3.16815 17.445L5.00015 14.697V9.99998C5.00015 6.77598 7.18015 4.05999 10.1461 3.24799ZM10.5862 19C10.6894 19.2926 10.8809 19.546 11.1343 19.7253C11.3876 19.9045 11.6903 20.0008 12.0006 20.0008C12.311 20.0008 12.6137 19.9045 12.867 19.7253C13.1204 19.546 13.3119 19.2926 13.4151 19H10.5862ZM12.0001 4.99999C10.6741 4.99999 9.4023 5.52677 8.46462 6.46445C7.52693 7.40213 7.00015 8.6739 7.00015 9.99998V15C7.00019 15.1975 6.94174 15.3906 6.83215 15.555L5.86915 17H18.1301L17.1671 15.555C17.0579 15.3905 16.9998 15.1974 17.0001 15V9.99998C17.0001 8.6739 16.4734 7.40213 15.5357 6.46445C14.598 5.52677 13.3262 4.99999 12.0001 4.99999Z" fill="#4D4D4D"/>
</g>
</svg>
