<svg width="73" height="54" viewBox="0 0 73 54" fill="none" xmlns="http://www.w3.org/2000/svg">
<g id="Group 38">
<path id="Vector" d="M25.8683 30.5296C25.7156 30.045 25.4349 29.6141 25.0577 29.2852C24.6806 28.9564 24.222 28.7428 23.7336 28.6684L21.758 28.3673L20.8697 26.5335C20.6533 26.0738 20.316 25.6862 19.8963 25.415C19.4766 25.1438 18.9915 25 18.4963 25C18.0012 25 17.516 25.1438 17.0964 25.415C16.6767 25.6862 16.3394 26.0738 16.123 26.5335L15.2347 28.3673L13.2591 28.6684C12.7707 28.7439 12.3125 28.9586 11.936 29.2884C11.5595 29.6182 11.2797 30.0499 11.1281 30.535C10.9765 31.0201 10.9591 31.5392 11.0779 32.0339C11.1968 32.5287 11.4471 32.9793 11.8006 33.3351L13.2193 34.7721L12.8879 36.7975C12.8041 37.3007 12.8583 37.8181 13.0444 38.2911C13.2306 38.7642 13.5412 39.174 13.9412 39.4744C14.3412 39.7748 14.8146 39.9537 15.3079 39.991C15.8013 40.0282 16.2949 39.9223 16.7329 39.6851L18.4963 38.7272L20.2598 39.6851C20.6985 39.9227 21.1927 40.0293 21.6869 39.9931C22.181 39.9568 22.6556 39.7791 23.0574 39.4798C23.4579 39.1789 23.7685 38.7679 23.9537 38.2937C24.1389 37.8194 24.1913 37.301 24.1048 36.7975L23.7734 34.7721L25.1921 33.3351C25.5495 32.9808 25.8026 32.5294 25.9222 32.033C26.0419 31.5367 26.0232 31.0155 25.8683 30.5296ZM21.9171 32.8151C21.6105 33.1255 21.3816 33.5081 21.2499 33.9301C21.1183 34.352 21.0879 34.8006 21.1614 35.2374L21.4928 37.2628L19.7294 36.3048C19.3499 36.0959 18.9264 35.9866 18.4963 35.9866C18.0662 35.9866 17.6428 36.0959 17.2633 36.3048L15.4998 37.2628L15.8313 35.2374C15.9048 34.8006 15.8744 34.352 15.7428 33.9301C15.6111 33.5081 15.3822 33.1255 15.0756 32.8151L13.6436 31.3781L15.6192 31.077C16.0436 31.0153 16.4469 30.847 16.7936 30.5869C17.1404 30.3268 17.42 29.9829 17.608 29.5853L18.4963 27.7378L19.3847 29.5853C19.5727 29.9829 19.8523 30.3268 20.1991 30.5869C20.5458 30.847 20.9491 31.0153 21.3735 31.077L23.3491 31.3781L21.9171 32.8151Z" fill="#B69ECE"/>
<path id="Vector_2" d="M43.8716 30.5318C43.718 30.0454 43.4354 29.6133 43.056 29.2844C42.6765 28.9555 42.2154 28.743 41.7248 28.671L39.7636 28.37L38.8758 26.5365V26.5228C38.6561 26.0645 38.3164 25.6788 37.8952 25.4097C37.4741 25.1405 36.9883 24.9986 36.493 25C35.9977 25.0014 35.5127 25.1461 35.093 25.4177C34.6732 25.6893 34.3357 26.0769 34.1185 26.5365L33.2439 28.37L31.2694 28.671C30.7802 28.7443 30.3206 28.9575 29.9426 29.2864C29.5646 29.6152 29.2832 30.0467 29.1302 30.532C28.9772 31.0174 28.9586 31.5372 29.0767 32.0328C29.1948 32.5284 29.4448 32.98 29.7985 33.3367L31.2296 34.7733L30.8983 36.7983C30.8107 37.3017 30.8624 37.8205 31.0476 38.2949C31.2328 38.7693 31.5439 39.1801 31.9452 39.4801C32.4009 39.8181 32.9478 39.9999 33.5089 40C33.9377 39.9948 34.3596 39.8871 34.7413 39.6853L36.5037 38.7275L38.2662 39.6853C38.704 39.9224 39.1973 40.0283 39.6904 39.9911C40.1835 39.9539 40.6566 39.775 41.0564 39.4746C41.4562 39.1743 41.7666 38.7645 41.9527 38.2916C42.1387 37.8186 42.1929 37.3014 42.1091 36.7983L41.7778 34.7733L43.1958 33.3367C43.5507 32.9809 43.8022 32.5296 43.9216 32.0339C44.041 31.5382 44.0237 31.0178 43.8716 30.5318ZM39.9226 32.8167C39.6147 33.1264 39.3839 33.5084 39.2501 33.9301C39.1162 34.3518 39.0833 34.8008 39.154 35.2385L39.4986 37.2635L37.7361 36.3058C37.356 36.0996 36.9331 35.9919 36.5037 35.9919C36.0744 35.9919 35.6515 36.0996 35.2713 36.3058L33.5089 37.2635L33.8402 35.2385C33.9136 34.8019 33.8832 34.3533 33.7517 33.9315C33.6201 33.5096 33.3913 33.1271 33.0848 32.8167L31.6537 31.3801L33.6282 31.0791C34.0524 31.0173 34.4554 30.8491 34.802 30.5891C35.1485 30.329 35.428 29.9852 35.6159 29.5877L36.4905 27.7269L37.3783 29.5877C37.569 29.9858 37.8509 30.3298 38.1996 30.5897C38.5484 30.8496 38.9534 31.0176 39.3793 31.0791L41.3538 31.3801L39.9226 32.8167Z" fill="#B69ECE"/>
<path id="Vector_3" d="M62.8683 30.5296C62.7156 30.045 62.4349 29.6141 62.0577 29.2852C61.6806 28.9564 61.222 28.7428 60.7336 28.6684L58.758 28.3673L57.8697 26.5335C57.6533 26.0738 57.316 25.6862 56.8963 25.415C56.4766 25.1438 55.9915 25 55.4963 25C55.0012 25 54.516 25.1438 54.0964 25.415C53.6767 25.6862 53.3394 26.0738 53.123 26.5335L52.2347 28.3673L50.2591 28.6684C49.7707 28.7439 49.3125 28.9586 48.936 29.2884C48.5595 29.6182 48.2797 30.0499 48.1281 30.535C47.9765 31.0201 47.9591 31.5392 48.0779 32.0339C48.1968 32.5287 48.4471 32.9793 48.8006 33.3351L50.2193 34.7721L49.8879 36.7975C49.8041 37.3007 49.8583 37.8181 50.0444 38.2911C50.2306 38.7642 50.5412 39.174 50.9412 39.4744C51.3412 39.7748 51.8146 39.9537 52.3079 39.991C52.8013 40.0282 53.2949 39.9223 53.7329 39.6851L55.4963 38.7272L57.2598 39.6851C57.6985 39.9227 58.1927 40.0293 58.6869 39.9931C59.181 39.9568 59.6556 39.7791 60.0574 39.4799C60.4572 39.1783 60.7672 38.7672 60.9524 38.2931C61.1375 37.8191 61.1903 37.301 61.1048 36.7975L60.7734 34.7721L62.1921 33.3351C62.5495 32.9808 62.8026 32.5294 62.9222 32.033C63.0419 31.5367 63.0232 31.0155 62.8683 30.5296ZM58.9171 32.8151C58.6105 33.1255 58.3816 33.5081 58.2499 33.93C58.1183 34.352 58.0879 34.8006 58.1614 35.2374L58.4928 37.2628L56.7294 36.3048C56.3491 36.0986 55.9259 35.9909 55.4963 35.9909C55.0668 35.9909 54.6436 36.0986 54.2633 36.3048L52.4999 37.2628L52.8313 35.2374C52.9048 34.8006 52.8744 34.352 52.7428 33.93C52.6111 33.5081 52.3822 33.1255 52.0756 32.8151L50.6436 31.3781L52.6192 31.077C53.0436 31.0153 53.4469 30.847 53.7936 30.5869C54.1404 30.3268 54.42 29.9829 54.608 29.5853L55.4963 27.7378L56.3847 29.5853C56.5727 29.9829 56.8523 30.3268 57.1991 30.5869C57.5458 30.847 57.9491 31.0153 58.3735 31.077L60.3491 31.3781L58.9171 32.8151Z" fill="#B69ECE"/>
<path id="Vector_4" d="M45.3529 5C44.9941 5 44.65 5.15803 44.3963 5.43934C44.1425 5.72064 44 6.10218 44 6.5C44 6.89782 44.1425 7.27936 44.3963 7.56066C44.65 7.84197 44.9941 8 45.3529 8H65.6471C66.0059 8 66.35 7.84197 66.6037 7.56066C66.8575 7.27936 67 6.89782 67 6.5C67 6.10218 66.8575 5.72064 66.6037 5.43934C66.35 5.15803 66.0059 5 65.6471 5H45.3529Z" fill="#B69ECE"/>
<path id="Vector_5" d="M71.4792 8.1C71.8825 8.1 72.2693 7.95777 72.5546 7.7046C72.8398 7.45142 73 7.10804 73 6.75V4.05C73 2.97587 72.5193 1.94574 71.6637 1.18622C70.808 0.426695 69.6476 0 68.4375 0H4.5625C3.35245 0 2.19196 0.426695 1.33632 1.18622C0.48069 1.94574 0 2.97587 0 4.05V12.15C0 12.508 0.160231 12.8514 0.445442 13.1046C0.730654 13.3578 1.11748 13.5 1.52083 13.5H69.9583V49.95C69.9583 50.308 69.7981 50.6514 69.5129 50.9046C69.2277 51.1578 68.8409 51.3 68.4375 51.3H4.5625C4.15915 51.3 3.77232 51.1578 3.48711 50.9046C3.2019 50.6514 3.04167 50.308 3.04167 49.95V17.55C3.04167 17.192 2.88144 16.8486 2.59622 16.5954C2.31101 16.3422 1.92418 16.2 1.52083 16.2C1.11748 16.2 0.730654 16.3422 0.445442 16.5954C0.160231 16.8486 0 17.192 0 17.55V49.95C0 51.0241 0.48069 52.0543 1.33632 52.8138C2.19196 53.5733 3.35245 54 4.5625 54H68.4375C69.6476 54 70.808 53.5733 71.6637 52.8138C72.5193 52.0543 73 51.0241 73 49.95V12.15C73 11.792 72.8398 11.4486 72.5546 11.1954C72.2693 10.9422 71.8825 10.8 71.4792 10.8H3.04167V4.05C3.04167 3.69196 3.2019 3.34858 3.48711 3.09541C3.77232 2.84223 4.15915 2.7 4.5625 2.7H68.4375C68.8409 2.7 69.2277 2.84223 69.5129 3.09541C69.7981 3.34858 69.9583 3.69196 69.9583 4.05V6.75C69.9583 7.10804 70.1186 7.45142 70.4038 7.7046C70.689 7.95777 71.0758 8.1 71.4792 8.1Z" fill="#0FBACE"/>
<path id="Vector_6" d="M8.5 8C9.32843 8 10 7.32843 10 6.5C10 5.67157 9.32843 5 8.5 5C7.67157 5 7 5.67157 7 6.5C7 7.32843 7.67157 8 8.5 8Z" fill="#B69ECE"/>
<path id="Vector_7" d="M13.5 8C14.3284 8 15 7.32843 15 6.5C15 5.67157 14.3284 5 13.5 5C12.6716 5 12 5.67157 12 6.5C12 7.32843 12.6716 8 13.5 8Z" fill="#B69ECE"/>
<path id="Vector_8" d="M18.5 8C19.3284 8 20 7.32843 20 6.5C20 5.67157 19.3284 5 18.5 5C17.6716 5 17 5.67157 17 6.5C17 7.32843 17.6716 8 18.5 8Z" fill="#B69ECE"/>
<path id="Vector_9" d="M23.5 8C24.3284 8 25 7.32843 25 6.5C25 5.67157 24.3284 5 23.5 5C22.6716 5 22 5.67157 22 6.5C22 7.32843 22.6716 8 23.5 8Z" fill="#B69ECE"/>
</g>
</svg>
