<svg width="20" height="20" viewBox="0 0 20 20" fill="none" xmlns="http://www.w3.org/2000/svg">
<g id="bi:phone-fill">
<path id="Vector" d="M3.75 2.5C3.75 1.83696 4.01339 1.20107 4.48223 0.732233C4.95107 0.263392 5.58696 0 6.25 0L13.75 0C14.413 0 15.0489 0.263392 15.5178 0.732233C15.9866 1.20107 16.25 1.83696 16.25 2.5V17.5C16.25 18.163 15.9866 18.7989 15.5178 19.2678C15.0489 19.7366 14.413 20 13.75 20H6.25C5.58696 20 4.95107 19.7366 4.48223 19.2678C4.01339 18.7989 3.75 18.163 3.75 17.5V2.5ZM11.25 16.25C11.25 15.9185 11.1183 15.6005 10.8839 15.3661C10.6495 15.1317 10.3315 15 10 15C9.66848 15 9.35054 15.1317 9.11612 15.3661C8.8817 15.6005 8.75 15.9185 8.75 16.25C8.75 16.5815 8.8817 16.8995 9.11612 17.1339C9.35054 17.3683 9.66848 17.5 10 17.5C10.3315 17.5 10.6495 17.3683 10.8839 17.1339C11.1183 16.8995 11.25 16.5815 11.25 16.25Z" fill="#FD8778"/>
</g>
</svg>
