<svg width="16" height="16" viewBox="0 0 16 16" fill="none" xmlns="http://www.w3.org/2000/svg">
<rect width="16" height="16" rx="3" fill="#B69ECE"/>
<path d="M11.9146 5.20584C11.8604 5.15117 11.7958 5.10777 11.7248 5.07816C11.6537 5.04854 11.5774 5.03329 11.5004 5.03329C11.4234 5.03329 11.3472 5.04854 11.2761 5.07816C11.205 5.10777 11.1405 5.15117 11.0863 5.20584L6.74042 9.55751L4.91458 7.72584C4.85828 7.67145 4.79181 7.62869 4.71898 7.59999C4.64615 7.57128 4.56838 7.55721 4.49011 7.55856C4.41183 7.55992 4.3346 7.57667 4.2628 7.60788C4.191 7.63908 4.12606 7.68412 4.07167 7.74043C4.01728 7.79673 3.97451 7.8632 3.94581 7.93603C3.91711 8.00886 3.90303 8.08663 3.90439 8.16491C3.90574 8.24318 3.9225 8.32042 3.9537 8.39221C3.98491 8.46401 4.02995 8.52895 4.08625 8.58334L6.32625 10.8233C6.38048 10.878 6.445 10.9214 6.51608 10.951C6.58717 10.9806 6.66341 10.9959 6.74042 10.9959C6.81743 10.9959 6.89367 10.9806 6.96475 10.951C7.03584 10.9214 7.10036 10.878 7.15459 10.8233L11.9146 6.06334C11.9738 6.00872 12.0211 5.94242 12.0534 5.86863C12.0857 5.79484 12.1024 5.71515 12.1024 5.63459C12.1024 5.55403 12.0857 5.47435 12.0534 5.40056C12.0211 5.32677 11.9738 5.26047 11.9146 5.20584Z" fill="white"/>
</svg>
