<svg width="20" height="20" viewBox="0 0 20 20" fill="none" xmlns="http://www.w3.org/2000/svg">
<g id="copy 1">
<path id="Vector" d="M15 7.44984C14.9913 7.37328 14.9746 7.29786 14.95 7.22484V7.14984C14.9099 7.06415 14.8565 6.98539 14.7917 6.9165L9.79167 1.9165C9.72278 1.85168 9.64402 1.79824 9.55833 1.75817C9.53346 1.75464 9.50821 1.75464 9.48333 1.75817C9.39868 1.70962 9.30519 1.67846 9.20833 1.6665H5.83333C5.17029 1.6665 4.53441 1.9299 4.06557 2.39874C3.59673 2.86758 3.33333 3.50346 3.33333 4.1665V4.99984H2.5C1.83696 4.99984 1.20107 5.26323 0.732233 5.73207C0.263392 6.20091 0 6.8368 0 7.49984V15.8332C0 16.4962 0.263392 17.1321 0.732233 17.6009C1.20107 18.0698 1.83696 18.3332 2.5 18.3332H9.16667C9.82971 18.3332 10.4656 18.0698 10.9344 17.6009C11.4033 17.1321 11.6667 16.4962 11.6667 15.8332V14.9998H12.5C13.163 14.9998 13.7989 14.7364 14.2678 14.2676C14.7366 13.7988 15 13.1629 15 12.4998V7.49984C15 7.49984 15 7.49984 15 7.44984ZM10 4.50817L12.1583 6.6665H10.8333C10.6123 6.6665 10.4004 6.57871 10.2441 6.42243C10.0878 6.26615 10 6.05418 10 5.83317V4.50817ZM10 15.8332C10 16.0542 9.9122 16.2661 9.75592 16.4224C9.59964 16.5787 9.38768 16.6665 9.16667 16.6665H2.5C2.27899 16.6665 2.06702 16.5787 1.91074 16.4224C1.75446 16.2661 1.66667 16.0542 1.66667 15.8332V7.49984C1.66667 7.27882 1.75446 7.06686 1.91074 6.91058C2.06702 6.7543 2.27899 6.6665 2.5 6.6665H3.33333V12.4998C3.33333 13.1629 3.59673 13.7988 4.06557 14.2676C4.53441 14.7364 5.17029 14.9998 5.83333 14.9998H10V15.8332ZM13.3333 12.4998C13.3333 12.7209 13.2455 12.9328 13.0893 13.0891C12.933 13.2454 12.721 13.3332 12.5 13.3332H5.83333C5.61232 13.3332 5.40036 13.2454 5.24408 13.0891C5.0878 12.9328 5 12.7209 5 12.4998V4.1665C5 3.94549 5.0878 3.73353 5.24408 3.57725C5.40036 3.42097 5.61232 3.33317 5.83333 3.33317H8.33333V5.83317C8.33333 6.49621 8.59672 7.1321 9.06557 7.60094C9.53441 8.06978 10.1703 8.33317 10.8333 8.33317H13.3333V12.4998Z" fill="#0FBACE"/>
</g>
</svg>
