<svg width="58" height="117" viewBox="0 0 58 117" fill="none" xmlns="http://www.w3.org/2000/svg">
<path d="M55.7136 106.742C56.315 106.177 57.3585 105.878 58.8441 105.844C60.3296 105.809 61.3858 106.06 62.0128 106.596C62.6397 107.131 62.9702 108.131 63.0041 109.595C63.0219 110.367 62.9581 111.004 62.8126 111.508C62.66 112.019 62.4121 112.421 62.0688 112.715C61.7183 113.009 61.3051 113.218 60.8293 113.344C60.3462 113.469 59.7441 113.54 59.0227 113.557C58.4442 113.57 57.947 113.546 57.5312 113.484C57.1154 113.43 56.7377 113.317 56.3979 113.146C56.0511 112.983 55.7707 112.757 55.5568 112.469C55.3429 112.181 55.1773 111.817 55.0599 111.376C54.9425 110.936 54.8766 110.405 54.8622 109.784C54.8283 108.32 55.1121 107.306 55.7136 106.742ZM60.2051 108.149C60.0145 107.939 59.5764 107.842 58.8907 107.858C58.2051 107.874 57.7719 107.991 57.5912 108.209C57.4105 108.428 57.3293 108.934 57.3476 109.726C57.3544 110.019 57.367 110.255 57.3854 110.433C57.404 110.618 57.4365 110.785 57.4828 110.934C57.5291 111.083 57.5853 111.193 57.6512 111.263C57.7173 111.34 57.8188 111.402 57.9556 111.449C58.0853 111.496 58.2253 111.525 58.3757 111.535C58.526 111.546 58.7261 111.549 58.9761 111.543C59.2261 111.537 59.4259 111.525 59.5755 111.508C59.7252 111.49 59.8673 111.454 60.0018 111.401C60.1292 111.348 60.2241 111.282 60.2866 111.202C60.3492 111.129 60.4002 111.017 60.4396 110.866C60.479 110.715 60.5036 110.546 60.5136 110.36C60.5238 110.182 60.5255 109.946 60.5187 109.653C60.5003 108.86 60.3958 108.359 60.2051 108.149Z" fill="#FBC711"/>
<path d="M46.8498 104.925L49.6835 105.321L50.662 108.465L51.3094 108.555L51.7212 105.605L54.1834 105.949L53.1613 113.272L50.6991 112.928L51.2027 109.319L48.7145 112.651L46.0931 112.285L48.6245 109.187L46.8498 104.925Z" fill="#FBC711"/>
<path d="M41.1313 105.1L41.658 103.267L47.6006 104.974L45.5587 112.081L39.6161 110.373L40.1429 108.54L43.6961 109.561L43.9269 108.757L40.3737 107.737L40.9005 105.903L44.4537 106.924L44.6845 106.121L41.1313 105.1Z" fill="#FBC711"/>
<path d="M37.5973 109.655L35.8078 108.802L34.6893 104.126L33.08 107.501L30.981 106.501L34.1627 99.8264L35.9135 100.661L37.1122 105.269L38.68 101.98L40.779 102.98L37.5973 109.655Z" fill="#FBC711"/>
<path d="M24.7435 98.6167C24.5266 98.4306 24.3686 98.2198 24.2695 97.9842C24.1604 97.7494 24.0752 97.5304 24.0141 97.3274C23.9483 97.1298 23.8558 96.9798 23.7365 96.8775C23.6118 96.7705 23.4332 96.8525 23.2006 97.1236L22.0945 96.1747C22.6348 95.5558 23.122 95.2019 23.556 95.113C23.9845 95.0195 24.3858 95.1331 24.76 95.4541C24.928 95.5983 25.057 95.7607 25.1468 95.9413C25.2366 96.1219 25.2943 96.2796 25.3198 96.4144C25.3352 96.55 25.3661 96.6895 25.4126 96.8329C25.4536 96.9716 25.5202 97.0805 25.6123 97.1596C25.7587 97.2852 25.9436 97.2178 26.1668 96.9576L27.3217 97.9484C26.3891 99.0684 25.5296 99.2912 24.7435 98.6167Z" fill="#FBC711"/>
<path d="M14.4329 92.3886L13.3142 90.752L14.6961 86.1468L11.6088 88.2573L10.2965 86.3377L16.4004 82.1649L17.495 83.7661L16.2169 88.3523L19.2246 86.2961L20.5369 88.2158L14.4329 92.3886Z" fill="#FBC711"/>
<path d="M9.07961 77.6462L10.8044 76.8318L12.3371 80.078L14.8178 78.9067L15.8792 81.1548L9.19311 84.3117L6.59896 78.8174L8.32379 78.0031L9.85649 81.2492L10.6123 80.8923L9.07961 77.6462Z" fill="#FBC711"/>
<path d="M4.00354 70.7575L6.01083 70.1394L6.70777 72.4027L11.767 70.8448L12.4986 73.2208L7.4394 74.7787L8.13634 77.042L6.12905 77.6601L4.00354 70.7575Z" fill="#FBC711"/>
<path d="M5.69121 61.7058C5.67798 61.4203 5.72317 61.1608 5.82676 60.9271C5.92289 60.6867 6.02391 60.4746 6.12983 60.2909C6.2286 60.1075 6.27435 59.9374 6.26708 59.7804C6.25947 59.6162 6.07726 59.5424 5.72045 59.559L5.65299 58.1032C6.47399 58.0723 7.06561 58.1843 7.42785 58.4393C7.78976 58.6871 7.98212 59.0573 8.00494 59.5497C8.0152 59.7709 7.98537 59.9761 7.91547 60.1653C7.84557 60.3544 7.77028 60.5045 7.68961 60.6155C7.60147 60.7198 7.52112 60.8379 7.44858 60.97C7.3757 61.0949 7.34207 61.2181 7.3477 61.3394C7.35662 61.5321 7.53236 61.6205 7.8749 61.6046L7.94534 63.1246C6.49054 63.2135 5.73916 62.7406 5.69121 61.7058Z" fill="#FBC711"/>
<path d="M8.61809 47.2007L7.16416 46.8771L8.03023 42.986L8.87748 43.1746C9.48416 43.3096 9.97381 43.4772 10.3465 43.6772C10.7191 43.8772 11.0166 44.152 11.2388 44.5016C11.4557 44.8426 11.5725 45.2711 11.5894 45.7872C11.6078 46.2963 11.5348 46.9204 11.3703 47.6596C11.215 48.3569 11.0262 48.926 10.8036 49.3668C10.5811 49.8076 10.2912 50.1566 9.93388 50.4137C9.57658 50.6709 9.14183 50.8156 8.62963 50.848C8.11744 50.8804 7.49524 50.8151 6.76305 50.6521C6.00994 50.4845 5.40562 50.2731 4.95009 50.018C4.48758 49.7614 4.15333 49.4381 3.94735 49.0483C3.73595 48.65 3.62839 48.2125 3.62468 47.736C3.61399 47.2579 3.68548 46.6737 3.83914 45.9833C4.12472 44.7002 4.55623 43.8302 5.13366 43.3732C5.70412 42.9147 6.50073 42.7554 7.5235 42.8952L6.99269 45.28C6.63084 45.2288 6.37358 45.2666 6.22088 45.3937C6.06819 45.5207 5.92976 45.8631 5.80559 46.421C5.71402 46.8324 5.6899 47.1381 5.73322 47.338C5.76957 47.5364 5.90395 47.7054 6.13637 47.8449C6.36336 47.976 6.7523 48.1028 7.30318 48.2254C8.06327 48.3946 8.57157 48.4126 8.8281 48.2794C9.08462 48.1462 9.28195 47.7693 9.42009 47.1487C9.54271 46.5978 9.57227 46.2348 9.50879 46.0596C9.43989 45.876 9.26598 45.7531 8.98705 45.691L8.95567 45.684L8.61809 47.2007Z" fill="#FBC711"/>
<path d="M12.1217 43.637L6.39698 38.0782L7.25057 35.9729L15.2261 35.9805L14.1913 38.5326L13.2583 38.4666L12.4209 40.5322L13.1364 41.1345L12.1217 43.637ZM11.6869 38.3498L9.66582 38.201L11.2158 39.5117L11.6869 38.3498Z" fill="#FBC711"/>
<path d="M16.2755 31.5827L13.3688 32.0924L16.4771 34.0541L15.1502 36.1565L8.89747 32.2102L9.94409 30.5519L13.8584 30.0318L12.6321 26.2928L13.6673 24.6525L19.9201 28.5988L18.5932 30.7012L15.485 28.7395L16.2755 31.5827Z" fill="#FBC711"/>
<path d="M23.0388 22.4315L24.4544 23.7099L20.3103 28.2986L14.8229 23.343L18.967 18.7542L20.3826 20.0326L17.9048 22.7763L18.5251 23.3365L21.0029 20.5928L22.4185 21.8713L19.9407 24.615L20.561 25.1752L23.0388 22.4315Z" fill="#FBC711"/>
<path d="M25.8117 17.744L27.059 19.1871L23.9132 21.9058L22.666 20.4627L25.8117 17.744Z" fill="#FBC711"/>
<path d="M31.2921 12.6662L32.357 14.2487L29.3787 16.2528L30.9102 18.5288L28.8477 19.9167L24.7197 13.7824L29.7606 10.3903L30.8255 11.9728L27.8472 13.9769L28.3138 14.6703L31.2921 12.6662Z" fill="#FBC711"/>
<path d="M33.0584 8.65014L36.6059 15.1375L34.4246 16.3303L30.8772 9.8429L33.0584 8.65014Z" fill="#FBC711"/>
<path d="M41.1238 8.41608C41.3965 8.33095 41.6591 8.3089 41.9113 8.34991C42.1683 8.38197 42.3991 8.42596 42.6036 8.48187C42.806 8.53095 42.9822 8.53209 43.1323 8.48527C43.2891 8.43632 43.3143 8.24136 43.2079 7.90038L44.5991 7.46624C44.837 8.25261 44.8786 8.85331 44.7237 9.26834C44.5757 9.68124 44.2664 9.96111 43.7958 10.108C43.5844 10.1739 43.3783 10.1971 43.1776 10.1774C42.9769 10.1577 42.8126 10.1229 42.6848 10.073C42.5617 10.0141 42.427 9.96636 42.2809 9.92965C42.1415 9.89081 42.0139 9.88948 41.8979 9.92566C41.7138 9.98312 41.6728 10.1755 41.775 10.5029L40.3224 10.9562C39.8678 9.57136 40.1349 8.72466 41.1238 8.41608Z" fill="#FBC711"/>
<path d="M58.4481 8.15201L58.5438 10.057L52.3685 10.3671L51.9977 2.98244L58.173 2.6724L58.2686 4.57742L54.5763 4.7628L54.6182 5.59759L58.3106 5.41221L58.4062 7.31723L54.7139 7.50261L54.7558 8.33739L58.4481 8.15201Z" fill="#FBC711"/>
<path d="M76.9235 58.0784C76.9235 68.5279 68.4525 76.9989 58.003 76.9989C47.5535 76.9989 39.0825 68.5279 39.0825 58.0784C39.0825 47.6289 47.5535 39.158 58.003 39.158C68.4525 39.158 76.9235 47.6289 76.9235 58.0784Z" fill="#FD8778"/>
</svg>
