<svg width="276" height="573" viewBox="0 0 276 573" fill="none" xmlns="http://www.w3.org/2000/svg">
<g clip-path="url(#clip0_136_498)">
<path d="M0.535688 410.97L0.535706 -1.85144e-05L10.0741 -1.80975e-05L10.0741 410.97C10.0951 429.779 17.5939 447.812 30.9255 461.113C44.257 474.413 62.3324 481.894 81.186 481.915L194.834 481.915C213.688 481.894 231.763 474.413 245.095 461.113C258.426 447.812 265.925 429.78 265.946 410.97L265.946 99.3941C265.933 87.3634 263.501 75.4575 258.795 64.3807C254.089 53.3039 247.205 43.281 238.548 34.9051C229.892 26.5291 219.64 19.9701 208.398 15.616C197.157 11.2619 185.154 9.20112 173.1 9.55559C124.932 10.98 85.6281 52.1898 85.6281 101.412L85.6281 218.018L76.1095 218.018L76.1095 101.412C76.2086 47.1054 119.538 1.62226 172.882 -1.09809e-05C186.209 -0.383601 199.478 1.90325 211.904 6.72525C224.329 11.5473 235.659 18.8065 245.224 28.0735C254.788 37.3405 262.392 48.4271 267.586 60.6774C272.781 72.9276 275.46 86.0928 275.465 99.3941L275.465 410.97C275.439 432.296 266.935 452.742 251.82 467.822C236.704 482.902 216.211 491.385 194.834 491.411L81.186 491.411C59.8061 491.39 39.3076 482.909 24.1878 467.829C9.06803 452.748 0.561932 432.3 0.535688 410.97Z" fill="#0FBACE"/>
<path d="M44.9954 405.925L44.9954 -8.13073e-06L54.5339 -7.71379e-06L54.5338 405.925C54.5338 414.32 57.8767 422.372 63.827 428.308C69.7772 434.244 77.8476 437.579 86.2625 437.579L189.758 437.579C198.173 437.579 206.243 434.244 212.193 428.308C218.143 422.372 221.486 414.32 221.486 405.925L221.486 100.898C221.486 75.7722 202.469 55.1574 178.157 53.9704C171.975 53.6562 165.794 54.6007 159.989 56.7464C154.185 58.8921 148.879 62.194 144.395 66.451C139.911 70.708 136.342 75.8311 133.906 81.5083C131.471 87.1855 130.219 93.2979 130.227 99.4732L130.227 218.176L120.688 218.176L120.688 99.4732C120.687 92.0106 122.206 84.6255 125.152 77.766C128.098 70.9066 132.411 64.7157 137.827 59.5689C143.244 54.4222 149.652 50.4268 156.663 47.8253C163.674 45.2237 171.142 44.0701 178.613 44.4345C207.982 45.8788 231.005 70.668 231.005 100.898L231.005 405.965C230.994 416.875 226.645 427.336 218.912 435.051C211.179 442.766 200.694 447.105 189.758 447.115L86.2427 447.115C75.2996 447.105 64.8083 442.76 57.074 435.037C49.3398 427.314 44.9954 416.843 44.9954 405.925Z" fill="#0FBACE"/>
<path d="M22.7651 409.684L22.7651 -1.00741e-05L32.3035 -9.65719e-06L32.3035 409.684C32.3192 422.954 37.6102 435.676 47.0156 445.06C56.4211 454.443 69.1732 459.722 82.4745 459.737L193.525 459.737C206.828 459.722 219.582 454.444 228.991 445.061C238.399 435.678 243.695 422.956 243.716 409.684L243.716 99.3941C243.412 81.6367 236.127 64.7092 223.432 52.2587C210.737 39.8082 193.648 32.8314 175.846 32.8314C158.044 32.8314 140.955 39.8082 128.26 52.2587C115.565 64.7091 108.281 81.6367 107.976 99.3941L107.976 218.097L98.438 218.097L98.438 99.3941C98.438 78.9151 106.592 59.2748 121.107 44.7939C135.622 30.313 155.309 22.1777 175.836 22.1777C196.363 22.1777 216.05 30.313 230.565 44.7939C245.08 59.2748 253.234 78.9151 253.234 99.3941L253.234 409.684C253.213 425.475 246.915 440.612 235.721 451.776C224.528 462.94 209.353 469.218 193.525 469.234L82.4745 469.234C66.6468 469.218 51.4716 462.94 40.2779 451.776C29.0842 440.612 22.7861 425.475 22.7651 409.684Z" fill="#0FBACE"/>
<path d="M198.661 154.097H153.051V132.057L179.902 112.471L153.051 112.471V95.6156L198.661 95.6156V117.655L171.831 137.241H198.661V154.097Z" fill="#B69ECE"/>
<path d="M153.051 174.85V157.994L198.661 157.994L198.661 174.85H153.051Z" fill="#B69ECE"/>
<path d="M198.661 237.228L153.051 237.228V215.189L179.902 195.603H153.051V178.747H198.661V200.787L171.831 220.373H198.661V237.228Z" fill="#B69ECE"/>
<path d="M185.593 258.001H181.369L181.369 289.121L170.324 289.121V258.001H166.08V289.121H153.051L153.051 241.146H198.661V289.121H185.672L185.593 258.001Z" fill="#B69ECE"/>
<path d="M184.284 347.484V328.036H153.051V311.18H184.284V291.733H198.661L198.661 347.484H184.284Z" fill="#B69ECE"/>
<path d="M198.661 350.175V369.622L181.766 381.69L198.661 393.699V413.166L168.122 390.079H153.051V373.223H168.043L198.661 350.175Z" fill="#B69ECE"/>
<path d="M103.277 242.432C119.141 242.432 126.598 250.998 126.598 270.96C126.598 290.922 119.003 299.488 103.277 299.488C87.5516 299.488 79.7979 290.823 79.7979 271.039C79.7979 251.255 87.4127 242.432 103.277 242.432ZM103.277 282.632C108.017 282.632 112.3 280.951 112.3 270.96C112.3 260.969 108.076 259.287 103.277 259.287C98.4781 259.287 94.1154 261.048 94.1154 270.96C94.1154 280.872 98.4583 282.632 103.277 282.632Z" fill="#B69ECE"/>
<path d="M125.963 361.234H80.353L80.353 339.194L107.203 319.608H80.4521L80.4521 302.693H126.062V324.732L99.2117 344.318H125.963V361.234Z" fill="#B69ECE"/>
<path d="M112.954 382.007H108.73L108.73 413.127H97.6848L97.6848 382.007H93.4609L93.4609 413.127H80.4521L80.4521 365.131H126.062L126.062 413.127H113.053L112.954 382.007Z" fill="#B69ECE"/>
<path d="M276 573L276 563.484L3.05176e-05 563.484L3.01016e-05 573L276 573Z" fill="#0FBACE"/>
<path d="M276 550.466L276 540.95L3.05176e-05 540.95L3.01016e-05 550.466L276 550.466Z" fill="#0FBACE"/>
<path d="M276 527.932L276 518.416L3.05176e-05 518.416L3.01016e-05 527.932L276 527.932Z" fill="#0FBACE"/>
</g>
<defs>
<clipPath id="clip0_136_498">
<rect width="573" height="276" fill="white" transform="translate(276) rotate(90)"/>
</clipPath>
</defs>
</svg>
