<svg width="254" height="64" viewBox="0 0 254 64" fill="none" xmlns="http://www.w3.org/2000/svg">
<circle cx="2" cy="31" r="2" fill="#B69ECE"/>
<circle cx="252" cy="31" r="2" fill="#0FBACE"/>
<circle cx="42.5" cy="4.5" r="3.5" fill="#FD8778"/>
<path d="M32.5 55L33.7154 58.2846L37 59.5L33.7154 60.7154L32.5 64L31.2846 60.7154L28 59.5L31.2846 58.2846L32.5 55Z" fill="#0FBACE"/>
<path d="M211.5 0L212.715 3.28459L216 4.5L212.715 5.71541L211.5 9L210.285 5.71541L207 4.5L210.285 3.28459L211.5 0Z" fill="#B69ECE"/>
<path d="M227.5 57L228.175 58.8248L230 59.5L228.175 60.1752L227.5 62L226.825 60.1752L225 59.5L226.825 58.8248L227.5 57Z" fill="#FD8778"/>
</svg>
